<?xml version="1.0" encoding="utf-8"?>
<!-- Generator: Adobe Illustrator 28.2.0, SVG Export Plug-In . SVG Version: 6.00 Build 0)  -->
<svg version="1.1" id="Layer_1" xmlns="http://www.w3.org/2000/svg" xmlns:xlink="http://www.w3.org/1999/xlink" x="0px" y="0px"
	 viewBox="0 0 3471.2 791.8" style="enable-background:new 0 0 3471.2 791.8;" xml:space="preserve">
<g id="Text">
</g>
<g id="reg">
</g>
<g>
	<g>
		<g>
			<path d="M902.2,269c14.6,0,27.9,1,40.1,3c12.1,2.1,22.6,5.8,31.5,11.1c8.8,5.4,15.7,12.7,20.6,22.1c4.9,9.4,7.4,21.4,7.4,36.1
				s-2.4,26.9-7.4,36.1c-4.9,9.4-11.8,16.6-20.6,21.8c-8.9,5.2-19.3,8.8-31.5,10.7c-12.1,2-25.5,2.9-40.1,2.9h-41.2v94.9h-33.6V269
				H902.2z M861.1,384.1h44c8.5,0,16.7-0.5,24.4-1.3c7.6-0.8,14.3-2.7,19.9-5.5c5.7-2.9,10-7,13.3-12.7c3.2-5.7,4.9-13.3,4.9-23.1
				s-1.6-17.6-4.9-23.4c-3.2-5.9-7.6-10.3-13.3-13.3s-12.2-5-19.9-5.9c-7.6-0.9-15.7-1.4-24.4-1.4h-44L861.1,384.1L861.1,384.1z"/>
		</g>
		<g>
			<path d="M1129.9,364c-6.5-8.1-16.9-12.1-31.2-12.1c-10.7,0-19.5,2.4-26.3,7.4c-6.8,5-11.2,11.7-13,20.2l-29-8.5
				c4.7-13.6,13.3-24.1,25.6-31.6c12.2-7.5,26.4-11.3,42.4-11.3c24.6,0,42.4,5.8,53.6,17.2c11.1,11.4,16.7,29.7,17,54.7l0.3,41.6
				c0.2,15,0.9,27.8,2,38.5c1,10.6,2.4,20.1,4.2,28.5h-27.6l-7.2-24.4c-5.5,9.1-13,16.2-22.5,21.1c-9.6,5-22.2,7.5-38,7.5
				c-8.3,0-16.3-1.2-23.7-3.5c-7.4-2.3-13.9-5.5-19.5-10c-5.7-4.4-10-9.8-13.3-16.2c-3.2-6.4-4.9-13.5-4.9-21.6
				c0-10.5,2.9-19.4,8.5-26.4c5.8-7.2,13.7-13,24.1-17.8c10.4-4.6,23-8.3,37.8-11.1c14.8-2.8,31.3-5.2,49.4-7.4
				C1139.4,383.7,1136.4,372,1129.9,364z M1061.4,480.8c6.1,5.1,14.6,7.7,25.3,7.7c6.9,0,13.6-0.9,20.2-2.7
				c6.6-1.8,12.4-4.7,17.6-8.9c5.1-4.2,9.2-9.8,12.4-16.9c3.1-7,4.6-15.8,4.6-26.3v-11.1c-13.6,1.4-25.9,3-36.8,4.9
				c-11,1.8-20.3,4.2-28.1,6.9c-7.7,2.9-13.7,6.4-17.9,10.5c-4.2,4.2-6.2,9.4-6.2,15.6C1052.2,468.9,1055.3,475.7,1061.4,480.8z"/>
		</g>
		<g>
			<path d="M1218.7,269.4h30v189.4c0,9,0.9,15.1,2.9,18.2c2,3.1,7,4.6,15.4,4.6h6.8v26.4h-13.3c-8.5,0-15.6-0.6-20.9-1.8
				c-5.3-1.2-9.6-3.3-12.7-6.6c-3.1-3.2-5.2-7.7-6.5-13.4c-1.2-5.8-1.7-13.3-1.7-22.5L1218.7,269.4L1218.7,269.4z"/>
		</g>
		<g>
			<path d="M1416.4,336.2c10.7,5.7,19.6,13,26.7,22.4s12.1,20,15.4,32.1c3.2,12,4.4,24.4,3.3,37.1h-136.7
				c0.5,11.2,2.5,20.6,6.2,28.1c3.7,7.5,8.2,13.5,13.6,17.9c5.4,4.4,11.2,7.6,17.3,9.5c6.2,2,12,2.9,17.6,2.9
				c10,0,18.5-1.5,25.3-4.6c6.8-3.1,12.2-7.4,16.3-12.9l29,8.5c-6.5,10.5-15.6,19.1-27.6,25.6c-11.9,6.6-26.2,9.8-43,9.8
				c-13.9,0-26.2-2.4-37.1-7.2s-20-11.3-27.4-19.6c-7.4-8.3-13-18.1-16.9-29.3c-3.8-11.2-5.8-23.3-5.8-36.5
				c0-14.1,2.2-26.8,6.6-38.1c4.4-11.3,10.5-21,18.2-29c7.7-8,16.9-14.2,27.4-18.5c10.5-4.3,21.8-6.5,34.1-6.5
				C1393.2,327.8,1405.7,330.6,1416.4,336.2z M1426.3,385.2c-2.4-6.1-5.8-11.4-10.2-16.2c-4.4-4.6-9.7-8.4-15.9-11.3
				c-6.2-2.9-13.3-4.3-21.1-4.3c-6.7,0-13.2,0.9-19.3,2.9c-6.2,2-11.7,4.9-16.5,8.8c-4.7,3.9-8.8,9.1-12,15.4
				c-3.2,6.4-5.2,14-5.9,23.1h104.5C1429.9,397.4,1428.8,391.3,1426.3,385.2z"/>
		</g>
		<g>
			<path d="M1509.5,285.9h30v44.8h34.4v24h-34.4v104.2c0,4.5,0.1,8.3,0.3,11.3c0.2,3,1,5.3,2.3,6.9c1.3,1.7,3.1,2.9,5.5,3.6
				s5.8,1,10,1h16.2v26.4h-22.5c-8.5,0-15.6-0.6-20.9-1.8c-5.3-1.2-9.6-3.3-12.7-6.6c-3.1-3.2-5.2-7.7-6.5-13.4
				c-1.2-5.8-1.8-13.3-1.8-22.5V354.6h-30v-24h30L1509.5,285.9L1509.5,285.9z"/>
		</g>
		<g>
			<path d="M1625.4,285.9h30v44.8h34.4v24h-34.4v104.2c0,4.5,0.1,8.3,0.3,11.3c0.2,3,1,5.3,2.3,6.9c1.3,1.7,3.1,2.9,5.5,3.6
				c2.4,0.7,5.8,1,10,1h16.2v26.4h-22.5c-8.5,0-15.6-0.6-20.9-1.8c-5.3-1.2-9.6-3.3-12.7-6.6c-3.1-3.2-5.2-7.7-6.5-13.4
				c-1.2-5.8-1.8-13.3-1.8-22.5V354.6h-30v-24h30L1625.4,285.9L1625.4,285.9z"/>
		</g>
		<g>
			<path d="M1841.4,336.2c10.7,5.7,19.6,13,26.7,22.4s12.1,20,15.4,32.1c3.2,12,4.4,24.4,3.3,37.1H1750c0.5,11.2,2.5,20.6,6.2,28.1
				c3.7,7.5,8.2,13.5,13.6,17.9c5.4,4.4,11.2,7.6,17.3,9.5c6.1,1.8,12,2.9,17.6,2.9c10,0,18.5-1.5,25.3-4.6
				c6.8-3.1,12.2-7.4,16.3-12.9l29,8.5c-6.5,10.5-15.6,19.1-27.6,25.6c-11.9,6.6-26.2,9.8-43,9.8c-13.9,0-26.2-2.4-37.1-7.2
				s-20-11.3-27.4-19.6c-7.4-8.3-13-18.1-16.9-29.3c-3.8-11.2-5.8-23.3-5.8-36.5c0-14.1,2.2-26.8,6.6-38.1c4.4-11.3,10.5-21,18.2-29
				c7.7-8,16.9-14.2,27.4-18.5c10.5-4.3,21.8-6.5,34.1-6.5C1818.2,327.8,1830.7,330.6,1841.4,336.2z M1851.4,385.2
				c-2.4-6.1-5.8-11.4-10.2-16.2c-4.4-4.6-9.7-8.4-15.9-11.3c-6.2-2.9-13.3-4.3-21.1-4.3c-6.7,0-13.2,0.9-19.3,2.9
				c-6.1,2-11.7,4.9-16.5,8.8c-4.7,3.9-8.8,9.1-12,15.4c-3.2,6.4-5.2,14-5.9,23.1H1855C1855,397.4,1853.7,391.3,1851.4,385.2z"/>
		</g>
		<g>
			<path d="M1924.4,508.2V269h33.6v120.3L2065.8,269h41.9l-91.3,99.9l101.7,139.3h-41.2l-83-114.6L1958,433v75.2L1924.4,508.2
				L1924.4,508.2z"/>
		</g>
		<g>
			<path d="M2176.9,357.5c5-8.3,12-15.4,21.1-21.1c9.1-5.8,21.1-8.5,36.1-8.5c10.7,0,19.9,1.7,27.4,5c7.5,3.2,13.6,8,18.2,14
				c4.6,6,8,13.2,10,21.5s3,17.6,3,27.6v112.5h-30V404.8c0-6.9-0.5-13.4-1.3-19.5c-0.8-6.1-2.7-11.5-5.3-16.3
				c-2.8-4.7-6.7-8.5-11.8-11.3c-5.1-2.8-12-4.2-20.6-4.2c-14.6,0-26,5-34.4,14.9c-8.3,9.9-12.6,24.4-12.6,43.5v96.3h-30V330.7h22.2
				L2176.9,357.5z"/>
		</g>
		<g>
			<path d="M2333.3,330.7h54.7v177.6h-30V354.7h-24.7V330.7z M2357.3,258.6c4.3-4.3,9.6-6.5,15.7-6.5c6.2,0,11.5,2.2,15.9,6.5
				c4.4,4.3,6.6,9.6,6.6,15.7c0,6.2-2.2,11.5-6.6,15.9c-4.4,4.4-9.7,6.6-15.9,6.6c-6.2,0-11.4-2.2-15.7-6.6
				c-4.3-4.4-6.5-9.7-6.5-15.9C2350.9,268.2,2353,263,2357.3,258.6z"/>
		</g>
		<g>
			<path d="M2422.2,330.7h30v-26.4c0-9.1,0.6-16.7,1.8-22.9c1.2-6.2,3.5-11.2,6.9-15c3.5-3.8,8.3-6.6,14.6-8.2
				c6.2-1.6,14.3-2.5,24.4-2.5h19.3V281h-18.6c-7.6,0-12.6,1.5-14.9,4.6c-2.3,3.1-3.3,9.2-3.3,18.2v26.9h36.8v24h-36.8v153.6h-30
				V354.8h-30v-24.1H2422.2z"/>
		</g>
		<g>
			<path d="M2657.7,336.2c10.7,5.7,19.6,13,26.7,22.4c7,9.4,12.1,20,15.4,32.1c3.2,12,4.4,24.4,3.3,37.1h-136.7
				c0.5,11.2,2.5,20.6,6.2,28.1c3.7,7.5,8.2,13.5,13.6,17.9c5.4,4.4,11.2,7.6,17.3,9.5c6.2,2,12,2.9,17.6,2.9
				c10,0,18.5-1.5,25.3-4.6c6.8-3.1,12.2-7.4,16.3-12.9l29,8.5c-6.5,10.5-15.6,19.1-27.6,25.6c-11.9,6.6-26.2,9.8-43,9.8
				c-13.9,0-26.2-2.4-37.1-7.2c-10.9-4.7-20-11.3-27.4-19.6c-7.4-8.3-13-18.1-16.9-29.3c-3.8-11.2-5.8-23.3-5.8-36.5
				c0-14.1,2.2-26.8,6.6-38.1s10.5-21,18.2-29c7.7-8,16.9-14.2,27.4-18.5c10.5-4.3,21.8-6.5,34.1-6.5
				C2634.5,327.8,2647,330.6,2657.7,336.2z M2667.8,385.2c-2.4-6.1-5.8-11.4-10.2-16.2c-4.4-4.6-9.7-8.4-15.9-11.3
				c-6.2-2.9-13.3-4.3-21.1-4.3c-6.7,0-13.2,0.9-19.3,2.9c-6.2,2-11.7,4.9-16.5,8.8c-4.7,3.9-8.8,9.1-12,15.4
				c-3.2,6.4-5.2,14-5.9,23.1h104.5C2671.4,397.4,2670.1,391.3,2667.8,385.2z"/>
		</g>
	</g>
	<g>
		<path d="M2605,612.9H866.2c-119.1,0-215.8-96.8-215.8-215.8s96.8-215.8,215.8-215.8h1738.6c119.1,0,215.8,96.8,215.8,215.8
			C2820.8,516,2723.9,612.9,2605,612.9z M866.2,211.1c-102.5,0-186,83.5-186,186S763.7,583,866.2,583h1738.6
			c102.5,0,186-83.5,186-186s-83.4-185.9-185.9-185.9H866.2z"/>
	</g>
</g>
</svg>
