<?xml version="1.0" encoding="utf-8"?>
<!-- Generator: Adobe Illustrator 28.2.0, SVG Export Plug-In . SVG Version: 6.00 Build 0)  -->
<svg version="1.1" id="Layer_1" xmlns="http://www.w3.org/2000/svg" xmlns:xlink="http://www.w3.org/1999/xlink" x="0px" y="0px"
	 viewBox="0 0 3471.2 791.8" style="enable-background:new 0 0 3471.2 791.8;" xml:space="preserve">
<g id="Text">
</g>
<g id="reg">
</g>
<g>
	<g>
		<g>
			<path d="M487.5,205.4c21.8,0,41.8,1.5,60.1,4.6c18.2,3.1,34,8.6,47.2,16.6c13.2,8.1,23.5,19,30.8,33c7.3,13.9,11,32,11,54.2
				s-3.7,40.2-11,54.2c-7.3,13.9-17.6,24.9-30.8,32.7c-13.2,7.9-29,13.2-47.2,16.1c-18.2,2.9-38.2,4.3-60.1,4.3h-61.7V563h-50.4
				V205.4H487.5z M425.9,377.5h66c12.9,0,25-0.6,36.5-1.9c11.4-1.2,21.4-4,29.8-8.3c8.4-4.3,15-10.6,19.8-19
				c4.8-8.4,7.2-19.9,7.2-34.6s-2.4-26.4-7.2-35.1c-4.8-8.7-11.4-15.4-19.8-19.8c-8.4-4.5-18.3-7.4-29.8-8.9
				c-11.4-1.4-23.6-2.1-36.5-2.1h-66V377.5z"/>
		</g>
		<g>
			<path d="M828.6,347.5c-9.7-12.2-25.2-18.2-46.6-18.2c-16.1,0-29.2,3.7-39.4,11c-10.2,7.3-16.7,17.4-19.6,30.3l-43.4-12.9
				c7.1-20.4,19.9-36.2,38.3-47.5c18.4-11.3,39.6-16.9,63.5-16.9c36.8,0,63.5,8.6,80.2,25.7c16.6,17.2,25.1,44.5,25.5,82l0.5,62.2
				c0.3,22.5,1.3,41.7,2.9,57.6c1.6,15.9,3.7,30.1,6.2,42.6h-41.3l-10.7-36.5c-8.2,13.6-19.5,24.1-33.8,31.6
				c-14.3,7.5-33.3,11.3-56.8,11.3c-12.5,0-24.3-1.7-35.4-5.1c-11.1-3.4-20.8-8.4-29.2-15c-8.4-6.6-15-14.6-19.8-24.1
				c-4.8-9.5-7.2-20.3-7.2-32.4c0-15.7,4.3-29,12.9-39.7c8.6-10.7,20.7-19.6,36.2-26.6c15.6-7,34.4-12.5,56.6-16.6
				c22.2-4.1,46.8-7.8,74-11C842.7,377,838.2,359.6,828.6,347.5z M725.9,522.6c9.1,7.7,21.7,11.5,37.8,11.5c10.4,0,20.5-1.3,30.3-4
				c9.8-2.7,18.6-7.2,26.3-13.4c7.7-6.3,13.9-14.7,18.5-25.2c4.6-10.6,7-23.7,7-39.4v-16.6c-20.4,2.2-38.8,4.6-55.2,7.2
				c-16.4,2.7-30.5,6.2-42.1,10.5c-11.6,4.3-20.6,9.6-26.8,15.8c-6.3,6.3-9.4,14.1-9.4,23.3C712.2,504.8,716.8,514.9,725.9,522.6z"
				/>
		</g>
		<g>
			<path d="M961.5,205.9h45v283.7c0,13.6,1.4,22.7,4.3,27.3c2.9,4.6,10.5,7,23.1,7h10.2v39.7h-19.8c-12.9,0-23.3-0.9-31.4-2.7
				c-8-1.8-14.4-5.1-19-9.9c-4.6-4.8-7.9-11.5-9.7-20.1c-1.8-8.6-2.7-19.8-2.7-33.8V205.9z"/>
		</g>
		<g>
			<path d="M1257.5,305.9c16.1,8.4,29.4,19.6,39.9,33.5c10.5,13.9,18.2,30,23.1,48c4.8,18,6.5,36.5,5.1,55.5h-204.8
				c0.7,16.8,3.8,30.9,9.4,42.1c5.5,11.3,12.3,20.2,20.4,26.8c8.1,6.6,16.7,11.4,26,14.2c9.3,2.9,18.1,4.3,26.3,4.3
				c15,0,27.6-2.3,37.8-7c10.2-4.6,18.3-11.1,24.4-19.3l43.4,12.9c-9.7,15.7-23.4,28.5-41.3,38.3c-17.9,9.8-39.3,14.7-64.3,14.7
				c-20.7,0-39.2-3.6-55.5-10.7c-16.3-7.1-29.9-17-41-29.5c-11.1-12.5-19.5-27.2-25.2-44c-5.7-16.8-8.6-35-8.6-54.7
				c0-21.1,3.3-40.1,9.9-57.1c6.6-17,15.7-31.4,27.3-43.4c11.6-12,25.3-21.2,41-27.6s32.7-9.6,50.9-9.6
				C1222.8,293.3,1241.4,297.5,1257.5,305.9z M1272.5,379.4c-3.6-9.1-8.7-17.1-15.3-24.1c-6.6-7-14.6-12.6-23.9-16.9
				c-9.3-4.3-19.8-6.4-31.6-6.4c-10,0-19.7,1.4-29,4.3c-9.3,2.9-17.5,7.2-24.7,13.1c-7.2,5.9-13.1,13.6-18,23.1
				c-4.8,9.5-7.8,21-8.8,34.6h156.6C1277.9,397.7,1276.1,388.5,1272.5,379.4z"/>
		</g>
		<g>
			<path d="M1396.9,230.6h45v67h51.5v35.9H1442v156c0,6.8,0.2,12.4,0.5,16.9c0.3,4.5,1.5,7.9,3.5,10.5s4.7,4.3,8.3,5.4
				c3.6,1.1,8.6,1.6,15,1.6h24.1v39.7h-33.8c-12.9,0-23.3-0.9-31.4-2.7s-14.4-5.1-19-9.9c-4.6-4.8-7.9-11.5-9.6-20.1
				c-1.8-8.6-2.7-19.8-2.7-33.8V333.5h-45v-35.9h45V230.6z"/>
		</g>
		<g>
			<path d="M1570.6,230.6h45v67h51.5v35.9h-51.5v156c0,6.8,0.2,12.4,0.5,16.9c0.3,4.5,1.5,7.9,3.5,10.5s4.7,4.3,8.3,5.4
				c3.6,1.1,8.6,1.6,15,1.6h24.1v39.7h-33.8c-12.9,0-23.3-0.9-31.4-2.7s-14.4-5.1-19-9.9c-4.6-4.8-7.9-11.5-9.6-20.1
				c-1.8-8.6-2.7-19.8-2.7-33.8V333.5h-45v-35.9h45V230.6z"/>
		</g>
		<g>
			<path d="M1894,305.9c16.1,8.4,29.4,19.6,39.9,33.5c10.5,13.9,18.2,30,23.1,48c4.8,18,6.5,36.5,5.1,55.5h-204.8
				c0.7,16.8,3.8,30.9,9.4,42.1c5.5,11.3,12.3,20.2,20.4,26.8c8.1,6.6,16.7,11.4,26,14.2c9.3,2.9,18.1,4.3,26.3,4.3
				c15,0,27.6-2.3,37.8-7c10.2-4.6,18.3-11.1,24.4-19.3l43.4,12.9c-9.7,15.7-23.4,28.5-41.3,38.3c-17.9,9.8-39.3,14.7-64.3,14.7
				c-20.7,0-39.2-3.6-55.5-10.7c-16.3-7.1-29.9-17-41-29.5c-11.1-12.5-19.5-27.2-25.2-44c-5.7-16.8-8.6-35-8.6-54.7
				c0-21.1,3.3-40.1,9.9-57.1c6.6-17,15.7-31.4,27.3-43.4c11.6-12,25.3-21.2,41-27.6c15.7-6.4,32.7-9.6,50.9-9.6
				C1859.3,293.3,1877.9,297.5,1894,305.9z M1909,379.4c-3.6-9.1-8.7-17.1-15.3-24.1c-6.6-7-14.6-12.6-23.9-16.9s-19.8-6.4-31.6-6.4
				c-10,0-19.7,1.4-29,4.3c-9.3,2.9-17.5,7.2-24.7,13.1c-7.2,5.9-13.1,13.6-18,23.1c-4.8,9.5-7.8,21-8.8,34.6h156.6
				C1914.4,397.7,1912.6,388.5,1909,379.4z"/>
		</g>
		<g>
			<path d="M2018.4,563.6V205.4h50.4v180.2l161.4-180.2h62.7L2156.2,355l152.3,208.6h-61.7L2122.4,392l-53.6,59v112.6H2018.4z"/>
		</g>
		<g>
			<path d="M2396.4,337.8c7.5-12.5,18.1-23.1,31.6-31.6c13.6-8.6,31.6-12.9,54.2-12.9c16.1,0,29.8,2.5,41,7.5
				c11.3,5,20.4,12,27.3,20.9c7,8.9,12,19.7,15,32.2c3,12.5,4.6,26.3,4.6,41.3v168.4h-45v-155c0-10.4-0.6-20.1-1.9-29.2
				c-1.3-9.1-3.9-17.2-8-24.4c-4.1-7.2-10-12.8-17.7-16.9c-7.7-4.1-18-6.2-30.8-6.2c-21.8,0-39,7.4-51.5,22.3
				c-12.5,14.8-18.8,36.5-18.8,65.1v144.2h-45v-266h33.2L2396.4,337.8z"/>
		</g>
		<g>
			<path d="M2630.7,297.6h82v266h-45v-230h-37V297.6z M2666.6,189.8c6.4-6.4,14.3-9.7,23.6-9.7c9.3,0,17.2,3.2,23.9,9.7
				c6.6,6.4,9.9,14.3,9.9,23.6c0,9.3-3.3,17.3-9.9,23.9c-6.6,6.6-14.6,9.9-23.9,9.9c-9.3,0-17.2-3.3-23.6-9.9
				c-6.4-6.6-9.7-14.6-9.7-23.9C2657,204.1,2660.2,196.3,2666.6,189.8z"/>
		</g>
		<g>
			<path d="M2763.7,297.6h45v-39.7c0-13.6,0.9-25,2.7-34.3c1.8-9.3,5.3-16.8,10.5-22.5c5.2-5.7,12.4-9.8,21.7-12.3
				c9.3-2.5,21.4-3.8,36.5-3.8h29v38.1h-27.9c-11.5,0-18.9,2.3-22.3,7c-3.4,4.6-5.1,13.8-5.1,27.3v40.2h55.2v35.9h-55.2v230h-45
				v-230h-45V297.6z"/>
		</g>
		<g>
			<path d="M3116.5,305.9c16.1,8.4,29.4,19.6,39.9,33.5c10.5,13.9,18.2,30,23.1,48c4.8,18,6.5,36.5,5.1,55.5h-204.8
				c0.7,16.8,3.8,30.9,9.4,42.1c5.5,11.3,12.3,20.2,20.4,26.8c8.1,6.6,16.7,11.4,26,14.2c9.3,2.9,18.1,4.3,26.3,4.3
				c15,0,27.6-2.3,37.8-7s18.3-11.1,24.4-19.3l43.4,12.9c-9.7,15.7-23.4,28.5-41.3,38.3c-17.9,9.8-39.3,14.7-64.3,14.7
				c-20.7,0-39.2-3.6-55.5-10.7c-16.3-7.1-29.9-17-41-29.5c-11.1-12.5-19.5-27.2-25.2-44c-5.7-16.8-8.6-35-8.6-54.7
				c0-21.1,3.3-40.1,9.9-57.1c6.6-17,15.7-31.4,27.3-43.4c11.6-12,25.3-21.2,41-27.6s32.7-9.6,50.9-9.6
				C3081.8,293.3,3100.4,297.5,3116.5,305.9z M3131.5,379.4c-3.6-9.1-8.7-17.1-15.3-24.1c-6.6-7-14.6-12.6-23.9-16.9
				s-19.8-6.4-31.6-6.4c-10,0-19.7,1.4-29,4.3c-9.3,2.9-17.5,7.2-24.7,13.1c-7.2,5.9-13.1,13.6-18,23.1c-4.8,9.5-7.8,21-8.8,34.6
				h156.6C3136.9,397.7,3135.1,388.5,3131.5,379.4z"/>
		</g>
	</g>
	<g>
		<path d="M3037.4,720.3H433.8c-178.2,0-323.2-145-323.2-323.2c0-178.3,145-323.3,323.2-323.3h2603.7c178.2,0,323.2,145,323.2,323.3
			C3360.7,575.3,3215.7,720.3,3037.4,720.3z M433.8,118.5c-153.6,0-278.6,125-278.6,278.6s125,278.6,278.6,278.6h2603.7
			c153.6,0,278.6-125,278.6-278.6s-125-278.6-278.6-278.6H433.8z"/>
	</g>
</g>
</svg>
