<?xml version="1.0" encoding="utf-8"?>
<!-- Generator: Adobe Illustrator 28.2.0, SVG Export Plug-In . SVG Version: 6.00 Build 0)  -->
<svg version="1.1" id="Layer_1" xmlns="http://www.w3.org/2000/svg" xmlns:xlink="http://www.w3.org/1999/xlink" x="0px" y="0px"
	 viewBox="0 0 3471.2 791.8" style="enable-background:new 0 0 3471.2 791.8;" xml:space="preserve">
<g>
	<path d="M1626.3,626.5c-7.6,6.9-17.2,11.4-26.5,15.7c-47.6,20.7-98.8,32.4-149.8,41.4c-102.4,18-206.8,19.6-310.5,14.5
		c-55.2-2.8-111.1-7.3-166.6-9.1c7.4-6.4,14.7-13,21.8-19.6c7.7-7.4,15.1-15.1,22-23.2c47.5-55.9,87.1-118.2,125.4-181
		c3.6,2.4,7.4,4.4,11.5,6c19.6,7.2,40.9,6.2,61.3,3.2c67.3-9.6,125.1-64.5,141.6-130.1c10.9-40.9,5.6-87.3-19.6-121.9
		c-3.3-4.4-6.8-8.6-10.4-12.5c6.7-5.2,13.6-10.1,20.7-14.7c34.6-22.3,75.2-35.4,116.4-36.2c15.3-0.2,31,1.2,45.3,6.8
		c4.6,1.8,9.4,4.2,12.6,7.9c0.3,0.4,0.8,0.5,1.2,0.2c0.4-0.3,0.5-0.8,0.3-1.2c-1.6-2.4-3.7-4.1-5.9-5.6c-6.6-4.5-14.3-7.3-22-9.3
		c-40.9-9.7-85.9-0.7-123.9,16.2c-18.1,8.1-34.9,18.4-51,29.8c-68.9-62.9-198.3-42.6-278-13.8c-84.2,30.5-159.8,89-203.5,168.1
		c-56.8,104.4-31.5,197.9,102.6,152.9c73.7-26.4,141.7-88.7,169-162.7c5-15.4,8.3-32.7,2.6-48.3c-0.8-2-3.7-1-3.2,1
		c3.4,15.1-0.3,30.9-5.3,45.3c-21.5,57.5-70.1,108.1-122.6,138.9c-36.2,21.9-119.1,49.7-150.2,9.6c-21.9-30.6-4.4-77,11.8-106.9
		C888.6,308.7,965.6,243,1048,204.5c58.4-27.1,143.4-45,206.6-28.9c24.2,6.2,44.3,17.6,58.9,33.1c-7.5,5.5-14.8,11.3-22,17.1
		c-16.6,13.2-31.7,28.2-46.2,43.7c-43.4,46.1-80.5,97.9-114,151.4c-49.9,78.7-96.1,159.9-154.3,232.6c-8.9,12.3-18.7,24-29.2,35
		c-64-0.6-140.1,1.5-194.5,38c-8.8,6.4-18.1,14.2-20.9,25.3c-2.5,10.3,5.3,17.9,14.1,21c17.9,6.3,37.5,4.5,55.9,2.5
		c62.4-7.2,116.4-40.7,163.8-80.5c57.6,2.6,115.1,10,172.7,14c145.8,13.1,296.4,2.8,433.8-50.5c9.7-3.9,19.4-8.1,28.7-12.9
		c9.3-5,18.7-10.1,26.1-17.8c0.3-0.3,0.3-0.8,0-1.1C1627.2,626.2,1626.6,626.2,1626.3,626.5z M1299.4,234.5
		c6.3-6.7,13.1-12.9,20.1-18.8c16,20.5,23.7,47,20.8,77.8c-2.7,29.6-13.3,57.9-28.2,83.4c-22.6,39.7-56,71.1-99.8,86.3
		c-21.3,6.8-46.8,10.7-66.5-2.4c-0.2-0.1-0.3-0.2-0.5-0.3c15.4-25.3,30.5-50.6,45.9-75.5C1223.3,332,1256.1,279.1,1299.4,234.5z
		 M860.4,751.2c-28.1,12.2-58.9,19.2-89.6,19.1c-9.5-0.3-20.3-1.1-28.2-6.5c-8.6-6.1-3.3-16.2,2.7-22.6c6.8-7.4,15.4-13.2,24.2-18
		c29.6-15.9,63.2-23.1,96.5-26.4c25.5-2.5,50.9-3.1,76.3-2.6C918.6,717.8,891.2,737.6,860.4,751.2z"/>
	<path d="M2498.6,234.4c-10.5,15.6,10.2,27,20.7,10.6C2529.7,228.5,2509,218.8,2498.6,234.4z"/>
	<path d="M1748.1,537.4c7.5-7.2,14.4-15,20.9-23c6.7-8.2,13-16.6,19-25.2c-3.3,16.9-2.9,36.2,9,47.7c5.1,4.9,11.8,8.1,18.7,8.5
		c9.2,0.9,18.4-0.1,26.8-3.3c41-15.6,73.9-59.9,89.8-99.5c0.4-1.1-1.2-1.7-1.6-0.8c-11.3,19.5-23.1,38.6-37.7,55.5
		c-14.3,16.5-31.5,32.2-52.4,39.3c-7.5,2.2-15.8,4.2-23.1,1c-2.3-1.1-4.2-2.5-5.8-4.1c-4.8-4.7-5.3-11.5-5.8-17.8
		c-0.2-7.2,1.5-14.2,3.8-21.2c3.4-9.9,7.7-19.2,12.3-28.9c1.6-3.3,3.2-6.6,4.8-9.9c1.1,0.1,2.3,0.2,3.4,0.3
		c35.3,0.3,68.6-23.5,83.4-54.8c5.6-11.6,7.1-28.6-8.2-33.1c-12.4-3.1-24.9,2.6-35.5,8.4c-31.4,18.6-56.6,50.5-72.3,83.8
		c-10.1,17.5-21.3,34.3-33.9,50c-6.4,7.8-13.1,15.4-20.4,22.4c-3.6,3.5-7.4,6.8-11.3,9.8c-3.9,3.1-8,5.9-12.4,7.9
		c-2.2,1-4.4,1.8-6.6,2.3c-2.2,0.5-4.4,0.7-6.2,0.3c-0.9-0.1-1.7-0.5-2.4-0.8c-0.6-0.5-1.1-1-1.3-1.7c-0.1-0.1-0.1-0.3-0.1-0.5
		c0-0.2-0.1-0.3-0.1-0.5c0-0.4,0-0.7,0.1-1.2l0.1-0.6l0.1-0.6c0.1-0.4,0.2-0.8,0.3-1.2c0.5-1.7,0.8-3.4,1-5.3c0.1-0.5,0.1-1,0.2-1.5
		c0.1-0.5,0.2-1,0.3-1.5l0.3-1.5l0.4-1.6c1.1-4.2,2.4-8.5,3.9-12.9c3-8.8,7.1-17.7,11.6-26.3l1.7-3.2l1.9-3.3l3.7-6.6
		c2.4-4.4,5-8.8,7.6-13.2c10.2-17.5,20.8-34.9,31.6-52.2c10.8-17.3,21.6-34.6,32.6-51.8c6.2-9.8,12.5-19.6,18.7-29.4l56.7-9l3.1-0.5
		l-1-6.2l-54.4,8.6c3.3-5.1,6.5-10.2,9.8-15.3c5.5-8.7,10.9-17.4,16.3-26.1c2.7-4.4,5.4-8.8,8-13.3l4-6.8l3.9-7.2l5.4-10l-20-10.4
		l-5.6,9.9l-3.5,6.2l-3.9,6.4c-2.6,4.3-5.3,8.6-8,12.9c-5.4,8.6-10.9,17.2-16.4,25.8l-21,32.8l-62,9.8c12.8-20.2,25.4-40.4,37.6-61
		c2.3-4.3,6.9-12.7,9.3-17.2l-20-10.4c0,0-5.6,9.9-5.6,9.9c-4.7,8.5-10.3,17.3-15.4,25.6c-12.1,19.2-24.6,38.5-37.1,57.9l-62.4,9.9
		l-3.1,0.5l1,6.2l60-9.5c-27.9,43.5-55.9,87.5-80.6,132.1c0,0,0,0,0,0s-0.1,0.3-0.3,0.7c-2.3,4.2-4.6,8.3-6.8,12.5
		c-1.7,3.3-3.6,7.1-5.5,11.3c-18.1,31.4-43.5,61.7-76.9,73.8c-7.5,2.2-15.8,4.3-23.1,1.1c-2.3-1.1-4.2-2.6-5.8-4.1
		c-3.2-3-4.4-7.2-5.1-11.4c-0.8-4.3-1-8.9-0.3-13.4c2.2-15.2,9.3-29.2,15.7-43.2c1.6-3.3,3.2-6.6,4.8-9.9c7,1,14.4-0.2,21-1.5
		c22.8-5.2,43.2-19.1,56.9-38c28.3-38.2,6.7-63.7-34.8-39.7c-31.6,18.7-57,51-72.6,84.6c-13.3,24.3-29.3,47.4-48.9,67.1
		c-6.3,6.3-12.9,12.2-20.1,17.2c-4.4,2.9-17.2,11.5-21.9,7.6c-1.2-0.9-1.5-1.6-1.5-2.4c0.3-4.2,1.8-8.3,2.5-13.4
		c3-16,10.6-32.4,17.8-47.5c8.3-17.1,18.3-34.7,28.5-52.1c11.7-10.4,23.2-21.1,34.4-32.1c25.8-25.4,50.6-52.3,70.3-82.8
		c14.9-22.8,28.3-46.5,39.6-71.3c5.5-12.8,18.8-41.5,11.7-54.5c-1.9-3.7-5.6-5.8-9.7-5.2c-8.8,0.9-13.7,7.1-19.3,12.7
		c-6.5,6.8-12.4,13.9-18.1,21.1c-38.9,49.6-72.6,104.8-105.4,158.6c-18.8,31.5-39.1,63.2-54,97c-0.7,1.2-1.5,2.5-2.2,3.7
		c-7.8,12.3-16.1,24.3-25.2,35.6c-4.5,5.7-9.4,11.1-14.4,16.2c-5,5.2-10.3,10.1-15.9,14.4c-2.8,2.2-5.7,4.2-8.7,6
		c-3,1.8-6.1,3.3-9.1,4.2c-3,1-6.1,1.2-7.7,0.3c-0.4-0.2-0.6-0.8-0.5-1.4c0-0.3,0.1-0.5,0.1-0.8c0.1-0.3,0-0.4,0-0.7
		c0-0.9,0.1-2,0.4-3.2c0.1-0.6,0.3-1.3,0.4-1.9c0.2-0.7,0.3-1.4,0.5-2.1l1-4.4c0.7-3,1.7-6.2,2.9-9.3c2.3-6.3,5.2-12.7,8.3-18.9
		c3.1-6.3,6.4-12.5,10.1-18.9l10.7-19.2c14.3-25.6,28.6-51.2,42.4-77l6.1-11.5l-23-12.5l-6.1,11.5c-9,17.1-17.8,34.2-26.5,51.4
		c0.5-1.9,0.9-3.7,1.3-5.7c0.5-2.4,0.8-4.9,0.9-7.5c0.1-2.6,0.1-5.2-0.4-8c-0.5-2.7-1.6-5.6-3.7-8.2c-1-1.3-2.4-2.3-3.8-3.2
		c-1.5-0.8-3-1.4-4.6-1.7c-3.1-0.7-6.1-0.6-8.9-0.3c-2.8,0.3-5.5,1-8,1.8c-2.6,0.7-5.1,1.7-7.5,2.7c-2.4,1-4.8,2.1-7.1,3.3
		c-1.2,0.6-2.3,1.2-3.4,1.8c-1.1,0.6-2.3,1.2-3.3,1.9c-1.1,0.7-2.2,1.3-3.3,2c-1.1,0.7-2.2,1.4-3.2,2.1
		c-8.4,5.7-15.9,12.4-22.9,19.4c-14.1,13.9-25.7,29.8-36.5,46c-5.4,8.4-10.6,17-14.7,26.2c-4.2,9.2-7.4,19-9.6,29.2
		c-1,5.1-1.6,10.5-1.5,15.9c0,2.7,0.3,5.6,0.8,8.3c0.5,2.8,1.2,5.7,2.4,8.6c1.1,2.9,2.8,5.8,5.3,8.2c0.6,0.6,1.3,1.2,2,1.7
		c0.7,0.5,1.5,1,2.2,1.4c0.8,0.4,1.6,0.7,2.4,1c0.8,0.2,1.6,0.5,2.4,0.6c0.8,0.1,1.6,0.2,2.4,0.3c0.8,0,1.6,0,2.3,0
		c1.4-0.2,2.9-0.3,4.2-0.6c1.4-0.2,2.6-0.7,3.9-1.1c1.2-0.5,2.5-1,3.6-1.5c4.7-2.2,8.9-5,12.8-8c3.9-3,7.6-6.2,11.1-9.5
		c7-6.7,13.4-13.9,19.5-21.3c11.4-14.1,22-28.8,32-43.8c-0.8,1.8-1.5,3.5-2.3,5.3c-3,7.1-5.5,14.4-7.5,22.1c-1,3.9-1.7,7.9-2.2,12.1
		c-0.5,4.2-0.4,8.7,1.2,13.5c0.7,2.4,1.9,4.9,3.7,7.2c0.9,1.2,2.1,2.2,3.5,2.9c0.6,0.4,1.4,0.6,2.1,0.9c0.7,0.3,1.3,0.5,2,0.8
		c2.5,1.1,5.1,1.3,7.4,1.1c2.3-0.2,4.4-0.7,6.4-1.4c3.9-1.4,7.4-3.3,10.7-5.3c3.3-2.1,6.3-4.4,9.2-6.8c11.7-9.6,21.6-20.8,30.8-32.5
		c4.1-5.2,8.1-10.6,11.9-16c-1.2,3.7-2.3,7.4-3.4,11.1c-1.2,4.7-2.3,9.6-2.9,14.7c-1.2,8.2,0.9,19.3,8.3,25.6
		c4.4,3.9,9.9,4.3,14.8,2.6c3.8-1,7.5-2,10.9-3.7c25.5-13.6,49.5-43.5,67.8-71.1c-3.6,17.3-3.6,37.5,8.6,49.3
		c5.1,4.9,11.8,8.1,18.7,8.5c9.2,0.8,18.4,0,26.9-3.2c27.1-10.5,49.1-32.4,66.6-57c-3.1,11.9-3.8,23.8,1.7,32.5
		c4,5.8,11.8,10.1,18.6,9.9c6-0.1,11.1-2.3,16.2-4.8c21.3-10.9,40.7-32,57.1-54.1c-1.2,4.4-2.1,8.9-2.5,13.7c-0.2,3-0.2,6.1,0.1,9.3
		c0.2,3.2,1,6.6,2.9,9.8c1.9,3.2,4.7,6.3,8.2,8.3c1.7,1,3.5,1.7,5.2,2.2c1.7,0.4,3.5,0.7,5.1,0.7c3.3-0.1,6.2-0.8,8.9-1.7
		c2.7-1,5.2-2.2,7.6-3.4C1732.4,551.3,1740.6,544.6,1748.1,537.4z M1845.2,422.6c11.9-18.5,29.1-42.4,51.6-47.6
		c16.9-3.1,17.3,12.4,12,24c-6.5,15.1-18.5,27.5-32.3,36.1c-13.8,8.4-29.7,14.7-45.9,14.6c-0.2,0-0.4,0-0.6,0
		C1834.7,440.5,1839.7,431.4,1845.2,422.6z M1529.8,471.5c11.9-18.5,29.1-42.4,51.6-47.6c16.9-3.1,17.3,12.4,12,24
		c-6.5,15.1-18.5,27.5-32.3,36.1c-13.8,8.4-29.7,14.7-45.9,14.6c-0.2,0-0.4,0-0.6,0C1519.3,489.4,1524.4,480.3,1529.8,471.5z
		 M1281.2,571.2c-5.5,7.7-11.2,15.2-17.2,22.4c-6,7.2-12.3,14.2-19.1,20.6c-3.4,3.2-6.9,6.2-10.6,8.8c-3.7,2.6-7.7,4.9-11.8,6.3
		c-2,0.7-4.1,1.1-6,1.3c-1,0.1-1.9,0.1-2.9,0c-0.4-0.1-0.8-0.2-1.2-0.2c-0.4-0.1-0.7-0.3-1.1-0.4c-1.4-0.6-2.2-1.5-2.8-2.7
		c-0.6-1.2-0.9-2.7-1-4.4c0-1.7,0.1-3.6,0.5-5.5c0.2-1,0.4-1.9,0.7-2.9l0.4-1.5l0.4-1.5c1.2-3.9,2.7-7.9,4.3-11.9
		c1.6-4,3.4-7.9,5.5-11.8c2-3.9,4.1-7.8,6.4-11.6c2.2-3.8,4.5-7.7,6.9-11.4c2.3-3.8,4.9-7.5,7.4-11.3c5.2-7.6,10.7-15.1,16.2-22.4
		c5.5-7.3,11-14.7,16.6-21.8c2.8-3.6,5.7-7.1,8.6-10.5c2.9-3.5,5.8-6.9,8.8-10.3c0.7-0.9,1.5-1.7,2.2-2.5c0.7-0.8,1.5-1.7,2.3-2.5
		c0.8-0.8,1.5-1.6,2.3-2.4c0.8-0.8,1.6-1.6,2.3-2.4c3.2-3.1,6.5-6,10-8.3c1.8-1.2,3.6-2.1,5.4-2.8c1.8-0.7,3.6-1.1,5.2-1.1
		c0.8,0,1.5,0.1,2.2,0.3c0.6,0.3,1.3,0.5,1.8,1c1.2,0.9,2.1,2.5,2.6,4.4c0.5,1.9,0.8,4,0.7,6.2c0,2.2-0.3,4.4-0.7,6.6
		c-0.8,4.4-2,8.9-3.5,13.3c-3,8.8-7,17.3-11.5,25.5c-4.5,8.2-9.4,16.3-14.5,24.2C1292,555.7,1286.7,563.5,1281.2,571.2z
		 M1545.7,306.4c9.6-14.9,19.2-30.1,30.3-43.7c3.5-4.5,8.4-8.7,11.5-13.1c0.1-0.2,0.3-0.4,0.3-0.6c0-0.1-0.1-0.3-0.1-0.5
		c3.5,0.6,2.9,8.1,2.5,11.9c-1.9,13.1-7,25.6-12.1,37.8c-3.5,8.2-7.4,16.3-11.5,24.3c-16.5,31.9-35.6,62.7-59.5,89.5
		c-18.3,20.7-38.1,40.1-58.9,58.3c5-8.5,9.9-16.8,14.6-25C1488.8,400.8,1518.4,349.9,1545.7,306.4z M1640.1,558.3
		c-5.7,4.5-11.9,8.9-19,10.7c-6.1,1.5-13.6,0.5-10.6-7.4c1.2-3.7,1.2-7.4,2.3-11.3c3.3-13.5,8.4-26.6,15.2-39.3
		c30.2-55.1,64.8-107.7,98.6-160.7l61.9-9.8l-7.6,11.8c-22.1,34.5-43.8,69.3-64.4,105.1c-2.6,4.5-5.2,8.9-7.6,13.5l-0.7,1.3
		c-0.5,0.8-2,3.4-2,3.4C1688,506,1667.6,535.8,1640.1,558.3z"/>
	<path d="M2738.8,318.5c-0.4-0.3-1-0.1-1.3,0.3c-11.3,19.5-23.1,38.6-37.7,55.5c-14.3,16.5-31.5,32.2-52.4,39.3
		c-7.5,2.2-15.8,4.2-23.1,1c-2.3-1.1-4.2-2.5-5.8-4.1c-4.8-4.7-5.3-11.5-5.8-17.8c-0.2-7.2,1.5-14.2,3.8-21.2
		c3.4-9.9,7.7-19.2,12.3-28.9c1.6-3.3,3.2-6.6,4.8-9.9c1.1,0.1,2.3,0.2,3.4,0.3c35.3,0.3,68.6-23.5,83.4-54.8
		c5.6-11.6,7.1-28.6-8.2-33.1c-12.4-3.1-24.9,2.6-35.5,8.4c-28.9,17.1-52.6,45.5-68.4,75.9l0,0l-1.5,2.8
		c-11.7,22.2-38.4,33.2-58.2,33.9c-4.8,0.2-9.1-0.3-12.1-1.3c6.2-14.3,12.5-28.8,18.9-42.6c2.2-4.8,4.4-9.7,6.7-14.5
		c44.4-32,80.6-75,109.1-121.5c8.1-13.3,21.3-36.5,17.7-52.5c-1.5-6.3-7.7-8.6-13.4-8c-6.5,0.5-11.9,3.8-17.1,7
		c-14.6,9.5-25.9,22.7-36.8,35.9c-37.3,47-67,99.3-92.7,153.4c-19.3,10.9-39.8,19.7-61.1,25.8c-0.5,0.1-0.9,0.6-0.8,1.1
		c0.1,0.5,0.5,0.9,1.1,0.9c20-2.5,39-9.8,56.7-19c-1.8,3.8-3.5,7.7-5.3,11.6c-1.8,4.3-3.7,8.6-5.6,13c-1.7-0.7-3.3-1-4.5,0.7
		c-19,28.2-54.4,78.6-85.6,91c-5.2,1.6-13.2,4-14.6-3c-1.3-4.3-0.4-9.3,0.3-14.1c1.6-8.7,5.1-18.3,9.7-26.4
		c23.2-39.8,48-78.8,72.4-117.9l5.4-8.6l-17.2-10.8c0,0-5.4,8.6-5.4,8.6c-21.1,33.7-42,67.4-62.3,101.6
		c-13.8,20.5-28.6,40.6-45.7,58.5c-6.1,6.5-12.6,12.6-19.6,18c-5.6,3.9-19.2,14.3-25.4,8.4c-1.5-2.5,0.4-5,1.7-7.8
		c1.1-2.1,2-4.2,2.9-6.4c5.4-12.4,13.3-24.5,21-35.8c17-26.3,34.9-51.2,41.7-83.7c1.3-8.3,0-18.6-4.6-26.8
		c-7.6-13.5-24-5.5-33.4,1.3c-5.1,3.5-9.8,7.4-14.4,11.5c-16.7,15.9-32,32.9-46.5,50.7l13-19.9c0.2-0.1,0.3-0.3,0.5-0.4
		c2.3-2.2,4.4-5.5,5.9-9.3l1-1.5l-0.4-0.2c3.5-10.3,3.1-23.4-5-28.6c-14.8-9.3-39.6,23-47.8,33.1c-17,21.5-31.8,44.5-45.8,67.9
		c-12.1,19.7-25.6,38.8-41.2,55.8c-5.2,5.6-10.7,11.1-16.8,15.6c-6,4.2-16.4,11.3-23.6,8.2c-3.4-1.3-6.8-3.4-8.3-6.4
		c-3.6-10.8,9.5-32.8,14.9-43.2c10.4-18.4,20.1-37.9,19.8-59.7c-0.3-13.5-4.8-27.9-13.7-38.4c-1.2-1.4-2.7-2.8-4.5-4.2
		c21.4-9.2,41.3-21.7,60-35.4c25.3-18.8,47.1-41.4,69.2-63.5C2353.7,145.2,2445.4,43,2574.3,22c43.9-6.5,64.7,16.8,42.1,56.8
		c-11.5,19.8-28.7,35.8-47.1,49.2c-50.3,36.2-111.3,53.4-171.8,64.1c-2.2,0.4-1.9,3.8,0.5,3.6c31.1-2.8,61.9-9.5,91.5-19.8
		c50.3-17.9,103.7-47.2,132-94.2c7.8-13.9,13.8-31.7,6.7-47.1c-12.2-23.9-44.1-21.6-66.6-17.5c-15.5,2.7-30.8,6.6-45.8,11.3
		c-45.1,14.4-86.9,37.6-125.2,65.2c-69.3,50.1-128,114.9-187.3,176c-21.1,21.6-43.1,47.4-71,59.9c-14-8.9-35.6-15-48.4-7.6
		c32.2-61.3,64.2-122.7,104.9-178.8c9.6-13.4,18.6-25.8,28.2-36.8c6.3-2,12.6-4,18.8-6.1c20.2-7.3,40.9-14.5,58.5-27.4
		c3.7-3.2,8.2-6.6,8.8-12c0.3-4.4-4.4-6.2-7.9-5.9c-0.2,0-0.4-0.1-0.7,0c-9.6,1.1-19.1,3.7-28,7.3c-26.9,11.3-51.7,27.3-74.1,46.1
		c-0.8,0.7-1.5,1.3-2.3,2c-40,10.7-80.5,18.8-121.3,26.1c-28.7,5.4-55.8,16.8-80.6,32.3c-19,12-36.1,27.9-47,47.8
		c-11.3,20.3-16.8,44.3-11.1,67.4c3.6,15.3,14.2,30,29.5,34.9c14.4,4.8,30.4,2.7,44.1-3.2c13.7-6.1,24.6-17.2,31.8-30.1
		c11.8-21.6,17-50.6,7.8-74c-1.4-3.4-3.3-6.6-5.8-9.3c-0.2-0.2-0.6-0.3-0.8-0.1c-0.3,0.2-0.4,0.6-0.2,0.9c4,5.8,5.8,12.7,6.8,19.5
		c3.8,33.3-10.4,72.9-42.1,87.8c-12.1,5.3-26.8,7.1-39.2,1.8c-12.2-5.2-18.5-17.8-19.2-30.5c-1.2-26.1,11.3-51.5,25.7-72.8
		c27.4-40.6,64.2-60,111.8-69c34.6-7.2,69.3-14.8,103.4-24.1c-11.4,10.7-21.7,22.6-31.4,34.9c-35.6,45.2-64.4,95.9-91.9,146
		c-27.9,49.5-52.3,100.7-79.2,150.6c-20.1,37-41.3,73.6-67.1,106.9c-9,13.3-19.6,25.9-31.5,37c-32.2-2.6-64.6-2.5-96.9,1.7
		c-19,3-38.8,7.3-54.7,18.9c-7,5-13.1,14.6-5.5,22.1c5.9,5.5,14,7,21.4,8.2c4.9,0.7,9.7,1,14.5,1c49.3,0.4,81.7-11.2,120.6-41
		c1.9-1.4,3.8-2.9,5.6-4.3c3.9,0.4,7.9,0.8,11.8,1.2c103.8,13,201.9,55.4,307,61.9c33.5,2.5,67.2,2.2,100.6-0.6
		c71.4-6.5,144.4-21.9,205.4-61.3c32-21.1,61.8-50.5,72-88.5c1.7-7.1,2.8-14.6,1.9-22c-0.3-2.5-0.8-5-1.8-7.4
		c-0.4-0.9-1.3-1.4-2.2-1.1c-1,0.3-1.6,1.4-1.3,2.4c1.2,4.2,1.2,8.8,0.7,13.3c-7.7,50.9-55.5,87.2-99.4,107.9
		c-51,23.6-106.9,34.2-162.6,40.2c-93.9,10.9-188.1-1.8-279.6-24.1c-47.9-11.4-96.7-22.2-145.9-27.2c8.9-7.5,17.5-15.4,26.4-23
		c19.1-18.5,35.5-39.6,51.3-60.8c33.7-46.4,63.1-96,90.6-146.2c5.1-9.5,10.1-19,15.1-28.5c0.5,1.3,1.3,2.4,2.4,3.3
		c6,4.6,14.1,4.7,21.2,4.8c8.3-0.1,16.6-1.7,24.5-4.2c3.2,5.4,5.3,11.1,6.3,17.1c1.7,13.2-2.3,26-6,38.7
		c-3.3,10.3-8.6,20.2-13.4,29.9c-5.4,11.6-9.9,22.7-12.2,35.9c-3.9,20.8,4.4,42.3,29.1,38c14.6-2.5,33.5-22.1,43.8-32.8
		c34.5-37.2,54.8-85,88.8-122.5c6.5-6.9,19.6-20.8,29.9-24.7c-0.3,0.3-0.5,0.6-0.8,1c-0.5,0.6-1,1.2-1.5,1.7l-0.2-0.1l-0.9,1.4
		c-2.3,2.6-4.5,5.4-5.8,8.7c0,0.1-0.1,0.2-0.1,0.3l-100.9,154.9l-6.6,10.2l20.3,13.2l6.6-10.1l60.2-92.3c9-12.4,18.3-24.6,27.9-36.5
		c15.2-18.4,31.1-36.6,49.3-52.1c6.8-5.7,13.8-11.1,21.7-14.9c5.9-2.9,16.3-5.7,12.9,4.9c-1.5,4.8-4.6,9.6-6.6,14.4
		c-8.4,20.7-19.3,41.9-30.7,61.5c-4.5,7.6-9.4,15-14.5,22.2c-7.6,10.8-14.2,22.7-16.6,36c-2.7,11.4,3.9,29.3,18.1,27.3
		c22.9-3.5,49.3-31.2,69.7-57c-3.2,9.2-5,19.3-2.2,29c2.1,7.2,8.3,14.9,16.4,14.8c6.4,0.4,12.7-0.4,18.2-3
		c13.6-6.1,24.7-15.7,35.3-25.9c17.7-17.7,32.6-37.6,46.6-58.2c-22.7,51.1-48.3,101.3-83.1,145.1c-27,33.9-60.3,64.3-100.9,80.6
		c-20.2,8-42.2,12.4-63.9,10c-15.4-2-33.1-7.2-41-21.4c-2.3-4.5-2.4-9.8,0-14.3c1.2-2.4-2.4-4.3-3.7-1.8c-2.7,5.5-2.5,12.4,0.3,17.8
		c5.6,10.6,16.6,16.4,27.4,20.1c16.2,5.3,33.6,5.8,50.4,3.7c56.6-7.8,105.3-43.4,143.8-84c38.7-41.3,68.5-90.3,91.6-141.7
		c1.8-4.1,3.6-8.2,5.4-12.3c3.4,1.2,7.7,1.9,12.7,1.9c0.7,0,1.5,0,2.2,0c15.5-0.6,34.8-6.9,49.2-19.4c-6,18.9-9.6,46.3,5.6,60.9
		c5.1,4.9,11.8,8.1,18.7,8.5c9.2,0.9,18.4-0.1,26.8-3.3c41-15.6,73.9-59.9,89.8-99.5C2739.4,319.2,2739.2,318.7,2738.8,318.5z
		 M2652,299.6c11.9-18.5,29.1-42.4,51.6-47.6c16.9-3.1,17.3,12.4,12,24c-6.5,15.1-18.5,27.5-32.3,36.1
		c-13.8,8.4-29.7,14.7-45.9,14.6c-0.2,0-0.4,0-0.6,0C2641.6,317.5,2646.6,308.4,2652,299.6z M2295.4,59.7c0.2,0,0.4-0.1,0.5-0.2
		c1.2-0.1,2.3,0.1,2.6,0.5c0.2,0.2,0.3,0.3,0.3,0.7c-1.6,7.8-17.4,16-24.7,19.9c-16.8,8.3-34.4,14.8-52.3,20.5
		C2240.7,80.9,2262.4,66.1,2295.4,59.7z M1789.7,635.9c-9.3,1-18.7,1.6-28,1.5c-9-0.2-18.5-0.9-26.8-4.2
		c-17.2-7.2,2.7-19.5,11.7-23.3c21.4-9.5,45.1-12,68.3-13.3c20.6-1.1,41.2-1,61.7,0.4C1851.9,618,1822.3,632.8,1789.7,635.9z
		 M2101.3,337c-4.5,0.2-19.6-0.1-19.3-6.3c0.5-2.1,2.4-3.6,4.4-4.7c6.2-3.6,14.1-3.7,21-1.6c5.7,1.6,11.2,4.6,15.2,8.9
		C2115.8,335.4,2108.8,336.7,2101.3,337z M2296.4,316.4c1.4,0,1.3,0.9-0.3,0.4c-0.2-0.1-0.4-0.2-0.5-0.3
		C2295.9,316.5,2296.1,316.4,2296.4,316.4z M2615.5,205c11.3-18.5,23.8-36.5,38.4-52.5c6.7-7.4,14.4-15.5,23.2-19.6
		c1.7-0.8,3.6-0.9,4.9,0.3c6,7.8-3.1,27.2-7.5,35.7c-24,43.2-55.2,82.9-92.4,115.5c-4.8,4.2-9.7,8.2-14.7,12.1
		C2582,265.3,2597.5,234.4,2615.5,205z"/>
</g>
</svg>
