<?xml version="1.0" encoding="utf-8"?>
<!-- Generator: Adobe Illustrator 28.2.0, SVG Export Plug-In . SVG Version: 6.00 Build 0)  -->
<svg version="1.1" id="Layer_1" xmlns="http://www.w3.org/2000/svg" xmlns:xlink="http://www.w3.org/1999/xlink" x="0px" y="0px"
	 viewBox="0 0 3471.2 791.8" style="enable-background:new 0 0 3471.2 791.8;" xml:space="preserve">
<g>
	<path d="M1282.1,476.8c40.9-36.8,64.6-92.6,61-147.7c-2-33.4-15.7-66.6-39.1-90.5c1.2-1,2.5-2,3.7-3c32-23.8,69.6-39.6,108.9-46.2
		c22.3-3.8,45.5-5.3,67.8-1.1c5.6,1.1,11.1,2.5,16.3,4.6c5.1,2,10.5,4.5,14,8.6c0.3,0.4,0.9,0.5,1.3,0.2c0.4-0.3,0.6-0.9,0.3-1.3
		c-12.5-15.9-46.2-20.4-65.9-20.3c-55.6-0.1-108.7,20.7-154.6,51c-52.4-44.9-131.3-46.1-196.4-37.1c-120.9,17-238,81.2-304.9,185.3
		c-23.5,37.3-42.4,79.6-43.1,124.3c0,56.5,38.2,80.1,91,73.8c86.8-10.8,162-69.6,208.4-141.7c16.3-27,36.3-67,25.4-98.9
		c-0.8-2.1-4-1-3.4,1.1c3.7,16.3-0.4,33.2-5.6,48.8c-22.8,61.9-74.5,117-130.6,150.6c-38.7,24.1-127.5,54.2-161.6,11.7
		c-24.1-32.7-5.8-82.6,11.4-115c47.3-85.4,130.6-157.4,218.5-199c67.8-32,175.1-54.5,246-24.1c15.4,6.6,27.9,15,37.8,24.7
		c-0.5,0.4-1.1,0.7-1.6,1.1c-87.8,60-146.1,152.2-198.8,242.3c-46.5,78.2-89,159.5-155.2,222.7c-28.8,26.9-64,47.5-102.8,55.4
		c-5.6,1-11.1,2.6-16.6,3.5c-11.2,1.6-22.6,0.7-33.7-1.4c-10.9-2.1-21.6-6-30.7-12.5c-12.2-8.6-21.9-22-22.4-36.9
		c5.4,4.4,15.1,3.9,21.4-6c11-17.2-10.1-27.6-21.5-12.4c-7.6,8.2-6.9,22.2-3.5,32.2c10.9,29.1,44,42.7,73.2,43.1
		c8.9,0.1,17.7-0.4,26.5-0.6c20.5-2.3,40.5-7.9,59.7-15.5c66.7-26.4,118.9-79.2,160.2-136.4c23.5-32,44.8-65.6,65.5-99.7
		c22.8,14.4,51.7,12.9,77.5,9.3C1222.2,519.3,1255.3,501.2,1282.1,476.8z M1158.9,517.5c-8.2,1.3-16.5,1.8-24.6,0.3
		c-8-1.2-15.8-4-22.4-8.4c37.9-62.8,73.5-127.2,115.3-186.9c20.3-28.4,43.2-55.2,69.8-78c38.2,47,26.6,118.5-6.5,174.2
		c-24.3,42.8-60.1,76.6-107.2,93C1175.2,514.4,1167.1,516.3,1158.9,517.5z"/>
	<path d="M2563.3,266.3c-11.2,16.7,11,29,22.2,11.4C2596.7,260.1,2574.5,249.6,2563.3,266.3z"/>
	<path d="M2834,351.5c-12.2,20.9-24.7,41.4-40.4,59.6c-15.3,17.7-33.8,34.5-56.2,42.2c-8,2.3-17,4.5-24.8,1.1
		c-2.4-1.2-4.5-2.7-6.2-4.4c-5.1-5-5.7-12.3-6.2-19.1c-0.2-7.7,1.6-15.2,4.1-22.8c3.6-10.6,8.3-20.6,13.2-31
		c1.7-3.6,3.4-7.1,5.2-10.7c1.2,0.2,2.4,0.3,3.6,0.3c37.9,0.4,73.6-25.2,89.6-58.8c6-12.4,7.6-30.7-8.8-35.5
		c-13.4-3.3-26.7,2.8-38.1,9.1c-31,18.4-56.4,48.9-73.4,81.5l0,0l-1.6,3c-12.6,23.9-41.2,35.6-62.5,36.4c-5.1,0.2-9.6-0.3-12.9-1.4
		c9.5-20.8,18.7-41.8,28.6-62.4c8.6-6.3,16.9-13,25-19.9c36.6-31.8,66.8-70.2,91.9-111.3c6.3-10.4,12-21.2,15.9-33
		c2.6-8.6,7.1-24-4-28.8c-21.8-6.9-54.8,33.2-67.4,49c-37.4,47.9-68,100.5-95.1,154.8c-0.8,1.7-1.7,3.5-2.5,5.2
		c-20.9,11.9-43.1,21.5-66.4,28.2c-0.5,0.1-0.9,0.6-0.9,1.2c0.1,0.6,0.6,1,1.2,1c6.1-0.6,12-1.9,17.9-3.5
		c15.2-4.1,29.7-10,43.6-17.2c-4.2,8.8-8.3,17.8-12.3,26.5c-1.8-0.7-3.6-1.1-4.9,0.8c-20.3,30.3-58.3,84.4-91.8,97.7
		c-5.6,1.8-14.1,4.3-15.7-3.2c-1.4-4.6-0.4-10,0.3-15.1c1.7-9.3,5.5-19.7,10.4-28.3c24.9-42.7,51.5-84.6,77.7-126.6l10.1-16.1
		l-28.6,4.5c-22.6,36.1-45.1,72.3-66.8,109c-14.8,22-30.7,43.6-49,62.8c-6.6,6.9-13.5,13.6-21.1,19.4c-6,4.1-20.7,15.3-27.2,9
		c-1.7-2.7,0.5-5.4,1.8-8.4c1.1-2.2,2.2-4.5,3.1-6.9c5.8-13.3,14.3-26.2,22.5-38.4c18.3-28.2,37.5-54.9,44.7-89.8
		c1.3-8.9,0-20-4.9-28.7c-8.2-14.5-25.7-5.9-35.8,1.4c-5.5,3.8-10.5,8-15.4,12.4c-17.9,17.1-34.4,35.3-49.9,54.4l13.9-21.4
		c0.2-0.1,0.3-0.3,0.5-0.4c2.5-2.3,4.7-5.9,6.3-10c0.3-0.4,1.1-1.6,1.1-1.6s-0.1-0.1-0.4-0.3c4.6-13.8,2.9-32.3-12.7-32.5
		c-15.3,1.2-34.9,26-44,37.4c-13,16.5-25,33.8-36.1,51.5c-21.6,35.1-43.3,71.5-75.2,98.2c-3.2,2.5-6.5,4.9-10,6.9
		c-4.9,2.7-10.3,5.3-15.8,4.7c-16.8-2.2-13.9-13.5-9.5-25.7c4.7-13.3,13.4-26.4,20.8-38.7c5.1-8.8,9.4-17.9,12.6-27.9
		c6.2-18,6.3-39.1-2.3-56.7c-2.9-6.5-7.3-12.4-12.6-17c7.3-3.1,14.4-6.8,21.3-10.4c29.8-16.2,57.3-36.9,81.5-60.5
		c36.4-34.3,70-71.6,105.4-106.5c72.5-71.4,156.7-140.4,260.2-156.6c67.4-8.9,66.6,40.1,31.1,80.8
		c-55.9,62.4-140.7,87.4-220.8,101.7c-2.4,0.4-2,4.1,0.5,3.9c33.4-3,66.4-10.2,98.2-21.3c54-19.2,111.3-50.7,141.7-101.1
		c8.4-14.9,14.8-34,7.2-50.6c-13.1-25.7-47.3-23.2-71.4-18.8c-16.6,2.9-33,7.1-49.1,12.2c-48.4,15.5-93.3,40.4-134.3,70
		c-74.4,53.7-137.4,123.3-201,188.8c-22.7,23.2-46.2,50.9-76.1,64.3c-0.3-0.2-0.6-0.4-0.9-0.5c-14.8-8.5-34.8-15.7-51.2-7.7
		c-0.1,0-0.1,0.1-0.2,0.1c4-7.8,8-15.6,11.9-23.4c35.6-68.7,72.3-136.3,121.1-196.5c3.1-4,6.2-7.7,9.3-11.3c7-2.2,14-4.4,20.9-6.8
		c21.7-7.8,43.9-15.6,62.7-29.4c4-3.4,8.8-7.1,9.4-12.9c0.3-4.7-4.7-6.7-8.5-6.3c-0.2,0-0.5-0.1-0.7,0c-5,0.6-9.9,1.5-14.7,2.7
		c-14.6,3.8-28.2,10.2-41.5,17.1c-21.1,11.1-41.6,24.6-59.7,40.6c-41.7,11-83.9,19.4-126.3,26.9c-30.8,5.8-59.8,18.1-86.5,34.7
		c-20.4,12.9-38.7,30-50.5,51.3c-12.1,21.7-18,47.5-11.9,72.3c3.8,16.5,15.3,32.2,31.7,37.5c15.5,5.1,32.6,2.9,47.4-3.5
		c14.6-6.5,26.4-18.5,34.1-32.3c12.7-23.2,18.2-54.3,8.4-79.4c-1.5-3.6-3.6-7.1-6.2-10c-0.2-0.2-0.6-0.3-0.9-0.1
		c-0.3,0.2-0.4,0.6-0.2,0.9c4.3,6.2,6.2,13.6,7.3,21c4.1,35.7-11.2,78.3-45.1,94.2c-13,5.7-28.7,7.6-42,2
		c-13.1-5.5-19.9-19.1-20.6-32.7c-1.3-28,12.2-55.2,27.6-78.1c29.4-43.6,68.9-64.4,119.9-74c35.9-7.5,71.9-15.3,107.3-24.8
		c-2.4,2.2-4.7,4.5-6.9,6.9c-7,7.3-13.5,15-19.9,22.8c-37.7,46.2-67.6,98.7-95.7,150.8c-18.8,34.5-36.4,69.6-53,105.1
		c-40.5,81.5-95.9,217-183.7,252.9c-30.8,11.5-84.3,13.3-109.3-11c-3.3-3.2-5.9-7.2-7.3-11.5c5.5,2.5,13.5,1,18.9-7.5
		c11.2-17.6-11-28-22.2-11.4c-1.9,2.8-2.8,5.5-3,7.9c-0.7,4.4-0.2,9,1.3,13.1c5.7,14.9,20.9,23.5,35.1,28.1
		c23.9,7.6,49.7,6.5,74,1.4c72.5-14.7,124.3-88.1,163.9-145.7c36.1-54.2,67.8-111.2,97.8-168.9c0,0.1,0,0.1,0.1,0.2
		c4.2,8.2,17.3,8.4,25.4,8.6c9-0.1,17.8-1.9,26.2-4.6c3.4,5.8,5.7,11.9,6.8,18.4c1,6.8,0.3,13.8-1,20.7c-3,16.3-9.1,32.3-16.6,47.4
		c-6.5,14.4-11.8,28.6-14.3,44.6c-2,12.4,1.2,29,14.1,34.6c6.7,2.8,14.6,3.8,21.5,1.7c27.7-10.6,54.9-46.8,71.6-70.9
		c9.5-13.7,18-28.2,27.1-42.1c13.8-20.6,28.1-41.1,45.8-58.6c5.9-5.7,12-11.1,18.6-15.2c1.5-0.9,3.3-1.9,5-2.5c-0.8,0.9-1.7,2-2.5,3
		c-0.1-0.1-0.2-0.1-0.2-0.1c-0.3,0.4-0.6,0.9-1,1.5c-0.1,0.1-0.2,0.2-0.3,0.3c-2.1,2.5-4.3,5.1-5.7,8.5c-0.1,0.3-0.2,0.6-0.4,0.9
		c-23.2,35.6-90.6,139.2-110.4,169.6l34.5-5.4l54.1-82.9c9.7-13.3,19.6-26.4,29.9-39.2c16.3-19.8,33.4-39.3,52.9-55.9
		c7.3-6.1,14.8-11.9,23.2-16c6.3-3.2,17.5-6.1,13.9,5.2c-1.7,5.2-5,10.3-7.1,15.4c-9,22.2-20.7,45-33,66
		c-4.9,8.1-10.1,16.1-15.5,23.8c-8.2,11.6-15.3,24.3-17.8,38.7c-2.9,12.3,4.2,31.4,19.4,29.3c24.5-3.7,52.9-33.4,74.8-61.2
		c-3.4,9.9-5.4,20.7-2.3,31.2c2.3,7.8,8.9,16,17.6,15.9c6.9,0.4,13.6-0.4,19.6-3.2c14.6-6.6,26.5-16.9,37.9-27.8
		c18.8-18.8,34.7-40,49.6-61.8c-25.7,56.6-54.5,112.5-92.4,161.9C2454.5,620.3,2389,677.1,2318,664c-16.5-3.6-34.4-12-41.1-28.4
		c-0.8-2.2-1.3-4.4-1.3-6.7c3.4,1.7,8.4,0.8,11.7-4.5c6.8-10.8-6.7-17.1-13.6-6.9c-1.4,2-1.9,3.9-1.9,5.6c-1,4.6-0.5,9.6,1.2,14
		c4.7,11.9,15.4,20,26.5,25.3c16.8,7.8,35.7,9.8,54,8.2c61.8-6.4,113.5-47.7,154.3-91.8c32.9-36.1,60.1-77.2,82.9-120.3
		c8.9-16.9,17.1-34.1,25-51.5c3.7,1.3,8.3,2,13.5,2c0.8,0,1.6,0,2.4,0c16.6-0.6,37.3-7.4,52.8-20.8c-6.4,20.3-10.3,49.7,6,65.4
		c5.4,5.2,12.7,8.7,20,9.1c9.8,0.9,19.7-0.1,28.8-3.5c44-16.7,79.3-64.3,96.4-106.7C2836.2,351.2,2834.5,350.5,2834,351.5z
		 M2742.2,330.8c12.7-19.9,31.3-45.5,55.4-51.1c18.2-3.3,18.5,13.3,12.9,25.8c-6.9,16.2-19.8,29.5-34.6,38.8
		c-14.8,9-31.9,15.8-49.3,15.6c-0.2,0-0.4,0-0.6,0C2731,350,2736.3,340.3,2742.2,330.8z M2754.9,163.8c3.9-3.9,8.3-7.4,12.9-10.2
		c4.3-2.8,7.9-3,8.8,2.5c2.9,26.1-41.8,84.5-59.1,106.2c-18.9,23.3-40.5,44.9-64.2,63.5C2681.4,268.7,2710.4,210.1,2754.9,163.8z
		 M2359.4,73.4c0.2,0,0.4-0.1,0.6-0.2c1.3-0.1,2.5,0.2,2.8,0.5c0.2,0.2,0.3,0.3,0.3,0.8c-1.7,8.3-18.6,17.1-26.5,21.3
		c-18.2,9.1-37.4,16.1-56.9,22.2C2301.4,94.7,2324.6,80.2,2359.4,73.4z M2151.2,370.9c-4.8,0.2-21-0.1-20.7-6.7
		c0.6-2.3,2.5-3.8,4.7-5.1c3.2-1.8,7-2.9,10.9-3.2c10.1-0.4,21,3.5,28,11C2166.8,369.2,2159.2,370.6,2151.2,370.9z"/>
</g>
<path d="M1968.1,484.1c-12.2,20.9-24.7,41.4-40.4,59.6c-15.3,17.7-33.8,34.5-56.2,42.2c-8,2.3-17,4.5-24.8,1.1
	c-2.4-1.2-4.5-2.7-6.2-4.4c-5.1-5-5.7-12.3-6.2-19.1c-0.2-7.7,1.6-15.2,4.1-22.8c3.6-10.6,8.3-20.6,13.2-31
	c1.7-3.6,3.4-7.1,5.2-10.7c1.2,0.2,2.4,0.3,3.6,0.3c37.9,0.4,73.6-25.2,89.6-58.8c6-12.4,7.6-30.7-8.8-35.5
	c-13.4-3.3-26.7,2.8-38.1,9.1c-33.6,20-60.8,54.2-77.6,89.9c-19,32.5-50.5,79-83.7,96.7c-4.2,2-9.4,3.6-13.8,2.8
	c-3.9-0.6-4.8-3.1-3.9-6.5c1.1-3.7,1.4-8,2.3-11.9c1.3-5.1,2.8-10.2,4.6-15.5c4-11.9,10-24,16.3-35.3
	c31.5-56.1,66.7-110,101.2-164.4l60.8-9.6l3.3-0.5l-1-6.6l-58.3,9.2c12.4-19.5,24.6-39,36.6-58.8c2.2-3.7,6.4-11.1,8.4-15l5.5-10.2
	l-30.5,5c-4.2,7.2-8.8,14.4-13.1,21.4c-13.2,20.8-26.7,41.7-40.2,62.8l-66.5,10.5c13.7-21.7,27.3-43.4,40.4-65.4
	c2.4-4.5,7.1-13.1,9.8-18l-30.5,5c-4.2,7.2-8.8,14.5-13.2,21.5c-13,20.6-26.4,41.3-39.8,62.2l-67,10.6l-3.3,0.5l1,6.6l64.4-10.2
	c-30,46.7-59.9,93.9-86.5,141.7c0,0,0,0,0,0s-0.1,0.3-0.3,0.7c-2.5,4.5-4.9,8.9-7.3,13.4c-1.8,3.5-3.8,7.6-5.9,12.1
	c-19.4,33.7-46.6,66.2-82.5,79.2c-8,2.4-16.9,4.7-24.7,1.2c-2.4-1.2-4.5-2.7-6.2-4.4c-3.5-3.3-4.7-7.7-5.5-12.2
	c-0.8-4.7-1-9.5-0.3-14.3c2.4-16.3,9.9-31.3,16.9-46.3c1.7-3.6,3.4-7.1,5.2-10.6c7.5,1,15.4-0.2,22.6-1.6
	c24.5-5.6,46.4-20.5,61.1-40.8c30.4-41,7.2-68.3-37.3-42.6c-33.9,20.1-61.2,54.7-77.9,90.8c-14.3,26.1-31.5,50.9-52.5,72
	c-6.8,6.7-13.9,13.1-21.6,18.4c-4.7,3.1-18.5,12.3-23.5,8.1c-1.3-1-1.6-1.7-1.6-2.6c0.3-4.5,1.9-9,2.6-14.4
	c3.2-17.2,11.4-34.8,19.1-51c8.9-18.4,19.6-37.3,30.5-55.9c12.6-11.2,24.9-22.7,36.9-34.5c27.6-27.3,54.3-56.1,75.4-88.8
	c16-24.5,30.4-49.9,42.5-76.5c5.9-13.8,20.2-44.6,12.5-58.4c-2-4-6.1-6.2-10.4-5.6c-9.5,1-14.7,7.6-20.8,13.6
	c-7,7.3-13.3,14.9-19.4,22.6c-41.8,53.2-77.9,112.4-113.1,170.2c-20.2,33.8-41.9,67.7-57.9,104c-19.3,31.8-44.2,64.3-71.4,81.6
	c-5,2.9-12.9,7-18.1,4.9c-0.4-0.3-0.6-0.9-0.5-1.5c0.3-1.8,0.1-3,0.5-5.1c0.5-2.5,1.6-6.6,2.1-9c4.7-17.9,13.7-34.3,22.9-50.7
	c19.1-34.1,38.6-68.8,57-103.2l6.6-12.3l-24.7-13.4l-6.5,12.4c-9.6,18.2-19.1,36.7-28.5,55.3c1.4-5.1,2.2-9.9,2.4-14.2
	c1.4-31.7-28.1-24.6-47.3-14.6c-4.9,2.5-9.6,5.3-14.2,8.4c-26.3,18.3-46.4,44-63.7,70.2c-14.5,22.3-27.7,49.2-27.7,76.6
	c0,14.3,6.3,33.5,23.9,32.3c15.2-1.5,27.5-12.6,38.3-22.3c14.8-14.4,36.4-40.9,54.9-69c-4.1,9.2-7.7,18.7-10.1,28.6
	c-2.8,11.4-5.1,24.6,2.9,35.1c1.8,2.6,5.2,3.8,8.1,4.8c12.6,4.8,26.8-6,36.1-13.3c17.7-15.2,32.6-32.9,45.7-51.9
	c-1.3,3.9-2.5,7.8-3.6,11.8c-1.3,5.1-2.4,10.3-3.1,15.8c-1.2,8.8,0.9,20.7,8.9,27.5c4.8,4.2,10.7,4.7,15.9,2.8c4-1,8.1-2.2,11.7-4
	c27.4-14.6,53.1-46.6,72.8-76.3c-3.9,18.5-3.9,40.2,9.3,52.9c5.4,5.2,12.7,8.7,20,9.1c9.8,0.9,19.8,0,28.8-3.4
	c29.1-11.2,52.7-34.8,71.5-61.2c-3.4,12.7-4.1,25.5,1.9,34.9c4.3,6.3,12.7,10.8,19.9,10.6c6.4-0.2,11.9-2.5,17.4-5.1
	c22.8-11.6,43.6-34.3,61.3-58c-2.1,8-3.2,16.2-2.6,24.6c0.3,9.6,7.9,19.3,17.5,21.9c8.2,2.2,16.2-1.2,23.1-4.8
	c27.5-15.7,50.5-44.3,69.9-72.3c-3.5,18.2-3.2,39,9.6,51.3c5.4,5.2,12.7,8.7,20,9.1c9.8,0.9,19.7-0.1,28.8-3.5
	c44-16.7,79.3-64.3,96.4-106.7C1970.4,483.8,1968.6,483.1,1968.1,484.1z M1876.3,463.4c12.7-19.9,31.3-45.5,55.4-51.1
	c18.2-3.3,18.5,13.3,12.9,25.8c-6.9,16.2-19.8,29.5-34.6,38.8c-14.8,9-31.9,15.8-49.3,15.6c-0.2,0-0.4,0-0.6,0
	C1865.1,482.6,1870.5,472.9,1876.3,463.4z M1537.9,516c12.7-19.9,31.3-45.5,55.4-51.1c18.2-3.3,18.5,13.3,12.9,25.8
	c-6.9,16.2-19.8,29.5-34.6,38.8c-14.8,9-31.9,15.8-49.3,15.6c-0.2,0-0.4,0-0.6,0C1526.7,535.1,1532,525.4,1537.9,516z M1465.8,487.9
	c28-47.8,59.8-102.4,89.1-149.1c10.3-15.9,20.6-32.3,32.5-46.9c3.7-4.9,9-9.3,12.4-14.1c0.2-0.2,0.3-0.5,0.3-0.6
	c0-0.2-0.1-0.3-0.1-0.5c3.8,0.7,3.2,8.7,2.7,12.8c-2.1,14-7.5,27.4-13,40.6c-3.8,8.8-8,17.5-12.4,26.1c-17.7,34.2-38.2,67.3-63.9,96
	c-19.6,22.2-40.9,43-63.2,62.6C1455.5,505.6,1460.8,496.6,1465.8,487.9z M1198.5,686.6c-13.3-1.7-2.7-25.5,0.2-33.3
	c7.3-17.5,17.5-33.8,28.1-49.5c14.1-20.2,28.8-39.9,44.4-58.8c9.3-10.7,18.2-22.5,30-30.4c16.3-10.5,21.5-0.1,18.6,15.6
	c-2.7,14.7-9,28.4-16.1,41.6C1288.6,599.5,1231.5,689.4,1198.5,686.6z M1656.2,609c-6.1,4.8-12.8,9.6-20.4,11.4
	c-6.6,1.6-14.6,0.5-11.4-7.9c1.3-4,1.3-8,2.4-12.1c3.5-14.5,9-28.6,16.3-42.1c32.4-59.1,69.6-115.5,105.8-172.5l66.5-10.5
	c-29.8,46.5-59.6,93.6-86.1,141.1l0,0l-2.3,3.9C1707.7,552.9,1685.8,585,1656.2,609z"/>
</svg>
