<?xml version="1.0" encoding="utf-8"?>
<!-- Generator: Adobe Illustrator 28.2.0, SVG Export Plug-In . SVG Version: 6.00 Build 0)  -->
<svg version="1.1" id="Layer_1" xmlns="http://www.w3.org/2000/svg" xmlns:xlink="http://www.w3.org/1999/xlink" x="0px" y="0px"
	 viewBox="0 0 3471.2 791.8" style="enable-background:new 0 0 3471.2 791.8;" xml:space="preserve">
<style type="text/css">
	.st0{fill:#86A6B2;}
</style>
<symbol  id="New_Symbol" viewBox="-975 -375.2 1950.1 750.5">
	<g id="Text_00000111151107448420580660000007831840403526997141_">
	</g>
	<g id="reg_00000161607946353641381210000007329621567149239449_">
	</g>
	<g>
		<path d="M-902.4-366.3c52.3,6,102.8,30.6,158.8,77.5c31.9-1.5,64.2-4.6,95.6-7.5c22.6-2.1,46-4.3,69-5.9c36.7-3.3,72.9-5,107.7-5
			c0,0,0,0,0,0c115,0,220,18.1,312.2,53.9c7.8,3.2,18.1,7.4,28.1,12.7c8.7,4.6,18.5,9.9,26.3,18.1c1.8,1.9,1.7,4.9-0.1,6.8
			c-0.9,1-2.3,1.6-3.7,1.6c-1.3,0-2.5-0.5-3.5-1.4c-6.8-6.2-15.6-10.3-24.2-14.3l-0.1-0.1c-49.1-21.3-102.4-32.4-143.3-39.6
			c-62.5-11-129.6-16.3-205.2-16.3c-29.4,0-59.8,0.8-93,2.4c-20.2,1-40.9,2.3-60.9,3.6c-29.2,1.8-59.3,3.7-89,4.8
			c4.3,3.8,8.7,7.8,13.1,11.9c7.4,7.1,14.7,14.7,21.5,22.6c46.5,54.7,85.7,116.9,119,171.3c2.6-1.5,5.3-2.8,8.2-3.9
			c10.1-3.7,21.2-5.5,34-5.5c8,0,16.6,0.7,27.1,2.2c31.9,4.6,63.5,20,88.8,43.5c25,23.2,43.1,53.4,51,84.9
			c11.5,43.2,4.2,88.4-19.6,121c-2.2,3-4.7,6-7.2,9c5.2,3.9,10.5,7.6,16,11.1c33.6,21.6,71.6,33.4,109.9,34.2c0.9,0,1.9,0,2.8,0
			c15.5,0,28.3-2.1,39.2-6.2c3.8-1.5,7.9-3.4,10.5-6.4c1-1.2,2.4-1.9,4-1.9c1,0,2,0.3,2.8,0.8c2.3,1.5,3,4.7,1.5,7
			c-1.9,2.9-4.4,4.9-6.9,6.6c-5.9,4-13.1,7.1-22.6,9.6c-11.1,2.6-22.9,4-35.1,4c-27.8,0-57.8-6.8-86.9-19.8
			c-15.2-6.8-30.7-15.7-47.1-27.2c-29.6,25.6-71.7,38.6-125.2,38.6c-44.7,0-97.3-9.7-144.5-26.7c-41.8-15.1-80.2-36.7-113.9-64.1
			c-35.3-28.6-63.7-62.2-84.4-99.8C-901-12-907.7-62.4-889.5-92.9c11.7-19.6,33-30,61.5-30c17.4,0,37.7,3.8,60.3,11.4
			c74.6,26.7,139.5,89.2,165.4,159.2c0,0.1,0,0.1,0.1,0.2c4.1,12.7,8.9,31.6,2.5,49.4c-0.9,2.3-3,3.7-5.4,3.7
			c-1.8,0-3.6-0.9-4.7-2.3c-1.1-1.4-1.5-3.2-1-4.9c3.2-14.2-0.9-29.5-4.9-41.3C-634.9,1.6-678.4-47.5-732.1-79.1
			c-22.5-13.6-61.4-28.2-93.6-28.2c-20.9,0-36.2,6-45.5,17.9c-20.6,28.8-1.5,74,11.6,98.4c41.2,72.6,112.3,136.4,195.1,175.1
			c44.9,20.9,99.5,33.3,145.9,33.3c18.4,0,35.4-1.9,50.3-5.8c20.8-5.3,38-14.5,51.4-27.3c-5.5-4.2-11.3-8.7-17.5-13.7
			c-14.1-11.3-28-24.4-45-42.5c-37.4-39.7-73.5-87.7-110.3-146.5c-11.3-17.9-22.6-36.2-33.6-53.8c-35.4-57.3-72.1-116.6-114.8-169.9
			c0,0-0.1-0.1-0.1-0.1c-8.3-11.3-17.2-22.1-26.5-32c-4.3,0-8.6,0.1-13,0.1c-59,0-125.9-4.4-174.9-37.4c0,0-0.1-0.1-0.1-0.1
			c-9.5-7-18.8-15.1-21.7-26.8c-3-12.3,6-21.6,16.3-25.3c8.6-3,18.2-4.4,29.4-4.4C-919.8-368.2-910.9-367.3-902.4-366.3z
			 M-420.9,156.1c4.7,5,10,10,15.6,14.9c13.3-18.8,19-42.4,16.5-68.4c-2.3-26-11.3-52.4-26.6-78.6c-22.6-39.7-55.1-67.8-93.8-81.2
			c-12.3-3.9-22.9-5.8-32.5-5.8c-9.5,0-17.9,2-24.9,5.9c4.2,6.9,8.4,13.8,12.6,20.7c9.6,15.9,19.6,32.4,29.5,48.5
			C-491.7,66.3-461.1,114.7-420.9,156.1z M-933.2-352.9c-9.1,0.3-18.5,1.1-24.8,5.5c-2,1.4-2.4,2.9-2.5,3.8c-0.3,3,1.9,7.5,5.8,11.7
			c5.3,5.8,12.4,11.1,22.2,16.5c24.5,13.2,54.4,21.3,91.4,24.9c18.2,1.8,37,2.6,57.5,2.6c1.7,0,3.5,0,5.2,0
			c-21.7-20.2-45.4-36-70.3-47c-27.2-11.8-56.3-18-84.1-18L-933.2-352.9z"/>
		<path class="st0" d="M-654.5,176.6c52.7,24.5,127.9,41.1,187.3,30.4c-0.7,0.2-1.4,0.4-2.1,0.6c-14.7,3.7-31.2,5.6-49.3,5.6
			c-45.9,0-99.7-12.3-144.1-32.9c-39.2-18.3-77.2-43.3-110-72.3c-34.6-30.6-62.6-64.6-83.2-101c-6.5-12.1-15-30.3-18.5-48.7
			c-2.8-14.7-2-27.3,2.3-37.4c-3.6,26.4,8.9,57.2,20.6,78.9C-808.1,76.3-733.9,139.5-654.5,176.6z"/>
		<path class="st0" d="M-230.2,218.8c-9.3,2.9-20.1,4.3-32.8,4.3c-0.9,0-1.9,0-2.7,0c-28-0.6-55.8-7.1-81.8-19.2
			c-0.3-0.2-0.6-0.3-1-0.4c-0.9-0.4-1.9-0.9-2.8-1.4c-5.5-2.7-10.8-5.6-16.1-8.7c-2-1.2-4.1-2.5-6.1-3.8c-4.1-2.6-8.1-5.4-12.1-8.3
			c1.6-1.9,3.1-3.8,4.5-5.8c0.1-0.1,0.1-0.2,0.2-0.2c4.8,3.5,9.6,6.9,14.6,10.1c33.3,21.4,72.4,34.1,112.2,34.9
			C-246.2,220.3-238.1,220-230.2,218.8z"/>
		<path class="st0" d="M-600.1,39.8C-620.8-15.5-667.6-64.3-718.2-94c-9.6-5.8-22.5-12-36.9-17.2c-3.7-1.5-7.4-3-11.1-4.3
			c-0.1,0-0.1,0-0.2-0.1c-22.9-7.7-43.7-11.6-61.6-11.6c-5.5,0-10.5,0.4-15.2,1c20.4-6.6,48.8-5.1,85.8,7.3
			c71,25.5,136.5,85.5,162.9,156.7c4.8,14.8,8,31.5,2.6,46.6c-0.2,0.4-0.5,0.7-0.8,0.9c1.2-11-0.7-21.8-3.1-30.7
			C-597,49.6-598.5,44.6-600.1,39.8z"/>
		<path class="st0" d="M-793.2-295.3c1.3,1,2.5,2.1,3.7,3.2c-18.1-0.1-35-1-51.3-2.6c-12.1-1.2-23.4-2.9-34-5
			c-23-5.5-44.7-13.9-63.7-26.6c-6.5-4.8-13.3-10.3-17.3-17.5c0,0,0.1-0.1,0.1-0.1c1.5-1,3.2-1.8,5.1-2.4c1.2,2.2,2.8,4.2,4.5,6
			c6.5,7.1,14.9,12.7,23.4,17.4c28.5,15.3,60.9,22.3,93,25.4C-817.6-296.4-805.4-295.7-793.2-295.3z"/>
		<path class="st0" d="M-560.8-55.5c2.3-1,4.8-1.7,7.4-2.2c12.3,20.3,24.5,40.5,36.9,60.6c30.9,51,62.6,101.9,104.3,144.8
			c3.2,3.4,6.6,6.7,10,9.9c-1.2,2.4-2.5,4.7-3.9,7c-4.2-3.8-8.1-7.6-11.7-11.4c0,0-0.1-0.1-0.1-0.1c-39.8-41-70.3-89.2-103.1-143.3
			c0,0,0,0,0-0.1c-9.9-16-19.9-32.5-29.5-48.4C-554-44.3-557.4-49.9-560.8-55.5z"/>
		<path class="st0" d="M-97.3-230c-7.3-6.7-16.6-11-25.5-15.1c-18.3-8-37.2-14.5-56.4-20.1c-87.3-30.7-185.5-46.3-292.2-46.3
			c-34.9,0-71.2,1.7-108,5c-23.1,1.6-46.4,3.8-69.1,5.9c-30.7,2.9-62.5,5.9-93.7,7.4c-25.2-21-49-37.2-72.5-49.5
			c-29.4-15.4-58-24.5-87.3-27.9c-8.5-0.9-17.6-1.8-26.8-1.8c-5.4,0-10.4,0.3-15.1,1c17-5.6,35.4-3.9,52.7-2
			c60.1,6.9,112.2,39.2,157.9,77.6c55.5-2.5,110.9-9.7,166.4-13.5c140.5-12.6,285.5-2.7,417.9,48.7c9.4,3.8,18.7,7.8,27.7,12.5
			c9,4.8,18,9.7,25.1,17.2c0.3,0.3,0.3,0.8,0,1.1C-96.5-229.7-97-229.7-97.3-230z"/>
		<path class="st0" d="M-567.5-77c-1.7,0.7-3.4,1.4-5,2.2c-32.9-53.8-71.6-114.7-117.3-168.5c-6.9-8-14.3-15.8-21.8-22.9
			c0,0,0,0-0.1-0.1c-1.8-1.7-3.6-3.4-5.4-5c3.7-0.2,7.3-0.3,11-0.5c0.1,0.1,0.3,0.3,0.5,0.4c7.5,7.1,14.5,14.6,21.2,22.3
			c45,53,82.7,111.9,119,171.4c-0.6,0.2-1.2,0.4-1.8,0.6C-567.4-77.1-567.5-77.1-567.5-77z"/>
		<path d="M754.8,146.7c3.8,6,4.5,12.2,1.8,17.1c-2.4,4.4-7.3,7.1-12.7,7.1c-6.2,0-12.1-3.4-16.1-9.4c-3.9-5.8-4.6-12-1.9-17
			c2.5-4.6,7.4-7.5,13-7.5C745.1,137,750.9,140.5,754.8,146.7z"/>
		<path class="st0" d="M763,137.7c4.5,7.1,3,12.8-0.9,15.7c-0.6-3-1.8-6-3.7-9c-3.9-6.1-9.4-10.1-15.5-11.3
			C747.5,128.3,757,128.2,763,137.7z"/>
		<path class="st0" d="M-421.2-96.8c0.7,0.8,1.4,1.6,2.1,2.4c0.7,0.8,1.4,1.6,2.2,2.4c0.7,0.8,1.5,1.6,2.2,2.3
			c0.7,0.8,1.5,1.5,2.3,2.3c1.9,1.9,4,3.7,6.1,5.4c0.1,0.4,0.2,0.9,0.3,1.3c0.3,1.6,0.5,3.4,0.5,4.9c0,0.1,0,0.1,0,0.2
			c0,0.9,0,1.8-0.2,2.5c-0.1,0-0.3-0.1-0.4-0.2c-1.3-0.5-2.5-1.2-3.7-1.9c0,0-0.1,0-0.1-0.1c-2.5-1.6-5.2-3.8-8.3-6.9
			c0,0,0,0-0.1-0.1c-0.7-0.7-1.3-1.3-2-2c0,0-0.1-0.1-0.1-0.1c-0.6-0.6-1.3-1.3-2-2.1c0,0-0.1-0.1-0.1-0.1c-0.7-0.8-1.4-1.4-2-2.1
			c0,0,0,0-0.1-0.1l-0.1-0.1c-0.7-0.7-1.3-1.4-1.9-2.1c0-0.1-0.1-0.1-0.1-0.2c-2.7-3.1-5.5-6.4-8.3-9.7c-2.6-3.1-5.4-6.4-8.1-9.9
			c-5.1-6.5-10-13-15.9-20.8c-5-6.7-10.3-13.9-15.4-21.3c-2.3-3.4-4.7-6.9-6.9-10.5c0,0,0-0.1-0.1-0.1c-2.4-3.9-4.6-7.4-6.5-10.7
			c0,0,0-0.1-0.1-0.1c-2-3.4-3.9-6.9-6-10.8c-1.9-3.6-3.5-7.2-4.9-10.7c-1.7-4.2-2.9-7.6-3.9-10.7l-0.4-1.2l-0.3-1.2
			c0-0.1-0.1-0.2-0.1-0.3c-0.1-0.3-0.2-0.7-0.3-1.1c-0.1-0.3-0.1-0.6-0.2-1c-0.2-1-0.3-1.9-0.3-2.7c1.1,0.1,2.1,0.4,3.1,0.7
			c0.1,0,0.1,0,0.2,0.1c1,0.3,2,0.8,3,1.3c0.9,2.7,1.9,5.4,3,8.1c1.5,3.8,3.3,7.7,5.3,11.4c1.9,3.8,4,7.5,6.2,11.2
			c2.1,3.7,4.4,7.4,6.7,11c2.2,3.7,4.7,7.3,7.1,10.8c5,7.4,10.3,14.5,15.6,21.6c5.3,7.1,10.6,14.1,16,21c2.7,3.5,5.5,6.8,8.3,10.2
			C-426.9-103.4-424.1-100.1-421.2-96.8z"/>
		<path class="st0" d="M-59.8,31.5l-29.5-4.7l0.7-4.5l25.5,4C-62,28.1-60.9,29.8-59.8,31.5z"/>
		<path class="st0" d="M-190.9-81.7c0.2,0.4,0.4,0.7,0.7,1.1c10.4,16.2,25,36.6,43.8,44c0.4,2.6,0.1,4.4-0.3,4.8
			c0,0-0.4,0.2-1.6,0.2c-0.7,0-1.4-0.1-2.2-0.2c-18.1-4.3-33.2-24.7-44.3-42.1c-2.3-3.7-4.5-7.5-6.7-11.4
			C-198.1-84.4-194.6-83.2-190.9-81.7z"/>
		<path class="st0" d="M26.6,40.6c1.1,1.7,2.2,3.4,3.3,5.1l-37.3-5.9c-4.5-7.1-9.1-14.3-13.7-21.4c-26.9-42-54.7-85.4-79-129.7
			c-6.3-11.7-10.9-23.8-13.8-35.8c0-0.1,0-0.2-0.1-0.3c-0.4-1.3-0.6-2.7-0.8-4.2c-0.1-1-0.3-2-0.5-3.1c2.1,0.6,4.1,1.6,6.1,2.7
			c3.2,11.4,7.7,22.6,13.4,33.4c29.1,53.1,62.5,103.7,95,154.8L26.6,40.6z"/>
		<path class="st0" d="M-230.4-6.4c5,5.6,9.8,11.4,14.5,17.5c13.7,23.1,27.6,46.1,40.9,67.3c1.5,2.3,2.9,4.5,4.4,6.8
			c2.6,5.3,5,10.6,7.2,15.6c2.8,6.7,5.4,13.1,7.5,19.4c-7.8-10.4-15.1-21.7-22.1-32.6l-1.6-2.5c-20.5-32.7-42.7-70.3-63.1-105.1
			C-238.5-15.4-234.4-10.9-230.4-6.4z"/>
		<path class="st0" d="M-310.3-211.8c16.4,8.8,32.2,24.5,46.1,42c-0.7,2.1-1.4,4.4-1.9,6.8c-5.4-6.8-11.2-13.3-17.3-19.4
			c-6.1-6-12.5-11.8-19.4-16.6c-2.1-1.4-6.2-4.1-10.3-6c-1.7-1-3.4-2-5.1-2.9c0,0-0.1,0-0.1-0.1c-4-2-8.2-3.2-11.9-4.2
			c-1.5-0.5-3-0.8-4.5-1c4.2-3.4,9.3-3.8,13.8-2.2C-317.2-214.5-313.6-213.5-310.3-211.8z"/>
		<path class="st0" d="M-499.5-242.2c0.8-0.1,1.6-0.2,2.3-0.3c0.7,0,1.5,0,2.2,0c1.4,0.1,2.8,0.3,4.1,0.6c1.3,0.2,2.5,0.7,3.8,1.1
			c1.2,0.5,2.4,0.9,3.5,1.5c4.5,2.1,8.5,4.8,12.3,7.7c3.7,2.9,7.3,5.9,10.7,9.2c6.8,6.4,12.9,13.4,18.7,20.5
			c0.2,0.2,0.3,0.4,0.4,0.6c-0.8,2.6-1.3,5.1-1.5,7.4c-1.1-1.4-2.3-2.8-3.5-4.2c-5.8-6.9-11.9-13.7-18.4-19.8c-3.3-3-6.6-6-10.3-8.5
			c-3.3-2.4-6.9-4.4-10.5-5.7c-2.1-1.3-4.1-2.4-6.1-3.3c-1.1-0.5-2.1-0.9-3-1.3c-0.3-0.1-0.7-0.3-1-0.4c-0.3-0.1-0.5-0.2-0.8-0.3
			c-0.3-0.1-0.5-0.2-0.8-0.3c-1-0.3-2.3-0.7-3.7-1c-1.6-0.4-3.2-0.5-4.5-0.7l-0.4,0c0,0,0,0-0.1,0c0.6-0.4,1.1-0.7,1.7-1.1
			c0.8-0.3,1.5-0.7,2.3-1C-501.1-241.8-500.3-242.1-499.5-242.2z"/>
		<path class="st0" d="M-410.6-222c2.4-1,4.9-1.2,7.1-1.1c2.2,0.2,4.2,0.7,6.1,1.3c3.8,1.3,7.1,3.1,10.3,5.1c3.1,2,6.1,4.2,8.9,6.5
			c6,4.9,11.5,10.3,16.6,16c-0.9,2.6-1.4,5.2-1.8,7.8c-1.3-1.4-2.6-2.8-4-4.2c-4.9-5-9.9-9.7-15.4-13.9c-2.7-2.1-5.5-4.1-8.4-5.8
			c0,0-0.1,0-0.1-0.1c-1.1-0.7-2.1-1.5-3.2-2.1c-4.3-2.7-8.1-4.6-12-6c-2.8-1-5.5-1.6-8.3-1.8c-0.1,0-0.2,0-0.4,0
			c0.1-0.1,0.3-0.2,0.4-0.2c0.6-0.4,1.4-0.6,2-0.9C-411.9-221.5-411.2-221.7-410.6-222z"/>
		<path class="st0" d="M-192.8-195.9c17.4,6.7,32.6,18.4,45.8,32.4c-0.8,1.5-1.5,3.1-2.1,4.8c-13-14-28.2-25.5-45.6-31.8
			c-1.8-0.5-3.7-1.1-5.6-1.5c-0.4-0.2-0.8-0.3-1.2-0.5c0,0,0,0-0.1,0c-6.9-2.6-14.4-3.9-22.5-3.9c-1.6,0-3.2,0.1-4.8,0.2
			c3.2-1.5,6.6-2.5,10.1-2.7C-209.9-199.8-201-199-192.8-195.9z"/>
		<path class="st0" d="M-84-164.2c-5.5-4.3-11.5-8.6-18.3-10.3c-0.7-0.2-1.5-0.3-2.2-0.4c-4.5-2-9.3-3.7-15-4
			c3.3-1.9,7.1-3,10.6-2.9c5.7,0.1,10.7,2.3,15.6,4.6c12.7,6.5,24.7,16.8,35.8,28.8c-1.2,2.3-2,4.7-2.6,7.3
			C-67.5-149.4-75.4-157.2-84-164.2z"/>
		<path class="st0" d="M109.2-143.4c-2.2-0.6-4.4-1.2-6.6-1.7c-0.1,0-0.2-0.1-0.3-0.1c-7-2.7-14.7-4-22.7-4c-1.5,0-3,0.1-4.5,0.2
			c3.2-1.5,6.6-2.5,10.1-2.7c8.8-0.8,17.7,0.1,25.9,3.2c39.5,15,71.2,57.7,86.6,95.8c0.4,1.1-1.1,1.7-1.6,0.8
			c-10.9-18.8-22.2-37.2-36.3-53.5C145.9-121.5,129.3-136.5,109.2-143.4z"/>
		<path class="st0" d="M-11.5-165.8c2.6,0.9,5,2.1,7.3,3.3c9.2,5,17,11.4,24.3,18.3c7,6.7,13.5,14,19.6,21.5c-0.8,2.3-1.5,4.8-2,7.6
			c-0.8-1-1.5-2-2.3-3c-6.2-7.6-12.6-14.9-19.6-21.5c-3.5-3.3-7.1-6.5-10.9-9.5c-3.8-2.9-7.7-5.6-11.9-7.6c-1.5-0.7-3-1.3-4.5-1.8
			c-0.1,0-0.2-0.1-0.3-0.1c0,0-0.1,0-0.1-0.1c-2.2-1.1-5.1-2.6-8.4-3.8c-3.4-1.2-6.6-1.9-9.8-2.1c0.1,0,0.1-0.1,0.2-0.1
			c1.6-1,3.4-1.6,5-2.2c1.7-0.4,3.4-0.7,4.9-0.6C-16.9-167.4-14.1-166.7-11.5-165.8z"/>
		<path class="st0" d="M133,61.9l-50.9-8L81,52.3c-4.9-7.7-10-15.6-14.9-23.4C56.9,14.4,47.7-0.3,38.7-14.5L34.6-21
			c-11.3-18.1-21.3-34.5-30.3-50l-1.5-2.6c-1.9-3.3-3.9-6.6-5.7-9.9c0,0,0,0,0-0.1L-6.5-90l-1.7-3.1l-1.6-3
			c-4.7-8.8-8.1-16.7-10.7-24.1c-1.6-4.7-2.7-8.4-3.6-11.8l-0.3-1.3l-0.3-1.3c0-0.1,0-0.2-0.1-0.3c-0.1-0.2-0.1-0.5-0.1-0.7L-25-136
			c0,0,0,0,0-0.1c0-0.2-0.1-0.6-0.1-0.7c-0.1-0.8-0.2-1.5-0.3-2.1c0.9,0.3,1.9,0.7,2.9,1.2c1.1,0.5,2.3,1.2,3.5,1.9
			c0.7,2.3,1.5,4.7,2.3,7c2.9,8.5,6.8,17,11.2,25.4l1.7,3.1l1.8,3.2l3.6,6.4c2.3,4.3,4.8,8.5,7.3,12.7c9.8,16.9,20.1,33.6,30.5,50.3
			C49.7-11.2,60.1,5.5,70.7,22.1c6,9.4,12,18.9,18.1,28.3l54.7,8.6l3,0.5l-0.9,6l-5-0.8c-1.2-1.1-2.7-1.9-4.5-2.2L133,61.9z"/>
		<path class="st0" d="M125.5,123.7c0-0.1-0.1-0.1-0.1-0.2l-3.8-6.5c-1.8-3-3.6-5.9-5.3-8.8c-0.8-1.4-1.7-2.8-2.5-4.2c0,0,0,0,0-0.1
			c-4.6-7.4-9.4-15.1-15.2-24.2l9.9,1.6c3.3,5.3,6.6,10.5,9.9,15.8c2.6,4.3,5.2,8.5,7.8,12.8l3.8,6.5l3.8,6.9l5.2,9.6l-6.5,3.4
			l-3.1-5.7L125.5,123.7z"/>
		<path class="st0" d="M112.9-34.6c0.2,0.4,0.4,0.7,0.7,1.1c10.4,16.2,25,36.6,43.8,44c0.4,2.6,0.1,4.4-0.3,4.8c0,0-0.4,0.2-1.6,0.2
			c-0.7,0-1.4-0.1-2.2-0.2c-18.1-4.3-33.2-24.7-44.3-42c-2.3-3.7-4.5-7.5-6.7-11.4C105.7-37.3,109.3-36.1,112.9-34.6z"/>
		<path class="st0" d="M91.4-75c1.5,3.2,3.1,6.4,4.6,9.6c1.1-0.1,2.2-0.2,3.3-0.3c34-0.3,66.1,22.6,80.4,52.8
			c4,8.3,5.8,19.5,0.5,26.4c0-4.3-0.8-8.9-2.4-13.5c-0.2-3.5-1.3-7.4-2.8-10.8c-6.2-14.5-17.8-26.5-31.1-34.8
			c-6.2-3.8-12.9-7.2-19.9-9.6c-11.1-4.9-22.8-7.5-34.5-7.6c-0.7-1.5-1.4-3-2.1-4.5c-4.7-9.9-8.5-18.1-11.4-26.9
			c-2.3-7.1-3.4-12.5-3.3-17.4c0.4-5.4,0.9-9.4,3-11.5c0.1-0.1,0.2-0.2,0.3-0.3c0,0,0,0,0,0.1c-0.2,6.9,1.5,13.7,3.7,20.5
			C82.8-93.3,87-84.3,91.4-75z"/>
		<path class="st0" d="M-155,62.9c-15.9-30.7-34.3-60.4-57.4-86.2c-17.6-19.9-36.8-38.6-56.7-56.2c1.5,2.5,2.9,4.9,4.3,7.4
			c-6-5.7-12.3-11.4-18.6-17.1c-8.6-14.7-18.4-31.9-26.4-48.4c-6.8-14.2-13.7-29.3-16.4-43.4c-0.2-1.5-0.5-3-0.8-4.3
			c1.7,0.9,3.8,2.1,6.5,3.9c3.6,12.3,9.3,24.7,14.9,36.2c8,16.5,17.6,33.4,27.4,50.2c11.3,10.1,22.4,20.3,33.2,30.9
			c24.8,24.5,48.8,50.3,67.7,79.7c14.3,22,27.3,44.8,38.2,68.7c5.3,12.3,18.1,40,11.3,52.5c-0.4,0.7-0.8,1.4-1.4,2
			c0-6.2-1.4-13-3.6-20c-2.2-11.1-6.6-21.9-11-32.4C-147.3,78.4-151,70.6-155,62.9z"/>
		<path class="st0" d="M-378.8-129.4l-10.3-18.5c0,0,0,0,0-0.1c-3.8-6.7-6.9-12.4-9.5-17.8c-3.2-6.5-5.7-12.2-7.6-17.4
			c-1.1-3-1.9-5.7-2.5-8l-0.4-1.7c0.7,0.4,1.4,0.8,2.1,1.2c2,1.2,4,2.5,6.1,4.1c1.9,4.7,4.1,9.5,6.4,14.2c3,6.1,6.2,12,9.7,18.2
			l10.3,18.5c13.8,24.7,27.5,49.3,40.8,74.2l5.9,11.1l-6.4,3.5l-3.9-7.2C-351.8-81.1-366.8-107.9-378.8-129.4z"/>
		<path class="st0" d="M35.5,109c-0.1-0.1-0.1-0.2-0.2-0.3C27.5,95.6,19.1,81.9,8.9,65.6l9.8,1.5c7.1,11.5,14.2,23,21.1,34.6
			c2.3,4.2,6.7,12.2,9,16.5l-6.5,3.4c-1-1.8-2.1-3.9-3.2-5.8L35.5,109z"/>
		<path class="st0" d="M-129-57.9c-6.2-14.5-17.8-26.5-31.1-34.8c-6.7-4.1-14-7.7-21.6-10.2c-5.1-2.1-10.4-3.9-15.8-5.1
			c-0.1,0-0.1,0-0.2,0c-4.5-0.9-10.5-2-16.6-2c-0.1,0-0.1,0-0.2,0c-0.7-1.5-1.4-2.9-2.1-4.3c-0.6-1.3-1.2-2.6-1.8-3.9
			c-5.6-12-10.9-23.4-12.7-35.4c-0.5-3.2-0.4-6.7,0.3-10.3c0.6-3.3,1.3-5.2,2.4-6.2c0,0,0,0,0.1-0.1c0.1-0.1,0.2-0.2,0.3-0.3
			c-0.1,2.2,0,4.5,0.3,6.7c2.1,14.6,8.9,28.1,15.2,41.6c1.5,3.2,3.1,6.4,4.6,9.6c6.7-0.9,13.8,0.2,20.3,1.5
			c22,5.1,41.6,18.4,54.8,36.6c13.2,17.9,15.1,32.8,9.1,40.9c0-4.1-0.9-8.6-2.4-13.2C-126.3-50.5-127.4-54.4-129-57.9z"/>
		<path d="M856.9-26.5c7.6,0,14.7,1.3,21.2,3.7c43.1,16.4,74.8,63.1,89,98.2c0.9,2.4,0,5-2.2,6.3c-0.8,0.5-1.7,0.7-2.6,0.7
			c-1.8,0-3.5-1-4.4-2.5c-10.3-17.7-21.6-36.4-35.8-52.9C905.4,7.7,890-3.9,873.6-9.6c-3.9-1.2-8.5-2.4-12.8-2.4
			c-2.4,0-4.5,0.4-6.4,1.2c-1.5,0.8-3,1.8-4.4,3.1c-3.5,3.4-3.9,9-4.3,14.4c-0.1,7,1.8,13.8,3.5,18.9c3.3,9.7,7.7,19.1,11.6,27.4
			c1.1,2.3,2.2,4.6,3.3,6.9c0.2,0,0.6,0,0.7,0l0.7,0c34.3,0,67.9,22.2,83.5,55.2c4.7,9.7,5.5,19.8,2.3,27c-2.3,5.3-6.8,9-12.8,10.7
			c-0.1,0-0.1,0-0.2,0c-2.6,0.6-5.3,1-8,1c-10.6,0-20.7-4.8-29.2-9.5c0,0-0.1,0-0.1-0.1c-26.5-15.7-50.4-42.2-67.3-74.5
			c-0.1-0.1-0.1-0.2-0.2-0.3l-1.4-2.7c-10.5-19.9-34.6-29.7-52.5-30.4c-0.6,0-1.1,0-1.7,0c-1.4,0-2.7,0.1-3.9,0.2
			c5.3,12.1,10.7,24.4,16.1,36.2c2,4.3,3.9,8.6,5.9,13c39.8,28.9,75.2,68.5,105.4,117.7c9.3,15.3,21.2,37.4,17.5,53.7
			c-1.6,6.7-7.6,11.1-15.4,11.1c-0.7,0-1.4,0-1.9-0.1c-7.4-0.6-13.2-4.2-18.5-7.4c-14.4-9.4-25.5-22.1-36.5-35.5
			c-32.1-40.5-61.3-88.7-89.2-147.4c-18.4-10.2-37.4-18.3-56.7-23.8c-2.5-0.6-4.2-3-3.9-5.6c0.3-2.7,2.5-4.7,5.2-4.7
			c0.2,0,0.4,0,0.6,0c14.5,1.8,29.5,6.3,45.4,13.5c-0.1-0.2-0.1-0.3-0.2-0.5c-1.3-3.1-2.7-6.3-4-9.4c-2.2-0.1-4-1.2-5.3-3.1
			c-49.4-73.5-72.6-83-80.4-86.1c-1.8-0.6-4.6-1.5-6.7-1.5c-1.6,0-1.7,0.3-1.8,1.2c0,0.1-0.1,0.2-0.1,0.4c-0.8,2.8-0.3,6.6,0.2,10.4
			l0.2,1.3c1.5,8.1,4.8,16.8,8.8,24c17.8,30.6,37,61.2,55.5,90.8c4.7,7.6,9.5,15.2,14.2,22.7l5.2,8.3c1.2,2,0.6,4.6-1.3,5.8
			L715.6,132c-0.7,0.4-1.5,0.6-2.2,0.6c-0.3,0-0.6,0-0.9-0.1c-1.1-0.2-2-0.9-2.6-1.9c0,0-5.2-8.3-5.2-8.3
			c-19.5-31.2-40.2-64.5-60-97.9c-16-23.8-29.4-41-43.5-55.8c-6.8-7.1-12.6-12.5-18.3-16.9l-1.2-0.8c-3.8-2.6-11.6-8.2-16.2-8.2
			c-0.3,0-0.5,0-0.7,0.1c0.2,0.5,0.5,1,0.7,1.4c0.3,0.6,0.6,1.1,0.8,1.7c1.1,2.1,2.1,4.3,2.9,6.4c4.9,11.3,12.2,22.4,19.8,33.8
			c1.6,2.5,3.3,5,4.9,7.6c14.6,22.4,29.8,45.5,35.8,74.6c0,0.1,0,0.1,0,0.2c1.5,9.8-0.3,20.4-4.9,28.5c-3.4,6-8.8,9.2-15.5,9.2
			c-8.4,0-17-4.9-22.8-9c-4.5-3.1-9-6.8-14.2-11.4c0,0-0.1-0.1-0.1-0.1c-5.8-5.5-11.5-11.2-17.2-17.2c1.9,10.1,0.2,21.4-8.1,26.6
			c-2.4,1.5-5,2.3-7.9,2.3c-13.6,0-29.1-17-42.4-33.6l-1.2-1.5C481,44.1,466.9,23.1,450.8-3.6c-13-21.2-25.8-38.6-39.2-53.1
			c-4.3-4.7-9.6-10-15.5-14.5c-3.6-2.6-11.2-7.9-16.5-7.9c-0.8,0-1.5,0.1-2.2,0.4c0,0-0.1,0-0.2,0.1c-2.8,1.1-4.8,2.5-5.7,3.9
			c-2.1,7.6,7.4,25.4,12,34c0.8,1.5,1.5,2.8,2.1,4c9.7,17,19.9,37.1,19.6,59.6c-0.4,14.9-5.6,29.4-14.3,39.6c0,0,0,0,0,0
			c16.9,7.9,34.3,18.4,52.9,32c22.2,16.5,41.8,36.2,60.8,55.3c2.1,2.1,4.2,4.2,6.4,6.4c5.2,5.3,10.3,10.7,15.5,16
			c39.5,40.8,80.4,83.1,125.8,117.4c51.2,38.7,101.1,61.6,152.4,69.9c4.5,0.7,8.8,1,12.8,1c14.2,0,24.5-4.3,29.1-12.1
			c5.1-8.7,3.1-22-5.5-37.4c-9.4-16.2-23.9-31.3-44.2-46.1c-25.4-18.3-70.1-44.5-163.8-61c-3.1-0.6-5.1-3.3-4.8-6.4
			c0.3-3.1,2.8-5.4,5.9-5.4c0.1,0,0.3,0,0.5,0c30.1,2.7,60.1,9.2,89.2,19.3c62.2,22.1,105.7,53.2,129.4,92.6c0,0,0,0.1,0.1,0.1
			c10.5,18.7,12.8,35.7,6.7,49.2c0,0.1-0.1,0.1-0.1,0.2c-7.3,14.4-22,21.7-43.6,21.7c-7.4,0-15.6-0.8-25-2.6
			c-14.3-2.5-29.4-6.2-44.7-11.1c-40.3-12.9-81.3-34.3-121.8-63.5c-57.2-41.3-107.2-93.3-155.6-143.7c-8.3-8.7-16.9-17.6-25.4-26.3
			c-3-3-5.9-6.1-8.9-9.3c-17.1-17.9-34.8-36.4-56.2-46.6c-10.5,6.2-23,10-33.3,10c-1.8,0-3.4-0.1-5.1-0.3
			c28.9,55.1,59,111.7,96,162.7c9.1,12.7,17.4,24.1,26.1,34.2c5.8,1.8,11.6,3.7,17.2,5.6l2.1,0.8c18.9,6.8,38.5,13.9,55.3,26.2
			c0.1,0.1,0.2,0.1,0.2,0.2l0.7,0.6c3.8,3.2,8.6,7.2,9.3,13.8c0,0.1,0,0.1,0,0.2c0.1,2.6-0.7,4.9-2.4,6.8c-2.1,2.2-5.2,3.4-8.6,3.4
			c-0.2,0-0.5,0-0.7,0c-0.2,0-0.3,0-0.5,0c-0.2,0-0.5,0-0.7,0c-9.1-1.1-18.6-3.5-28.2-7.4c-25-10.5-49.3-25.6-72.5-45
			c-0.5-0.4-1-0.8-1.5-1.3l-0.1-0.1c-33.3-8.9-69-16.5-115.6-24.8c-27-5.1-53.6-15.8-79.1-31.7c-20.6-13-36.8-29.4-46.8-47.6
			c-12.4-22.3-16.4-46.5-11.1-68c4.2-17.8,16.1-31.8,31.2-36.7c5.5-1.8,11.5-2.8,17.6-2.8c9.2,0,18.8,2.1,27.9,6
			c13.3,5.9,24.9,16.8,32.6,30.9c10.4,19.1,18,48.8,7.7,74.9c-1.6,3.9-3.7,7.3-6.3,10.1c-0.9,1-2.2,1.6-3.6,1.6
			c-1,0-1.9-0.3-2.7-0.8c-1.1-0.7-1.8-1.9-2-3.1c-0.2-1.3,0.1-2.6,0.8-3.6c2.9-4.2,4.7-9.6,5.8-17c3.4-29.4-8.6-66.4-38-80.2
			c-6.7-2.9-13.7-4.5-20.3-4.5c-5.1,0-9.8,0.9-14.1,2.7c-10.9,4.6-15.4,16.3-16,25.7c-0.9,20.1,6.9,42.2,24.1,67.5
			c23.9,35.5,56.3,55.5,105,64.7c25.7,5.3,55.3,11.7,84.8,19.3c-6.4-6.8-12.8-14.4-19.5-23c-34.6-43.9-62.9-93.8-88.9-141.2
			c-15.6-27.7-30.4-56.5-44.6-84.2c-10.3-20-20.9-40.8-31.7-60.9c-18.4-33.9-39-69.7-64.3-102.4c-0.1-0.1-0.1-0.1-0.2-0.2
			c-8.3-12.4-17.9-23.7-28.4-33.6c-13.4,1-26.5,1.6-39,1.6c-18.4,0-36.4-1.1-53.6-3.4c-18.9-3-38.5-7.3-54.5-18.9
			c-6-4.4-9.9-10.4-10.4-16.1c-0.3-4.3,1.2-8.4,4.5-11.7c0,0,0.1-0.1,0.1-0.1c6.3-5.9,14.4-7.6,22.9-9c4.3-0.6,9.1-0.9,14.5-1
			c0.8,0,1.6,0,2.5,0c46.4,0,77.9,11,116.3,40.4c1.3,1,2.7,2,4.2,3.2c3.5-0.3,6.6-0.7,9.5-1c44.8-5.6,89.3-17.1,132.4-28.3
			c52.9-13.7,107.6-27.9,163.7-31.3c14.6-1.1,29.5-1.7,44.5-1.7c17.4,0,35.3,0.8,53.1,2.3c85.2,7.7,148.7,26.7,199.8,59.8
			c38.3,25.3,62.3,54.8,71.2,87.8c2.1,8.6,2.7,16,2,22.7c-0.4,3.1-1,5.8-2,8.2c-0.9,2.3-3.1,3.8-5.6,3.8c-0.5,0-1.1-0.1-1.6-0.2
			c-1.6-0.4-2.9-1.5-3.7-2.9c-0.8-1.4-0.9-3.1-0.5-4.6c0.8-3,1-6.7,0.5-11c-2.8-18.5-17.5-65-93.4-100.7
			c-26.2-12.1-70.8-29.3-155.4-38.4c-21.7-2.5-44.3-3.8-67.2-3.8c-60.7,0-126.3,8.8-200.7,27c-39.7,9.5-85.5,19.9-131.4,25.2
			c2.1,1.8,4.2,3.7,6.2,5.5c3.9,3.4,7.8,6.9,11.8,10.3c0.1,0.1,0.1,0.1,0.2,0.2c18.6,18.1,35,39.1,49.9,59.1
			c28.3,39,56.2,83.9,87.6,141.3c3.6,6.6,7.3,13.6,11.8,22.1c6.8-4.5,15.1-4.6,21.9-4.7c6.8,0.1,14,1.2,21.5,3.3
			c1.9-3.8,3.2-7.9,4-12.1c1.4-11.3-1.8-22.4-5.3-34.1l-0.4-1.2c-2.6-8.1-6.7-16.2-10.6-24.1c-0.7-1.4-1.4-2.8-2.1-4.3
			c-4.8-10.3-9.7-21.8-12.1-35.6c-2.5-13.1-0.1-25.5,6.3-33.2c4.8-5.8,11.8-8.9,20.1-8.9c2.1,0,4.3,0.2,6.5,0.6
			c15.6,2.7,34.4,22.3,44.6,32.9c17.2,18.5,30.8,39.8,44.1,60.5c12.6,19.7,25.7,40.1,41.5,57.5c1.9,2,4.6,4.9,7.7,8l-98-150.6
			c-1.3-2-0.7-4.6,1.2-5.8l19.5-12.7c0.7-0.5,1.5-0.7,2.3-0.7c1.4,0,2.7,0.7,3.5,1.9l64.4,98.7c8.7,12.1,17.7,23.8,26.7,34.9
			c14.1,17,29.5,34.8,47,49.6c6,5,12.6,10.2,20,13.8c2.6,1.3,5.3,2.1,6.9,2.1c0-0.4-0.2-0.9-0.4-1.7c-0.8-2.4-2-4.8-3.3-7.4
			c-1-2-2.1-4-2.9-6.2c-7.4-18.3-17.3-38-29.3-58.7c-4.4-7.4-9.1-14.5-13.8-21.1c-9.3-13.1-14.6-24.6-16.7-36.3
			c-1.9-8,0.3-18,5.3-24.4c3.7-4.7,8.7-7.2,14.2-7.2c0.9,0,1.7,0.1,2.7,0.2c16.4,2.5,36.2,17,58.9,43.3c-0.2-4.7,0.2-9.1,1.5-13.3
			c2.4-8.3,9.6-17.3,19.7-17.3l0.1,0c1-0.1,2.1-0.1,3.1-0.1c6.1,0,11.6,1.1,16.3,3.3c14,6.3,25.2,16.1,35.2,25.8
			c6.8,6.8,13.4,14.2,20.2,22.5c-16.1-32.7-36.3-68.5-61.7-100.6c-29.5-37.1-61.6-62.7-95.5-76.3c-16.7-6.6-33-10-48.3-10
			c-3.8,0-7.5,0.2-11.1,0.6c-18.7,2.4-30.9,8.6-36.3,18.4c-1.6,3.1-1.6,6.8,0,10c1,2,0.9,4.2-0.3,6c-1.1,1.8-3.2,3-5.3,3
			c-2.3,0-4.4-1.3-5.5-3.5c-3.2-6.4-3.1-14.5,0.3-21c5-9.5,14.4-16.5,28.8-21.4c9.9-3.3,20.8-4.9,32.5-4.9c5.8,0,11.8,0.4,17.9,1.2
			c48.2,6.7,95.6,34.3,141,82.2c34.6,36.9,64.5,83.2,89,137.8c1.2,2.8,2.5,5.7,3.8,8.5c2.9-0.7,6.2-1,9.8-1c0.7,0,1.5,0,2.3,0
			c13.6,0.5,28.1,5.1,40.2,12.6c-3.2-15.5-4.5-37.8,9.5-51.3c5.7-5.5,13.2-8.9,20.6-9.4C852.6-26.4,854.8-26.5,856.9-26.5
			C856.9-26.5,856.9-26.5,856.9-26.5z M530.8,322.1c-5.1-4.4-13.5-8.9-17-10.7l-0.6-0.3c-9.6-4.8-19.9-9.1-31.8-13.4
			C496.1,309.9,511.9,317.7,530.8,322.1z M23.9-225c-0.8,0-1.7,0-2.4,0c-8.3,0.2-17.1,0.8-24.3,3.8c-3.1,1.3-3.9,2.5-3.9,2.9
			c0,2.4,6.8,8.2,15.2,11.8c20,8.8,42.7,11.2,64.4,12.4c8.7,0.5,17.5,0.7,26.2,0.7c7.3,0,14.6-0.2,21.8-0.5
			c-22.6-17.1-47.6-27.3-72.9-29.7C39-224.5,31.2-225,23.9-225z M348.4,64.5c-0.5,0-1.1,0-1.7,0c-6,0-10.1,0.9-11.8,1.7
			c0.3,0.3,0.8,0.6,1.5,1c2.6,1.5,5.9,2.3,9.4,2.3c2.5,0,5-0.4,7.6-1.1c1.9-0.5,4.1-1.3,6.4-2.6C355.9,65.1,352.2,64.6,348.4,64.5z
			 M847.6,185.2c12.4,20.2,24.3,36.5,36.5,49.9c6.1,6.8,13.2,14.3,20.9,17.9c0.1,0,0.1,0.1,0.2,0.1c1-2.6,1.5-10-8.1-28.9
			c-23.6-42.4-53-79.3-87.5-109.6C823.2,142.7,835.2,164.9,847.6,185.2z M929.8,138c1.1,0.2,2.2,0.3,3.1,0.3c3.4,0,4.5-1.2,5.1-2.2
			c1.9-3,1.4-9.3-1.4-15.5c-5.5-12.8-15.9-24.4-29.4-32.9c-12.3-7.5-24.2-11.9-35.5-13.1c3.7,6.9,7.3,13.3,11.1,19.3
			C894.3,112.1,910.1,133.5,929.8,138z"/>
		<path class="st0" d="M555,42c1.9,1.7,3.5,4.2,4.8,7.1c-7.9-8.5-15.3-17.2-22.4-25.8c-8.9-11-17.8-22.7-26.5-34.6L453-100.1
			l-6.4-9.8c-0.6-0.9-1.3-1.6-2.1-2.2l6.8-4.4l6.4,9.8l58,89c8.7,11.9,17.6,23.7,26.9,35.2c14.7,17.7,30,35.3,47.5,50.2
			c1.5,1.3,3.1,2.5,4.6,3.8c0.9,2.2,1.8,4.4,2.7,6.5c0.5,1.2,1,2.3,1.5,3.4c-4.3-3.1-8.3-6.4-12.2-9.9C570.8,56,556,39.6,542,22.5
			l12.5,19.2C554.7,41.8,554.8,41.9,555,42z"/>
		<path class="st0" d="M470.3-172.7c-0.1-0.3-0.2-0.5-0.3-0.8c0.8-1.3,1.7-2.5,2.8-3.7c0.3,0.9,0.6,1.9,1.1,2.8
			C475-172.1,471.5-170.4,470.3-172.7z"/>
		<path class="st0" d="M673.4-62.8c5.6,2.5,10.7,5.6,15.5,9.1c2.6,4.4,5.2,9,8,13.9c-8.6-7.8-17.3-14-25.7-17.3
			c-1.2-0.4-2.7-0.8-4.1-1.2c-0.6-0.3-1.3-0.6-1.9-0.9c-5.2-2.4-11-3.6-17.4-3.7c2.3-1.7,5.1-2.8,8.1-2.8
			C662-66,668.1-65.2,673.4-62.8z"/>
		<path class="st0" d="M654-30.7c-0.1-0.4-0.1-0.8-0.2-1.2c-0.4-2.4-0.7-4.9-0.6-6.8c1.2,0.3,2.5,0.7,3.4,1c0.5,0.2,1.1,0.5,1.6,0.7
			c1.8,7.4,4.8,15.2,8.6,21.9c10.8,18.5,21.9,36.7,33.2,54.9c-2.6,0.6-4.8,2.2-6.1,4.4c-10.7-17.3-21.3-34.8-31.5-52.3
			C658.5-14.9,655.4-23.1,654-30.7z"/>
		<path class="st0" d="M410.3-85.9c-3.5-2.5-8.6-6-13.6-7.6c-6.6-4.7-13.1-8-19.4-9.1c-2.4-0.4-4.7-0.6-6.9-0.6
			c4.4-2.5,10.1-3.6,17.2-2.3c7.4,1.3,16,7.2,24,14c0.1,1.3,0.6,2.6,1.3,3.8l6.1,9.4C416.3-81.1,413.4-83.6,410.3-85.9z"/>
		<path class="st0" d="M730.3,39.7c1.4,2.1,2.7,3.9,3.8,5.6c-6.7-2.6-13.6-4.9-20.5-6.9c-0.5-0.1-0.8-0.5-0.8-1
			c0.1-0.5,0.5-0.9,1.1-0.9C719.4,37.3,724.9,38.4,730.3,39.7z"/>
		<path class="st0" d="M340.3,238.8c18.7,3.9,37.3,7.9,55.9,12.2c1.5,1.8,3,3.6,4.4,5.4c-15.2-3.4-30.5-6.5-45.8-9.4
			c-8.5-1.8-16.8-3.6-24.6-5.2c-0.1,0-0.1,0-0.2,0c-47.5-9-79-28.3-102.3-62.9c-16.6-24.6-24.2-45.8-23.3-64.9
			c0.2-4,1.3-8.5,3.4-12.4c0,0.2,0,0.5-0.1,0.7c-1.2,25.1,10.9,49.6,24.8,70.1C258.9,211.4,294.5,230.1,340.3,238.8z"/>
		<path class="st0" d="M264.1,74.6c-3.8-1.7-7.8-3-11.9-3.8c-7.9-2.7-16-4.1-23.8-4.1c-2.1,0-4.2,0.1-6.2,0.3
			c0.6-0.2,1.1-0.4,1.7-0.6c13.9-4.6,29.3-2.6,42.5,3.1c13.2,5.8,23.7,16.6,30.6,29c11.3,20.7,16.3,48.5,7.7,70.9
			c1.4-8.4,1.4-16.9,0.4-25.1C303.8,116.2,290,86.8,264.1,74.6z"/>
		<path class="st0" d="M633.8,67.4c-6.2-29.8-21.6-53.3-36.4-76c-1.6-2.5-3.3-5-4.9-7.5c0,0-0.1-0.1-0.1-0.1
			c-7.5-11.1-14.6-22-19.4-33c-0.1-0.2-0.1-0.4-0.2-0.6c2.6,1.6,5.1,3.3,6.3,4.2c0.4,0.3,0.8,0.6,1.1,0.8c1.9,1.4,3.8,3,5.7,4.7
			c3.5,5.9,7.4,11.7,11.2,17.2c16.4,25.3,33.6,49.3,40.2,80.7c1.1,7.2,0.2,16-3.2,23.4c0.5-4.5,0.5-9-0.2-13.4
			C633.8,67.7,633.8,67.6,633.8,67.4z"/>
		<path class="st0" d="M318.8,31.6c-31.5-57.5-59.4-102.6-87.9-141.7c0,0,0-0.1-0.1-0.1c-15-20.1-31.4-41.3-50.3-59.6
			c-0.1-0.1-0.3-0.2-0.4-0.4c-3.7-3.1-7.3-6.4-10.9-9.5c3.4-0.4,6.8-0.9,10.2-1.4c2.3,2,4.7,4.1,7,6.1
			c18.4,17.8,34.2,38.1,49.4,58.5c32.5,44.7,60.8,92.5,87.3,140.8c4.2,7.8,8.4,15.7,12.5,23.6c-2.4,0.5-4.7,1.1-7,2.1
			C325,43.3,321.8,37.4,318.8,31.6C318.8,31.7,318.8,31.7,318.8,31.6z"/>
		<path class="st0" d="M621.9-46.9c-0.7,1.5-1.3,3-1.7,4.5c-0.1,0.4-0.2,0.8-0.3,1.2c-1.3-1.4-2.6-2.9-4-4.3
			c-5.9-6.2-12.1-12.2-18.9-17.4c-4.7-3.3-15.3-11.3-21.9-9.6c-3.6-1.4-7.2-2.4-10.6-3c2.8-2.3,6.3-3.5,10.5-2.9
			C590-76.1,606.6-62.9,621.9-46.9z"/>
		<path class="st0" d="M387.4-42.7c-2.9-5.4-6.5-12.1-9-18.5c-2.7-6.8-2.9-10.2-2.8-11.6c0.5-0.4,1.5-1.1,3.2-1.7
			c0.1,0,0.2-0.1,0.3-0.1c0,0,0.1-0.1,0.5-0.1c0.3,0,0.5,0,0.8,0.1c3.1,10.2,9.9,22,13.4,28.7c10,17.7,19.4,36.5,19.1,57.5
			c-0.2,7.2-1.6,14.7-4.3,21.6c0.5-3.3,0.9-6.7,1-10.1c0,0,0-0.1,0-0.1c0.3-23.5-10.2-44.2-20.1-61.7
			C388.9-39.9,388.2-41.3,387.4-42.7z"/>
		<path class="st0" d="M842.8,153.8c4.2,7.5,8.5,14.9,13,22.3c10.9,17.8,23,35.2,37,50.6c0.7,0.7,1.4,1.5,2.1,2.3
			c3.8,7.9,5.5,13.2,6.3,16.7c-4.9-3.7-9.6-8.7-13.8-13.4c-12-13.2-23.8-29.3-36-49.3c-9.1-14.9-18-30.8-27.4-49.4
			C830.3,140.1,836.6,146.8,842.8,153.8z"/>
		<path class="st0" d="M921.1,72.9c-6.2-3.8-12.9-7.2-19.9-9.6c-11.1-4.9-22.8-7.5-34.5-7.6c-0.7-1.5-1.4-3-2.1-4.5
			c-4.7-9.9-8.5-18.1-11.4-26.9c-2.3-7.1-3.4-12.5-3.3-17.4c0.4-5.4,0.9-9.4,3-11.5c0.1-0.1,0.2-0.2,0.3-0.3c0,0,0,0,0,0.1
			c-0.2,6.9,1.5,13.7,3.7,20.5c3.2,9.5,7.4,18.5,11.8,27.8c1.5,3.2,3.1,6.4,4.6,9.6c1.1-0.1,2.2-0.2,3.3-0.3
			c34-0.3,66.1,22.6,80.4,52.8c4,8.3,5.8,19.5,0.5,26.4c0-4.3-0.8-8.9-2.4-13.5c-0.2-3.5-1.3-7.4-2.8-10.8
			C946,93.2,934.5,81.2,921.1,72.9z"/>
		<path class="st0" d="M823.7,99.7c-4.6-4-9.4-7.9-14.2-11.7c0.7,1.4,1.3,2.8,2,4.2c-4-3.2-8-6.3-12-9.3c-1.8-4-3.7-8-5.5-12
			c-4.5-9.8-9-20.1-13.5-30.3c2.6,0.1,5.2,0.5,7.9,1c3.2,7.3,6.4,14.5,9.6,21.5c2.1,4.7,4.3,9.3,6.4,14
			c42.8,30.9,77.7,72.2,105.2,117.1c7.8,12.8,20.5,35.2,17,50.5c-0.5,2-1.5,3.6-2.7,4.8c-0.1-4.5-1-9.2-2.3-14c-1-8.5-6-19-8.9-24.7
			C889.5,169.3,859.5,131,823.7,99.7z"/>
		<path class="st0" d="M519.9,147.8c83.6,86,172,184.4,296.2,204.6c6.9,1,13.1,1.3,18.8,0.8c-4.5,2-10.3,3.1-17.1,3.1
			c-3.8,0-7.8-0.3-12.1-1c-50.7-8.3-100-30.9-150.5-69.1c-45.2-34.2-85.9-76.3-125.3-117c-5.2-5.4-10.4-10.7-15.5-16
			c0,0-0.1-0.1-0.1-0.1c-2.1-2.1-4.2-4.2-6.3-6.3c-19.1-19.2-38.8-39-61.3-55.7c0,0,0,0-0.1,0c-13.1-9.6-25.5-17.6-37.7-24.3
			c-3.4-2.4-6.9-4.7-10.6-6.7c1.1-1.6,2.1-3.2,3-5c18.4,8.6,35.7,19.5,52,31.5C477.6,104.7,498.6,126.5,519.9,147.8z"/>
		<path class="st0" d="M540.8,308.9l-0.7-0.5c-0.1-0.1-0.3-0.2-0.4-0.4c-17.3-12.7-37.2-19.8-56.4-26.7l-2.1-0.8
			c-0.1,0-0.1,0-0.2-0.1c-5.2-1.8-10.6-3.5-16-5.2c-8.4-9.8-16.4-20.8-25.1-33.1c-35.3-48.8-64.4-102.8-92.3-155.7
			c2.5-0.1,5.1-0.4,7.7-0.9c27.2,51.7,55.2,103,89.5,150.3c9.2,12.9,17.9,24.8,27.2,35.4c6.1,1.9,12.1,3.9,18.1,5.9
			c19.5,7,39.4,14,56.3,26.4c3.6,3,7.9,6.3,8.4,11.5c0.2,3-2,4.8-4.6,5.4C548.2,315.1,543.9,311.5,540.8,308.9z"/>
		<path class="st0" d="M826.1-89.9c-0.2,0.6-0.8,1-1.4,1.1c0.2-5.7-0.5-11.9-2-18.8c-4.3-22.2-16.5-41.4-32.6-57.6
			c-11.2-12.1-24.8-23.6-40.7-34.1c0,0,0,0-0.1,0c-51.7-33.4-115.8-52.6-201.8-60.4c-18-1.5-35.9-2.3-53.4-2.3
			c-15.1,0-30.1,0.6-44.8,1.7c-31.2,1.9-61.8,7.1-92,13.7c34.3-8,68.9-14.4,104.3-16.6c32.3-2.5,64.7-2.1,96.9,0.6
			c68.8,6.2,139.1,21.1,197.9,59.1c30.8,20.4,59.5,48.6,69.4,85.2c1.7,6.9,2.7,14.1,1.9,21.2C827.6-94.6,827.1-92.2,826.1-89.9z"/>
		<path class="st0" d="M856.7,297.7c-11.1-19.1-27.6-34.5-45.4-47.4c-21.8-15.7-45.7-27.7-70.7-37.1c-4.9-2-10-3.9-15.2-5.7
			c-22.8-7.9-46.1-13.7-69.5-17.1c-3.4-0.6-6.7-1.3-10.1-1.8c-2.2-0.4-1.8-3.6,0.5-3.5c30,2.7,59.6,9.2,88.1,19.1
			c48.5,17.2,99.9,45.5,127.2,90.8c7.5,13.4,13.3,30.5,6.5,45.4c-0.2,0.3-0.3,0.6-0.5,0.9c0.6-6.6-0.3-13.6-2.5-21
			C864.1,313.6,861.4,306,856.7,297.7z"/>
		<path class="st0" d="M974.6,66.8c-0.4,0.2-1,0.1-1.2-0.3c-10.9-18.8-22.2-37.2-36.3-53.5C923.3-3,906.7-18,886.6-24.9
			c-2.2-0.6-4.4-1.2-6.6-1.7c-0.1,0-0.2-0.1-0.3-0.1c-7-2.7-14.7-4-22.7-4c-1.5,0-3,0.1-4.5,0.2c3.2-1.5,6.6-2.5,10.1-2.7
			c8.8-0.8,17.7,0.1,25.9,3.2c39.5,15,71.2,57.7,86.6,95.8C975.1,66.1,975,66.6,974.6,66.8z"/>
		<path class="st0" d="M145.4-199.8c-0.8-0.6-1.5-1.1-2.2-1.7c0.2,0,0.4,0,0.6,0c-16.8-14.4-36.1-25.7-57.1-32.2
			c-18.7-6.5-38.7-9.6-63-9.6c-0.8,0-1.7,0-2.5,0c0,0-0.1,0-0.1,0c-5.3,0.1-10,0.4-14.3,1c3.9-1.5,8.2-2.2,12.2-2.8
			c4.7-0.6,9.3-0.9,14-1c47.5-0.4,78.7,10.8,116.2,39.5c1.8,1.4,3.6,2.8,5.4,4.2c3.8-0.4,7.6-0.7,11.4-1.2
			c19.9-2.5,39.7-6.1,59.3-10.4c-23.8,5.5-47.9,10.3-72,13.3C150.7-200.4,148.2-200.1,145.4-199.8z"/>
		<path class="st0" d="M777.9,17.7c-2.6,0-5,0.2-7.3,0.5c-0.8-1.9-1.6-3.7-2.4-5.5c-24.7-54.9-54.9-101.7-89.8-138.9
			c-46-48.6-94.3-76.7-143.5-83.5c0,0,0,0-0.1,0c-6.3-0.8-12.5-1.2-18.4-1.2c-6.1,0-12,0.4-17.7,1.3c15.1-4.6,31.2-5,46.8-3
			c54.5,7.6,101.5,41.8,138.5,80.9c37.3,39.8,66,87,88.2,136.6c1.7,3.9,3.5,7.9,5.2,11.9c3.3-1.2,7.4-1.8,12.2-1.8
			c0.7,0,1.4,0,2.1,0c6.9,0.3,14.7,1.7,22.4,4.4c0.1,2.2,0.3,4.4,0.5,6.6c-2.5-1-4.9-1.8-7.4-2.4c-8.8-3.3-18.1-5.4-27-5.7
			C779.5,17.7,778.7,17.7,777.9,17.7z"/>
		<path class="st0" d="M369.3,44.7c-0.4,1.6-0.9,3.2-1.5,4.7c-6.5-1.6-12.9-2.4-19-2.5c0,0,0,0-0.1,0c0,0-0.1,0-0.1,0
			c-1.8,0-3.9,0.1-6,0.2c5.4-2.8,12-3,17.9-3C363.4,44.1,366.4,44.3,369.3,44.7z"/>
		<path class="st0" d="M731.9,105.2c-4.7-7.6-9.5-15.2-14.2-22.8c-4.9-7.8-9.7-15.6-14.7-23.5c3.7,1.1,7.4,2.4,11.2,3.7
			c7.4,11.9,14.9,23.8,22.3,35.7l5.2,8.3l-6.4,4L731.9,105.2z"/>
		<path class="st0" d="M99-197.5c-8.6,0-17.3-0.2-26-0.7c-15.8-0.9-32.2-2.4-47.5-6.6c-7.7-2.7-15.1-6.2-21.8-11
			c-0.9-0.7-1.8-1.4-2.6-2.2c2.2-0.7,4.6-1.2,7.1-1.6c3.5,2.5,7.4,4.6,10.3,5.8c20.6,9.1,43.5,11.5,65.8,12.8
			c6.3,0.3,12.7,0.6,19,0.7c1.5,0.9,3.1,1.9,4.6,2.8C105-197.6,102-197.5,99-197.5z"/>
		<path class="st0" d="M890.3,83.9c0.2,0.4,0.4,0.7,0.7,1.1c10.4,16.2,25,36.6,43.8,44c0.4,2.6,0.1,4.4-0.3,4.8c0,0-0.4,0.2-1.6,0.2
			c-0.7,0-1.4-0.1-2.2-0.2c-18.1-4.3-33.2-24.7-44.3-42.1c-2.3-3.7-4.5-7.5-6.7-11.4C883.1,81.3,886.7,82.4,890.3,83.9z"/>
	</g>
	<g>
		<path d="M189.3-38.4c-1,1.4-2.6,2.3-4.3,2.3c-1.8,0-3.5-1-4.4-2.6C170.2-56.4,159-75,144.8-91.5c-16.7-19.3-32.2-31-48.6-36.6
			c-3.9-1.2-8.5-2.4-12.8-2.4c-2.4,0-4.5,0.4-6.4,1.2c-1.5,0.8-3,1.8-4.4,3.1c-3.5,3.4-3.9,9-4.3,14.4c-0.1,7,1.8,13.8,3.5,18.9
			c3.3,9.7,7.7,19.1,11.6,27.4c1.1,2.3,2.2,4.6,3.3,6.9c0.2,0,0.6,0,0.7,0l0.7,0c34.3,0,67.9,22.2,83.5,55.2
			c4.7,9.7,5.5,19.8,2.3,27c-2.3,5.3-6.8,9-12.8,10.7c-0.1,0-0.1,0-0.2,0c-2.6,0.6-5.3,1-8,1c-10.6,0-20.7-4.8-29.2-9.5
			c0,0-0.1,0-0.1-0.1c-28.6-17-54.5-47-71.2-82.4c-10.4-17.9-20.9-33.5-32.2-47.5c-6.8-8.4-13.1-15.3-19.3-21.2
			c-3.7-3.6-7.2-6.6-10.6-9.2c-4.2-3.3-7.7-5.5-11.1-7.1c-2-0.9-3.8-1.6-5.5-2c-1.1-0.2-2.1-0.4-3-0.4c-0.5,0-0.9,0-1.2,0.1
			c-0.1,0-0.3,0.1-0.3,0.1l0,0.2l0.1,0.5c0,0.2,0.1,0.3,0.1,0.5l0.1,0.4c0.5,1.7,0.8,3.5,1.1,5.8c0,0.3,0.1,0.7,0.2,1.1l0.1,0.3
			c0.1,0.3,0.1,0.6,0.2,0.9c0,0,0.3,1.5,0.3,1.5l0.4,1.4c0.9,3.4,2,7.3,3.7,12.1c2.6,7.6,6.2,15.7,10.9,24.7l1.6,3.1l5.4,9.6
			c1.8,3.4,3.8,6.8,5.7,10L0.7-69c9.1,15.6,19,32,30.4,50.2l4.1,6.5c8.9,14.3,18.2,29,27.4,43.4c4.9,7.8,9.9,15.6,14.9,23.4l2.1,3.3
			l55.8,8.8c2.3,0.4,3.9,2.5,3.5,4.8l-0.9,6c-0.2,1.1-0.8,2.1-1.7,2.8c-0.7,0.5-1.6,0.8-2.5,0.8c-0.2,0-0.4,0-0.7-0.1l-43.1-6.8
			c1.5,2.3,2.9,4.6,4.4,6.9c6.1,9.6,11.1,17.6,15.8,25.2c0.8,1.4,1.7,2.8,2.5,4.2c1.7,2.8,3.5,5.7,5.2,8.7l3.8,6.5
			c0,0,9,16.6,9,16.6c0.5,1,0.7,2.2,0.3,3.3c-0.3,1.1-1.1,2-2.1,2.5l-19.2,10c-0.6,0.3-1.3,0.5-1.9,0.5c-1.5,0-2.9-0.8-3.7-2.1
			l-8.7-15.5l-3.7-6.1c-1.7-2.8-3.5-5.7-5.3-8.6l-2.3-3.8c-4.7-7.4-9.9-15.5-15.8-24.8L49,67.6L0.3,60
			c12.5,19.8,22.3,35.8,31.3,50.9c0,0,9.1,16.7,9.1,16.7c0.5,1,0.7,2.2,0.3,3.3c-0.3,1.1-1.1,2-2.1,2.5l-19.2,10
			c-0.6,0.3-1.3,0.5-1.9,0.5c-1.5,0-2.9-0.8-3.7-2.1c0,0-5.4-9.5-5.4-9.6c-3.8-6.8-8.1-13.9-12.4-20.6l-2.4-3.8
			c-10.1-15.9-20.6-32.3-30.8-48.1l-3.9-6.1l-61.2-9.7c-2.3-0.4-3.9-2.5-3.5-4.8l0.9-6c0.3-2.1,2.1-3.6,4.2-3.6c0.2,0,0.4,0,0.7,0.1
			l48.5,7.7c-24.5-38.2-49.9-78.5-72.4-119c-0.2-0.2-0.4-0.5-0.5-0.8l-0.2-0.5c-2.2-4-4.4-8-6.6-12c-1.4-2.8-3.3-6.6-5.3-10.9
			c-20.8-36-44.9-59.3-71.6-69.1c-4.2-1.2-8.7-2.5-12.9-2.5c-2.4,0-4.4,0.4-6.2,1.2c-1.5,0.8-3,1.8-4.4,3.2
			c-1.9,1.7-2.9,4.2-3.7,8.6c-0.7,4-0.8,7.9-0.3,11.5c1.8,12.6,7.5,24.8,13,36.6c0.6,1.3,1.2,2.6,1.8,3.8c1.1,2.3,2.2,4.6,3.3,6.9
			c0.9-0.1,1.9-0.1,2.8-0.1c5.7,0,11.4,1,15.9,1.9c22.5,5.2,43.4,19.1,57.3,38.2c12.3,16.6,16.3,32.3,10.9,43
			c-3.6,7.1-10.7,11-20.2,11c-8.6,0-18.9-3.3-29.7-9.6c-28.8-17.1-54.9-47.4-71.6-83.2c-13.7-25.1-29.3-46.5-46.3-63.6
			c-6.9-6.9-12.9-12-18.7-16l-0.1-0.1c-7.5-4.9-12.7-7.5-15.5-7.5c-0.1,0-0.1,0-0.2,0c0.2,1.5,0.6,3.1,0.9,4.8
			c0.4,1.9,0.9,4.1,1.2,6.5c2.8,14.7,9.8,30.1,16.8,44.6c8.2,16.9,18.2,34.4,26.9,49.3c11.5,10.3,22.6,20.6,32.8,30.6
			C-231.5-33.8-206-7-185.6,24.6c15.2,23.2,28.1,46.5,38.5,69.3l1.1,2.6c8.4,19.4,16.8,41.1,10,53.5c-2.3,4.5-6.8,7.4-11.8,7.4
			c-0.6,0-1.2,0-1.8-0.1c-8.8-1-14.2-6.4-18.9-11.2c-0.7-0.7-1.4-1.5-2.2-2.2c0,0-0.1-0.1-0.1-0.1c-6.7-7-12.7-14.3-17.7-20.6
			c-37.7-48-70.3-101.5-101.9-153.2c-3.1-5.1-6.2-10.3-9.3-15.4c-15.2-25.1-30.8-51-42.8-78.2c-0.2-0.4-0.5-0.8-0.7-1.2
			c-0.4-0.7-0.8-1.4-1.3-2.1c-7.9-12.6-15.8-23.7-24-33.9c-4.2-5.2-8.8-10.4-13.6-15.4c-5.3-5.5-10.2-9.9-14.9-13.5
			c-2.8-2.2-5.4-3.9-7.9-5.5c-2.9-1.7-5.5-3-7.9-3.7c-0.7-0.2-1.5-0.4-2.2-0.5c0,0.3,0.1,0.8,0.2,1.3c0,0.1,0,0.2,0.1,0.3
			c0,0.1,0.1,0.3,0.1,0.4c0.1,0.3,0.2,0.7,0.2,1c0.1,0.4,0.2,0.8,0.3,1.1c0.1,0.2,0.1,0.5,0.2,0.7c0,0.1,1,4.4,1,4.4
			c0.6,2.5,1.5,5.3,2.6,8.5c2,5.4,4.5,11.2,7.8,17.9c2.7,5.5,5.7,11.2,9.6,18l10.3,18.5c12,21.5,27,48.3,40.8,74.3l5.9,11.1
			c1.1,2.1,0.3,4.6-1.7,5.7l-22.2,12c-0.6,0.3-1.3,0.5-2,0.5c-0.4,0-0.8-0.1-1.2-0.2c-1.1-0.3-2-1.1-2.5-2.1l-5.9-11.1
			c-5.6-10.6-11-21.1-15.9-30.7c0,0.1,0,0.2,0,0.2c-0.7,3.8-2.2,7.1-4.4,9.8c-1.2,1.5-2.8,2.8-4.8,4.1c-0.1,0-0.1,0.1-0.2,0.1
			c-1.9,1-3.8,1.7-5.5,2.1c-1.8,0.4-3.6,0.6-5.6,0.6c-1.3,0-2.7-0.1-4.3-0.3c-2.6-0.3-5.3-0.9-8.4-1.9c-0.6-0.2-1.1-0.3-1.7-0.5
			c0.1,0.1,0.2,0.1,0.2,0.2h0c-0.1-0.1-0.2-0.1-0.2-0.2c-2.3-0.7-4.4-1.6-6-2.2c-2.6-1.1-5-2.2-7.1-3.3c-1.2-0.6-2.4-1.2-3.4-1.8
			c-1.3-0.7-2.4-1.3-3.4-1.9c-1.1-0.7-2.2-1.3-3.3-2l-0.2-0.1c-1-0.6-2-1.3-3-1.9c-3-2-6-4.2-9-6.7c-0.7-0.3-1.3-0.5-2-0.8v0
			c0.7,0.3,1.3,0.5,2,0.8c-4.3-3.5-8.7-7.5-13.7-12.4c-15.1-14.9-27-31.9-35.7-45c-4.7-7.3-10.1-16.1-14.4-25.8
			c-4.2-9.1-7.4-18.9-9.6-29c-1.2-5.7-1.7-11-1.5-16.2c0-2.6,0.3-5.5,0.8-8.8c0.6-3.5,1.5-6.4,2.5-9c1.5-3.7,3.5-6.8,6-9.3
			c0.6-0.6,1.3-1.2,1.9-1.6l0.4-0.3c0.1-0.1,0.2-0.1,0.3-0.2c0.9-0.6,1.7-1.1,2.4-1.5c0.1-0.1,0.3-0.1,0.4-0.2l0.2-0.1
			c0.8-0.3,1.6-0.7,2.4-1c0.1,0,0.2-0.1,0.3-0.1l0.5-0.1c0.7-0.2,1.4-0.4,2.3-0.6c0.1,0,0.7-0.1,0.7-0.1c0.6-0.1,1.4-0.2,2.1-0.2
			c0.1,0,1.4,0,1.4,0c0.4,0,0.8,0,1.2,0c0.1,0,0.6,0.1,0.6,0.1c1.3,0.1,2.7,0.3,4.1,0.6c1.2,0.2,2.3,0.6,3.3,0.9
			c0.3,0.1,0.6,0.2,0.9,0.3c0.1,0,0.3,0.1,0.4,0.1c0.4,0.1,0.7,0.3,1.1,0.4c0.9,0.3,1.8,0.7,2.6,1.1c4.2,2,8.3,4.6,13.1,8.2
			c4.1,3.2,7.7,6.3,11,9.4c6,5.7,12.1,12.4,19.1,20.9c4.5,5.6,9,11.4,13.5,17.5c-0.8-3.4-1.4-6.8-1.7-10.2
			c-0.4-3.5-0.7-8.8,1.3-14.7c1-3.2,2.4-5.9,4.2-8.2c1.2-1.6,2.9-3,4.8-3.9c0.7-0.4,1.3-0.6,1.8-0.8c0.2-0.1,0.3-0.1,0.4-0.2
			c0.4-0.2,0.9-0.4,1.3-0.5c0.2-0.1,0.4-0.1,0.6-0.2c2.3-1,4.7-1.5,7.3-1.5c0.6,0,1.2,0,1.8,0.1c2.4,0.2,4.7,0.7,7.2,1.6
			c3.6,1.2,7.1,3,11.2,5.6c3.1,2,6.1,4.2,9.3,6.8c9.6,7.9,18.5,17.3,28.8,30.1c-0.3-1.5-0.5-3-0.6-4.4c-1.2-8.4,0.6-20.9,9.4-28.5
			c3.4-2.9,7.5-4.5,11.9-4.5c2.1,0,4.3,0.4,6.4,1.1c3.5,0.9,7.5,2,11.2,3.9c18.1,9.7,37.3,28.4,57.1,55.7
			c-0.4-17.9,5.7-28.2,11.6-34c5.7-5.5,13.2-8.9,20.6-9.4c2.3-0.2,4.5-0.3,6.7-0.3c7.6,0,14.6,1.2,21,3.6
			c19.9,7.7,38.7,22.3,56.2,43.4c0-7.1,1.5-13.2,4.6-18.1c0,0,0-0.1,0.1-0.1c4.5-6.7,13.2-11.4,21-11.4c0.2,0,0.4,0,0.5,0
			c6.6,0.2,12.2,2.6,17.4,5.1c15,7.6,30.2,20.9,46.4,40.4c-0.1-2.4,0-4.7,0.2-7c0.3-4.3,1.4-7.9,3.4-11.3c2.3-3.9,5.6-7.3,9.3-9.5
			c2-1.2,4.1-2,5.9-2.6c0.1,0,0.2-0.1,0.3-0.1c2.2-0.5,3.9-0.8,5.5-0.8c0.2,0,0.4,0,0.5,0c3.2,0.1,6.5,0.7,9.9,1.9
			c3.1,1.1,5.8,2.5,7.9,3.6c8.4,4.6,16.4,10.6,25.2,19c6.6,6.3,13.3,13.7,20.5,22.5c3,3.7,6.1,7.6,9.1,11.6
			c-0.2-12,2.4-24.7,11.6-33.6c5.7-5.5,13.2-8.9,20.6-9.4c2.2-0.2,4.3-0.3,6.5-0.3c7.6,0,14.7,1.3,21.2,3.7
			c43.1,16.4,74.8,63.1,89,98.2C190.4-41.5,190.2-39.7,189.3-38.4z M105.4-24.5c11.6,18.1,27.4,39.4,47,44c1.1,0.2,2.2,0.3,3.1,0.3
			c3.4,0,4.5-1.2,5.1-2.2c1.9-3,1.4-9.3-1.4-15.5c-5.5-12.8-15.9-24.4-29.4-32.9c-12.3-7.5-24.2-11.9-35.5-13.1
			C98-36.9,101.7-30.5,105.4-24.5z M-198.5-71.6c11.6,18.1,27.4,39.4,47,44c1.1,0.2,2.2,0.3,3.1,0.3c3.4,0,4.5-1.2,5.1-2.2
			c1.9-3,1.4-9.3-1.4-15.5c-5.5-12.8-15.9-24.4-29.4-32.9c-12.3-7.5-24.3-11.9-35.5-13.1C-205.9-84-202.2-77.6-198.5-71.6z
			 M-255.7-33.6c22.9,39.1,48.8,83.3,72.5,121.1l1.6,2.5c8.5,13.3,17.4,27.1,27.3,39.3c1.4,1.8,3.1,3.6,4.9,5.5
			c0.5,0.5,0.9,1,1.4,1.5c0-0.5-0.1-1.1-0.2-1.7c-1.8-11.8-6.2-23-11.4-35.3c-3.2-7.4-6.9-15.2-11-23.2
			c-18.4-35.4-36.4-62.6-56.8-85.4c-10.9-12.4-22.9-24.8-35.8-37C-263.1-46.3-255.7-33.6-255.7-33.6z M-429.7-140.5
			c-5.3-8.2-10.3-15.5-15.3-22.4c-5.8-8.1-11.2-15.1-16.4-21.3c-6.9-8.2-12.5-14.2-18-19.4c-2.8-2.6-6.2-5.7-9.8-8.2
			c-3.5-2.5-7-4.3-10.3-5.5c-1.5-0.5-3.1-0.9-4.7-1c-0.1,0-0.1,0-0.2,0c-0.2,0-0.5,0-0.7,0c-0.4,0-0.8,0-1.1,0
			c-0.1,0-0.5,0.1-0.7,0.1c0,0-0.3,0.1-0.5,0.2c-0.2,0.1-0.3,0.2-0.4,0.5c-0.2,0.4-0.5,1.2-0.5,2.6c0,1.3,0.1,2.7,0.4,4.4
			c0.1,0.3,0.1,0.7,0.2,1c0.1,0.5,0.2,1,0.3,1.5c0,0,0.4,1.5,0.4,1.5l0.4,1.3c1,3.3,2.3,6.8,4,11.1c1.4,3.6,3.1,7.3,5.1,11
			c2,3.9,4,7.5,6.1,11c2,3.4,4.1,7,6.6,10.9c2.2,3.6,4.7,7.3,7,10.7c5.1,7.5,10.5,14.7,15.5,21.5c5.9,7.8,10.8,14.4,16,20.9
			c2.8,3.5,5.6,6.9,8.2,10c2.8,3.4,5.6,6.7,8.5,9.9c0.6,0.8,1.3,1.5,1.9,2.2l0.1,0.1c0.7,0.8,1.4,1.5,2.1,2.3
			c0.7,0.8,1.4,1.5,2.2,2.3c0.7,0.7,1.4,1.4,2.2,2.2c3.4,3.3,6.2,5.6,9,7.4c1.4,0.9,2.9,1.7,4.5,2.3c1.2,0.5,2.5,0.8,3.6,0.8l0,0
			c0.2,0,0.4,0,0.7-0.1c0.1,0,0.2-0.1,0.2-0.1c0,0,0,0,0,0c0.1-0.1,0.2-0.1,0.3-0.2c0.2-0.2,0.7-0.8,1.1-2c0.4-1.4,0.6-3,0.5-4.9
			c0-1.9-0.3-3.9-0.6-5.6c-0.7-3.8-1.7-7.7-3.2-12.1c-2.5-7.3-6-15.1-10.8-23.9C-420-124.9-424.6-132.7-429.7-140.5z M-33.3-66.7
			l-0.6-1.2c-0.9-1.6-1.5-2.6-1.9-3.3l0,0c-15.7-26.4-35.3-56.3-62.5-78.5c-4.8-3.8-10.5-8-16.7-9.5c-1.2-0.3-2.3-0.4-3.4-0.4
			c-1.3,0-2,0.2-2.3,0.4c0,0.2,0.1,0.8,0.4,1.6c0,0.1,0,0.1,0.1,0.2c0.7,2.2,1,4.3,1.3,6.4c0.2,1.6,0.5,3.2,0.9,4.7c0,0,0,0.1,0,0.1
			c3,12.4,7.8,24.8,14.2,36.8c24.4,44.4,52.2,87.9,79.1,130c4.9,7.7,9.8,15.3,14.7,23l48.5,7.7l-2.2-3.5C17.3,18.2-4.9-17-25.9-53.6
			l-1.5-2.6C-29.4-59.6-31.4-63.1-33.3-66.7z"/>
	</g>
	<path class="st0" d="M-493.7-83.6c12.5,1.8,24.6,5.2,36.2,10c3,2.5,6,4.7,9,6.7c1,0.7,2,1.3,3,1.9l0.2,0.1c1,0.7,2.1,1.4,3.3,2
		c1,0.6,2.1,1.2,3.4,1.9c1,0.6,2.2,1.2,3.4,1.8c2.1,1.1,4.4,2.2,7.1,3.3c1.6,0.7,3.7,1.5,6,2.2c31.5,23.3,55.4,57.5,64.9,95.4
		c7.2,27,7,56.4-1.6,83.1c5.1-23.5,4.6-49-2-73.9c-8.1-32.4-26.7-63.3-52.3-87c-26.3-24.4-57.9-39.9-91.1-44.6
		c-10.6-1.5-19.4-2.2-27.7-2.2c-6.1,0-11.8,0.4-17.3,1.2C-531.3-87.3-512.1-86.2-493.7-83.6z"/>
</symbol>
<use xlink:href="#New_Symbol"  width="1950.1" height="750.5" x="-975" y="-375.2" transform="matrix(1 0 0 -1 1735.6 395.9)" style="overflow:visible;"/>
</svg>
