<?xml version="1.0" encoding="utf-8"?>
<!-- Generator: Adobe Illustrator 28.2.0, SVG Export Plug-In . SVG Version: 6.00 Build 0)  -->
<svg version="1.1" id="Layer_1" xmlns="http://www.w3.org/2000/svg" xmlns:xlink="http://www.w3.org/1999/xlink" x="0px" y="0px"
	 viewBox="0 0 3471.2 791.8" style="enable-background:new 0 0 3471.2 791.8;" xml:space="preserve">
<g id="Text">
</g>
<g id="reg">
</g>
<g>
	<g>
		<g>
			<path d="M1013.9,286.2c12.6,0,24.2,0.9,34.7,2.6c10.5,1.8,19.6,5,27.3,9.6c7.6,4.7,13.6,11,17.8,19.1c4.2,8.1,6.4,18.5,6.4,31.3
				c0,12.8-2.1,23.3-6.4,31.3c-4.2,8.1-10.2,14.4-17.8,18.9c-7.7,4.5-16.7,7.6-27.3,9.3c-10.5,1.7-22.1,2.5-34.7,2.5h-35.7V493
				h-29.1V286.2H1013.9z M978.3,385.8h38.1c7.4,0,14.5-0.4,21.1-1.1c6.6-0.7,12.4-2.3,17.2-4.8c4.9-2.5,8.7-6.1,11.5-11
				c2.8-4.9,4.2-11.5,4.2-20c0-8.5-1.4-15.2-4.2-20.3c-2.8-5.1-6.6-8.9-11.5-11.5c-4.9-2.6-10.6-4.3-17.2-5.1
				c-6.6-0.8-13.6-1.2-21.1-1.2h-38.1V385.8z"/>
		</g>
		<g>
			<path d="M1211.1,368.4c-5.6-7-14.6-10.5-27-10.5c-9.3,0-16.9,2.1-22.8,6.4s-9.7,10.1-11.3,17.5l-25.1-7.4
				c4.1-11.8,11.5-20.9,22.2-27.4c10.6-6.5,22.9-9.8,36.7-9.8c21.3,0,36.7,5,46.4,14.9c9.6,9.9,14.5,25.7,14.7,47.4l0.3,36
				c0.2,13,0.8,24.1,1.7,33.3c0.9,9.2,2.1,17.4,3.6,24.7h-23.9l-6.2-21.1c-4.8,7.9-11.3,14-19.5,18.3c-8.3,4.3-19.2,6.5-32.9,6.5
				c-7.2,0-14.1-1-20.5-3c-6.4-2-12-4.8-16.9-8.7c-4.9-3.8-8.7-8.5-11.5-14c-2.8-5.5-4.2-11.7-4.2-18.7c0-9.1,2.5-16.8,7.4-22.9
				c5-6.2,11.9-11.3,20.9-15.4c9-4,19.9-7.2,32.7-9.6c12.8-2.4,27.1-4.5,42.8-6.4C1219.3,385.5,1216.7,375.4,1211.1,368.4z
				 M1151.8,469.6c5.3,4.4,12.6,6.7,21.9,6.7c6,0,11.8-0.8,17.5-2.3c5.7-1.6,10.7-4.1,15.2-7.7c4.4-3.6,8-8.5,10.7-14.6
				c2.7-6.1,4-13.7,4-22.8v-9.6c-11.8,1.2-22.4,2.6-31.9,4.2s-17.6,3.6-24.3,6c-6.7,2.5-11.9,5.5-15.5,9.1
				c-3.6,3.6-5.4,8.1-5.4,13.5C1143.8,459.3,1146.5,465.2,1151.8,469.6z"/>
		</g>
		<g>
			<path d="M1288,286.5h26v164c0,7.8,0.8,13.1,2.5,15.8c1.7,2.7,6.1,4,13.3,4h5.9v22.9h-11.5c-7.4,0-13.5-0.5-18.1-1.6
				c-4.6-1-8.3-2.9-11-5.7c-2.7-2.8-4.5-6.7-5.6-11.6c-1-5-1.5-11.5-1.5-19.5V286.5z"/>
		</g>
		<g>
			<path d="M1459.2,344.4c9.3,4.9,17,11.3,23.1,19.4c6.1,8.1,10.5,17.3,13.3,27.8c2.8,10.4,3.8,21.1,2.9,32.1h-118.4
				c0.4,9.7,2.2,17.8,5.4,24.3c3.2,6.5,7.1,11.7,11.8,15.5c4.7,3.8,9.7,6.6,15,8.2c5.4,1.7,10.4,2.5,15.2,2.5c8.7,0,16-1.3,21.9-4
				s10.6-6.4,14.1-11.2l25.1,7.4c-5.6,9.1-13.5,16.5-23.9,22.2c-10.3,5.7-22.7,8.5-37.2,8.5c-12,0-22.7-2.1-32.1-6.2
				c-9.4-4.1-17.3-9.8-23.7-17c-6.4-7.2-11.3-15.7-14.6-25.4c-3.3-9.7-5-20.2-5-31.6c0-12.2,1.9-23.2,5.7-33
				c3.8-9.8,9.1-18.2,15.8-25.1c6.7-6.9,14.6-12.3,23.7-16c9.1-3.7,18.9-5.6,29.5-5.6C1439.1,337.1,1449.9,339.5,1459.2,344.4z
				 M1467.8,386.8c-2.1-5.3-5-9.9-8.8-14c-3.8-4-8.4-7.3-13.8-9.8s-11.5-3.7-18.3-3.7c-5.8,0-11.4,0.8-16.7,2.5
				c-5.4,1.7-10.1,4.2-14.3,7.6c-4.1,3.4-7.6,7.9-10.4,13.3c-2.8,5.5-4.5,12.1-5.1,20h90.5C1470.9,397.4,1469.9,392.1,1467.8,386.8z
				"/>
		</g>
		<g>
			<path d="M1539.8,300.8h26v38.8h29.8v20.8h-29.8v90.2c0,3.9,0.1,7.2,0.3,9.8c0.2,2.6,0.9,4.6,2,6c1.1,1.5,2.7,2.5,4.8,3.1
				c2.1,0.6,5,0.9,8.7,0.9h14v22.9h-19.5c-7.4,0-13.5-0.5-18.1-1.6c-4.6-1-8.3-2.9-11-5.7c-2.7-2.8-4.5-6.7-5.6-11.6
				c-1-5-1.6-11.5-1.6-19.5v-94.6h-26v-20.8h26V300.8z"/>
		</g>
		<g>
			<path d="M1640.2,300.8h26v38.8h29.8v20.8h-29.8v90.2c0,3.9,0.1,7.2,0.3,9.8c0.2,2.6,0.9,4.6,2,6c1.1,1.5,2.7,2.5,4.8,3.1
				c2.1,0.6,5,0.9,8.7,0.9h14v22.9h-19.5c-7.4,0-13.5-0.5-18.1-1.6c-4.6-1-8.3-2.9-11-5.7c-2.7-2.8-4.5-6.7-5.6-11.6
				c-1-5-1.6-11.5-1.6-19.5v-94.6h-26v-20.8h26V300.8z"/>
		</g>
		<g>
			<path d="M1827.2,344.4c9.3,4.9,17,11.3,23.1,19.4c6.1,8.1,10.5,17.3,13.3,27.8c2.8,10.4,3.8,21.1,2.9,32.1h-118.4
				c0.4,9.7,2.2,17.8,5.4,24.3c3.2,6.5,7.1,11.7,11.8,15.5c4.7,3.8,9.7,6.6,15,8.2s10.4,2.5,15.2,2.5c8.7,0,16-1.3,21.9-4
				s10.6-6.4,14.1-11.2l25.1,7.4c-5.6,9.1-13.5,16.5-23.9,22.2c-10.3,5.7-22.7,8.5-37.2,8.5c-12,0-22.7-2.1-32.1-6.2
				c-9.4-4.1-17.3-9.8-23.7-17c-6.4-7.2-11.3-15.7-14.6-25.4c-3.3-9.7-5-20.2-5-31.6c0-12.2,1.9-23.2,5.7-33
				c3.8-9.8,9.1-18.2,15.8-25.1c6.7-6.9,14.6-12.3,23.7-16c9.1-3.7,18.9-5.6,29.5-5.6C1807.1,337.1,1817.9,339.5,1827.2,344.4z
				 M1835.9,386.8c-2.1-5.3-5-9.9-8.8-14c-3.8-4-8.4-7.3-13.8-9.8s-11.5-3.7-18.3-3.7c-5.8,0-11.4,0.8-16.7,2.5s-10.1,4.2-14.3,7.6
				c-4.1,3.4-7.6,7.9-10.4,13.3c-2.8,5.5-4.5,12.1-5.1,20h90.5C1839,397.4,1837.9,392.1,1835.9,386.8z"/>
		</g>
		<g>
			<path d="M1899.1,493.3V286.2h29.1v104.2l93.3-104.2h36.3l-79.1,86.5l88.1,120.6h-35.7l-71.9-99.2l-31,34.1v65.1H1899.1z"/>
		</g>
		<g>
			<path d="M2117.7,362.8c4.3-7.2,10.4-13.3,18.3-18.3c7.9-5,18.3-7.4,31.3-7.4c9.3,0,17.2,1.5,23.7,4.3s11.8,6.9,15.8,12.1
				c4,5.2,6.9,11.4,8.7,18.6c1.8,7.2,2.6,15.2,2.6,23.9v97.4h-26v-89.6c0-6-0.4-11.6-1.1-16.9c-0.7-5.3-2.3-10-4.6-14.1
				c-2.4-4.1-5.8-7.4-10.2-9.8c-4.4-2.4-10.4-3.6-17.8-3.6c-12.6,0-22.5,4.3-29.8,12.9c-7.2,8.6-10.9,21.1-10.9,37.7v83.4h-26V339.6
				h19.2L2117.7,362.8z"/>
		</g>
		<g>
			<path d="M2253.2,339.6h47.4v153.8h-26v-133h-21.4V339.6z M2273.9,277.2c3.7-3.7,8.3-5.6,13.6-5.6c5.4,0,10,1.9,13.8,5.6
				c3.8,3.7,5.7,8.3,5.7,13.6c0,5.4-1.9,10-5.7,13.8c-3.8,3.8-8.4,5.7-13.8,5.7c-5.4,0-9.9-1.9-13.6-5.7c-3.7-3.8-5.6-8.4-5.6-13.8
				C2268.4,285.5,2270.2,281,2273.9,277.2z"/>
		</g>
		<g>
			<path d="M2330.1,339.6h26v-22.9c0-7.9,0.5-14.5,1.6-19.8c1-5.4,3-9.7,6-13c3-3.3,7.2-5.7,12.6-7.1c5.4-1.4,12.4-2.2,21.1-2.2
				h16.7v22H2398c-6.6,0-10.9,1.3-12.9,4c-2,2.7-2.9,8-2.9,15.8v23.3h31.9v20.8h-31.9v133h-26v-133h-26V339.6z"/>
		</g>
		<g>
			<path d="M2534.1,344.4c9.3,4.9,17,11.3,23.1,19.4c6.1,8.1,10.5,17.3,13.3,27.8c2.8,10.4,3.8,21.1,2.9,32.1H2455
				c0.4,9.7,2.2,17.8,5.4,24.3c3.2,6.5,7.1,11.7,11.8,15.5c4.7,3.8,9.7,6.6,15,8.2c5.4,1.7,10.4,2.5,15.2,2.5c8.7,0,16-1.3,21.9-4
				s10.6-6.4,14.1-11.2l25.1,7.4c-5.6,9.1-13.5,16.5-23.9,22.2c-10.3,5.7-22.7,8.5-37.2,8.5c-12,0-22.7-2.1-32.1-6.2
				c-9.4-4.1-17.3-9.8-23.7-17c-6.4-7.2-11.3-15.7-14.6-25.4c-3.3-9.7-5-20.2-5-31.6c0-12.2,1.9-23.2,5.7-33
				c3.8-9.8,9.1-18.2,15.8-25.1c6.7-6.9,14.6-12.3,23.7-16c9.1-3.7,18.9-5.6,29.5-5.6C2514,337.1,2524.8,339.5,2534.1,344.4z
				 M2542.8,386.8c-2.1-5.3-5-9.9-8.8-14c-3.8-4-8.4-7.3-13.8-9.8s-11.5-3.7-18.3-3.7c-5.8,0-11.4,0.8-16.7,2.5
				c-5.4,1.7-10.1,4.2-14.3,7.6c-4.1,3.4-7.6,7.9-10.4,13.3c-2.8,5.5-4.5,12.1-5.1,20h90.5C2545.9,397.4,2544.8,392.1,2542.8,386.8z
				"/>
		</g>
	</g>
	<g>
		<path d="M2488.4,584H982.8c-103.1,0-186.9-83.8-186.9-186.9c0-103.1,83.8-186.9,186.9-186.9h1505.5
			c103.1,0,186.9,83.8,186.9,186.9C2675.3,500.1,2591.4,584,2488.4,584z M982.8,236c-88.8,0-161.1,72.3-161.1,161.1
			S894,558.1,982.8,558.1h1505.5c88.8,0,161.1-72.3,161.1-161.1S2577.2,236,2488.4,236H982.8z"/>
	</g>
</g>
</svg>
