<?xml version="1.0" encoding="utf-8"?>
<!-- Generator: Adobe Illustrator 28.2.0, SVG Export Plug-In . SVG Version: 6.00 Build 0)  -->
<svg version="1.1" id="Layer_1" xmlns="http://www.w3.org/2000/svg" xmlns:xlink="http://www.w3.org/1999/xlink" x="0px" y="0px"
	 viewBox="0 0 3471.2 791.8" style="enable-background:new 0 0 3471.2 791.8;" xml:space="preserve">
<style type="text/css">
	.st0{fill:#FFFFFF;}
	.st1{fill:#E31937;}
</style>
<g id="Text">
</g>
<g id="reg">
</g>
<path class="st0" d="M977,237.1c0,33.4-9.1,60.8-27.4,82c-18.3,21.2-43.3,33-75,35.4c-2.8,0-6.4,0.3-10.9,1v95.2h2.1
	c2.8,0,4.7-0.2,5.7-0.5h2.1c6.9,0,12.8,5.9,17.6,17.6l-24.8,95.2h-62.1V345.7l-10.3-17.1c-4.1-6.9-6.2-14.5-6.2-22.8
	c0-9.3,4.3-20.2,12.9-32.6c2.4-3.4,3.6-7.1,3.6-10.9c0-1,0.2-1.7,0.5-2.1c-1-0.3-2.9-0.7-5.7-1c-7.9,0-11.9-5.7-11.9-17.1v-90h166.5
	C969.3,178.4,977,206.7,977,237.1z M972.4,237.1c0-29-7.2-55.5-21.7-79.6H791.9v84.8c0,7.9,2.7,12,8,12.2c5.3,0.2,8.2,0.6,8.5,1.3
	h-0.5c0.7,0.7,1,2.9,1,6.7c0,4.5-1.6,9.1-4.7,14c-7.9,12.1-11.9,21.9-11.9,29.5c0,7.6,1.7,14.1,5.2,19.7l11.4,18.6v214.1h54.3
	l23.3-90c-4.1-8.6-8.5-12.9-12.9-12.9h-0.5c-1,0.3-3.4,0.5-7.2,0.5c-2.1,0-4.3-0.2-6.7-0.5V352.4c3.1-1.4,8.1-2.4,15-3.1
	c30-2.4,53.9-13.7,71.6-33.9C963.5,295.2,972.4,269.1,972.4,237.1z M908.7,276.9c0,7.2-3.8,13.4-11.4,18.6
	c-6.2,5.2-13.4,7.8-21.7,7.8c-1,0-2.8-3.3-5.2-9.8c-3.4-9-7.2-15.2-11.4-18.6v-20.2c2.8-1.4,6.5-2.1,11.4-2.1
	C896,252.6,908.7,260.7,908.7,276.9z M904.1,276.9c0-13.1-11.2-19.7-33.6-19.7c-1.7,0-4,0.3-6.7,1v14.5c4.5,4.5,8.3,10.9,11.4,19.1
	l-0.5-0.5c1.7,4.1,2.2,6.4,1.6,6.7c6.9,0,13.3-2.1,19.1-6.2C901.2,287.7,904.1,282.7,904.1,276.9z"/>
<path class="st0" d="M1138.9,498.8c0,15.5-1.4,29.7-4.1,42.4v-0.5c-4.8,23.1-14,34.7-27.4,34.7c-12.8,0-21.9-10.7-27.4-32.1
	c-3.8-15.2-5.7-28.3-5.7-39.3v-53.8l-0.5-36.7c0-1-4.4-5.6-13.2-13.7c-8.8-8.1-14.2-12.3-16.3-12.7c1.7,1,1.9,6.9,0.5,17.6
	c-5.9,43.8-8.8,67.8-8.8,71.9c0,0.7,0.3,1.4,1,2.1l-0.5-0.5c6.9,3.8,10.3,7.9,10.3,12.4L1022,565h-34.7l22.8-190.8
	c-2.4-1.4-8.8-2.1-19.1-2.1l-4.1-9.3l9.3-36.7c3.1-3.8,9-6.7,17.6-8.8l3.6-1c0,0.3-0.3,0.3-1,0c-4.8-4.1-7.2-8.3-7.2-12.4v-68.3
	h112.2v71.4c-2.4,3.1-6.6,6.2-12.4,9.3v61.5C1128.9,425.3,1138.9,465.7,1138.9,498.8z M1134.8,498.8c0-34.5-9.8-74.6-29.5-120.5
	v-62.6c0-1,0.8-1.9,2.3-2.6c1.6-0.7,4.9-3.1,10.1-7.2v-66.7h-105v64.6c0,2.8,1.7,5.5,5.2,8.3c2.1,1.7,3.1,3.1,3.1,4.1
	c0,2.8-2.2,4.5-6.7,5.2c-7.6,1.4-12.6,3.8-15,7.2l-8.3,33.1l2.6,6.2c11.4,0,18.1,1.7,20.2,5.2l-22.2,188.3h28.4l22.8-71.9
	c0-2.4-2.6-5-7.8-7.8h0.5c-2.1-1-3.1-2.8-3.1-5.2c0-7.2,2.8-31.5,8.3-72.9c1.4-8.6,2.6-15.5,3.6-20.7c2.4,0,8.5,4.5,18.4,13.4
	c9.8,9,14.7,14.7,14.7,17.1l0.5,36.7v53.3c0,12.8,1.9,25.5,5.7,38.3c5.5,19.7,13.4,29.5,23.8,29.5c11.4,0,19.3-10.5,23.8-31.5
	C1133.5,528.2,1134.8,514.6,1134.8,498.8z M1051,329.1c0-4.1,0.9-8,2.8-11.6c1.9-3.6,4-5.4,6.5-5.4c5.2,0,8.6,2.8,10.3,8.3
	c1.7,6.6,2.9,11.6,3.6,15v11.4C1058.7,337.4,1051,331.5,1051,329.1z M1055.1,329.1c0,1,5.2,4.5,15.5,10.3v-2.6
	c-1-6.2-2.1-11.4-3.1-15.5v0.5c-1-3.8-3.4-5.7-7.2-5.7C1056.8,316.2,1055.1,320.5,1055.1,329.1z M1112.5,493.1
	c0-18.3-2.8-30.5-8.3-36.7c-2.4,6.6-3.6,16.9-3.6,31c0,12.8,2.6,19.1,7.8,19.1C1111.1,506.5,1112.5,502,1112.5,493.1z M1108.4,493.1
	v9.3c-2.4,0-3.6-5-3.6-15c0-5.9,0.2-12.4,0.5-19.7C1107.3,473.6,1108.4,482,1108.4,493.1z"/>
<path class="st0" d="M1295.6,564.4h-142.2l10.3-139.6V322.4c-9-5.2-13.4-10.2-13.4-15V235h70.3v80.7c-3.8,3.8-9.5,6.6-17.1,8.3
	c0.3,0.3,0.5,0.7,0.5,1v112.7c0,25.2,1,43.6,3.1,55.3c3.8,22.8,10,34.1,18.6,34.1c10.7,0,16-15,16-45v-8.8c0-8.3-0.5-17.8-1.6-28.4
	c-1.4-21.4-2.1-31-2.1-29v-4.7c0-11,1.4-20.7,4.1-29c5.2-15.9,14-23.8,26.4-23.8c7.2,0,13.4,2.8,18.4,8.3c5,5.5,7.5,12.1,7.5,19.7
	c0,9.3-3.6,17.6-10.9,24.8c-4.8,4.8-7.2,8.6-7.2,11.4c0,6.2,3.8,33.3,11.4,81.2c2.4,13.1,5,28.1,7.8,45V564.4z M1157,560.8h135
	v-12.9c-2.1-6.9-4.8-21.4-8.3-43.4c-7.2-49-10.9-76.2-10.9-81.7c0-4.5,2.6-9.3,7.8-14.5c6.9-6.9,10.3-14.1,10.3-21.7
	c0-6.5-2.2-12.2-6.7-16.8c-4.5-4.7-9.7-7-15.5-7c-10.7,0-18.3,7.1-22.8,21.2c-2.8,7.9-4.1,17.1-4.1,27.4v4.1c0,1.4,0.7,11,2.1,29
	c1,14.5,1.6,24.1,1.6,29v8.8c0,32.8-6.6,49.1-19.7,49.1c-11,0-18.6-12.6-22.8-37.8c-1.7-11.7-2.6-30.3-2.6-55.9V325
	c0-2.8,0.2-4.3,0.5-4.7c7.2-1.4,12.6-3.4,16-6.2v-75h-63.1v68.3c0,3.5,4.7,7.8,14,12.9v105L1157,560.8z"/>
<path class="st0" d="M1451.8,565h-145.8l10.9-134.5V320.8h-9.8v-84.3H1444v19.7c-3.1,24.8-9.5,50.3-19.1,76.5c1,0,2.4,0.3,4.1,1
	c9.3,4.1,14,9.5,14,16c0,5.2-3.7,12.9-11.1,23.3c-7.4,10.3-13.5,15.5-18.4,15.5l-3.1-2.1c-4.8-2.8-8.5-4.1-10.9-4.1
	c-0.7,2.4-2.6,9.7-5.7,21.7v-0.5c-4.1,14.8-6.2,25.5-6.2,32.1c0,4.1,1.7,8.7,5.2,13.7c3.4,5,5.2,9.9,5.2,14.7
	c0,15.2-6.4,22.8-19.1,22.8c-10,0-16.9-5.9-20.7-17.6c0.3,10.3,2.6,21.9,6.7,34.7c4.8,15.9,10.2,23.8,16,23.8
	c5.9,0,10.5-5.9,14-17.6c3.4-10.7,5.2-21.5,5.2-32.6c0-5.2-0.4-12.6-1.3-22.2c-0.9-9.6-1.3-16.9-1.3-21.7c0-23.8,8.1-35.7,24.3-35.7
	c6.9,0,12.8,2.3,17.6,7c4.8,4.7,7.2,10.6,7.2,17.8c0,6.2-1.9,11.7-5.7,16.5c-2.4,2.8-5,6.2-7.8,10.3L1451.8,565z M1310.1,561.3
	h137.1L1429,448.6c0.7-1.4,3.6-5.3,8.8-11.9c3.4-3.8,5.2-8.4,5.2-14c0-5.9-2.1-10.8-6.2-14.7c-4.1-4-9.1-5.9-15-5.9
	c-13.8,0-20.7,10.5-20.7,31.5c0,5.9,0.5,14.1,1.6,24.8c0.7,5.5,1,11.9,1,19.1c0,10.3-1.9,21.6-5.7,33.6h0.5
	c-4.1,13.4-10,20.2-17.6,20.2c-7.9,0-14.7-8.6-20.2-25.9c-4.1-13.8-6.2-27.9-6.2-42.4c0-27.6,4-49.3,11.9-65.2
	c0.3-1,1.7-3.3,4.1-6.7c-7.9,26.6-11.9,44.3-11.9,53.3c0,25.5,6.7,38.3,20.2,38.3c10,0,15-6.2,15-18.6c0-4.5-1.2-8.4-3.6-11.9
	c-4.1-6.5-6.2-12.1-6.2-16.5c0-5.9,2.1-16.8,6.2-32.8c4.1-16,7.2-24,9.3-24c4.5,0,8.8,1.4,12.9,4.1l2.1,1.6c3.4,0,8.4-4.8,15-14.5
	c6.5-9.6,9.8-16.4,9.8-20.2c0-5.2-4.1-9.3-12.4-12.4l-6.2-2.6c8.6-22.8,15.3-49,20.2-78.6v-15.5h-130.3v76c4.5,0,7.2-0.2,8.3-0.5
	l1.6,1V431L1310.1,561.3z M1391.8,323.9c0,5.2-4.8,11.9-14.5,20.2c-7.2,5.5-14.5,11-21.7,16.6v-42.4l0.5-0.5h31
	C1390.2,317.7,1391.8,319.8,1391.8,323.9z M1387.7,323.9c0-1.4-0.2-2.1-0.5-2.1h-27.9v31c3.1-2.4,8.3-6.4,15.5-11.9
	C1383.3,333.8,1387.7,328.1,1387.7,323.9z"/>
<path class="st0" d="M1616.8,357.6h-31c0-23.4-4.5-35.2-13.4-35.2c-2.4,0-4.7,1.6-7,4.7c-2.2,3.1-3.4,6.4-3.4,9.8v143.3h14.5v16
	l-16,69.3h-41.9V337.4c0-3.8-1.4-7.2-4.1-10.3c-2.8-3.1-5.7-4.7-8.8-4.7c-8.6,0-12.9,11.7-12.9,35.2h-30.5V236h154.6V357.6z
	 M1589.4,353.4h23.8V240.2h-147.4v113.3h23.3c0-23.4,5.5-35.2,16.5-35.2c4.5,0,8.4,2,11.9,5.9c3.4,4,5.2,8.4,5.2,13.2v223.9h35.2
	l14.5-65.2v-11.9h-14V336.9c0-4.5,1.5-8.7,4.4-12.7c2.9-4,6.1-5.9,9.6-5.9C1583.7,318.3,1589.4,330,1589.4,353.4z"/>
<path class="st0" d="M1780.7,357.6h-31c0-23.4-4.5-35.2-13.4-35.2c-2.4,0-4.7,1.6-7,4.7c-2.2,3.1-3.4,6.4-3.4,9.8v143.3h14.5v16
	l-16,69.3h-41.9V337.4c0-3.8-1.4-7.2-4.1-10.3c-2.8-3.1-5.7-4.7-8.8-4.7c-8.6,0-12.9,11.7-12.9,35.2h-30.5V236h154.6V357.6z
	 M1753.3,353.4h23.8V240.2h-147.4v113.3h23.3c0-23.4,5.5-35.2,16.5-35.2c4.5,0,8.4,2,11.9,5.9c3.4,4,5.2,8.4,5.2,13.2v223.9h35.2
	l14.5-65.2v-11.9h-14V336.9c0-4.5,1.5-8.7,4.4-12.7c2.9-4,6.1-5.9,9.6-5.9C1747.6,318.3,1753.3,330,1753.3,353.4z"/>
<path class="st0" d="M1937.4,565h-145.8l10.9-134.5V320.8h-9.8v-84.3h137.1v19.7c-3.1,24.8-9.5,50.3-19.1,76.5c1,0,2.4,0.3,4.1,1
	c9.3,4.1,14,9.5,14,16c0,5.2-3.7,12.9-11.1,23.3c-7.4,10.3-13.5,15.5-18.4,15.5l-3.1-2.1c-4.8-2.8-8.5-4.1-10.9-4.1
	c-0.7,2.4-2.6,9.7-5.7,21.7v-0.5c-4.1,14.8-6.2,25.5-6.2,32.1c0,4.1,1.7,8.7,5.2,13.7c3.4,5,5.2,9.9,5.2,14.7
	c0,15.2-6.4,22.8-19.1,22.8c-10,0-16.9-5.9-20.7-17.6c0.3,10.3,2.6,21.9,6.7,34.7c4.8,15.9,10.2,23.8,16,23.8
	c5.9,0,10.5-5.9,14-17.6c3.4-10.7,5.2-21.5,5.2-32.6c0-5.2-0.4-12.6-1.3-22.2c-0.9-9.6-1.3-16.9-1.3-21.7c0-23.8,8.1-35.7,24.3-35.7
	c6.9,0,12.8,2.3,17.6,7c4.8,4.7,7.2,10.6,7.2,17.8c0,6.2-1.9,11.7-5.7,16.5c-2.4,2.8-5,6.2-7.8,10.3L1937.4,565z M1795.7,561.3
	h137.1l-18.1-112.7c0.7-1.4,3.6-5.3,8.8-11.9c3.4-3.8,5.2-8.4,5.2-14c0-5.9-2.1-10.8-6.2-14.7c-4.1-4-9.1-5.9-15-5.9
	c-13.8,0-20.7,10.5-20.7,31.5c0,5.9,0.5,14.1,1.6,24.8c0.7,5.5,1,11.9,1,19.1c0,10.3-1.9,21.6-5.7,33.6h0.5
	c-4.1,13.4-10,20.2-17.6,20.2c-7.9,0-14.7-8.6-20.2-25.9c-4.1-13.8-6.2-27.9-6.2-42.4c0-27.6,4-49.3,11.9-65.2
	c0.3-1,1.7-3.3,4.1-6.7c-7.9,26.6-11.9,44.3-11.9,53.3c0,25.5,6.7,38.3,20.2,38.3c10,0,15-6.2,15-18.6c0-4.5-1.2-8.4-3.6-11.9
	c-4.1-6.5-6.2-12.1-6.2-16.5c0-5.9,2.1-16.8,6.2-32.8c4.1-16,7.2-24,9.3-24c4.5,0,8.8,1.4,12.9,4.1l2.1,1.6c3.4,0,8.4-4.8,15-14.5
	c6.5-9.6,9.8-16.4,9.8-20.2c0-5.2-4.1-9.3-12.4-12.4l-6.2-2.6c8.6-22.8,15.3-49,20.2-78.6v-15.5h-130.3v76c4.5,0,7.2-0.2,8.3-0.5
	l1.6,1V431L1795.7,561.3z M1877.4,323.9c0,5.2-4.8,11.9-14.5,20.2c-7.2,5.5-14.5,11-21.7,16.6v-42.4l0.5-0.5h31
	C1875.9,317.7,1877.4,319.8,1877.4,323.9z M1873.3,323.9c0-1.4-0.2-2.1-0.5-2.1h-27.9v31c3.1-2.4,8.3-6.4,15.5-11.9
	C1869,333.8,1873.3,328.1,1873.3,323.9z"/>
<path class="st0" d="M2140.7,474.4l-15,91h-56.9v-93.6c0-3.1-0.5-5.7-1.6-7.8c-2.1-6.2-6.4-17.9-12.9-35.2
	c-8.3-20.7-12.9-32.8-14-36.2l-9.3,4.7c-5.9,2.8-9,3.5-9.3,2.1v62.1h20.2v21.8l-15.5,82.1h-59V405.8c-2.4-2.4-4.7-6-6.7-10.9
	c-5.2-12.1-7.8-21.1-7.8-27c0-13.1,4.1-23.5,12.4-31.1v0.5c1.7-1.7,2.6-2.4,2.6-2.1v-67.2h-7.2c-6.9-2.4-10.3-7.8-10.3-16V151.2
	h87.9V251c0,9.3-4.5,15-13.4,17.1c0.7,0,0,0.2-2.1,0.5V342c0,0.7-0.2,2.2-0.5,4.7c1.7,0,4.8-3.3,9.3-9.8c2.8-4.1,7.8-13.4,15-27.9
	c2.1-4.5,6.2-12.9,12.4-25.3c2.8-6.2,4.5-11.5,5.2-16c-5.2-2.1-9.7-4.1-13.4-6.2V151.2h84.8v112.7c-8.3,4.8-14,10.7-17.1,17.6
	c-1,2.1-2.8,6.7-5.2,14c-0.3,2.4-1.4,6-3.1,10.9c-6.9,15.2-13.8,28.1-20.7,38.8c-1.4,2.8-3.4,5.9-6.2,9.3c1.4,3.5,3.4,8.4,5.9,14.7
	c2.6,6.4,6.8,17,12.7,31.8l6.2,16c2.1,5.9,5.7,15.9,10.9,30c1.7,4.8,4,11.2,6.7,19.1c0-2.1-0.3-4.3-1-6.7h0.5
	C2134.5,461.5,2139.6,466.5,2140.7,474.4z M2121.5,560.3l14-85.3c-0.3-5.2-4.1-8.6-11.4-10.3c-0.3,0-0.9-0.2-1.6-0.5
	c-0.7,0.3-1.2,1.2-1.6,2.6c-1-2.8-3.3-8.8-6.7-18.1c-2.8-7.6-6.4-17.4-10.9-29.5l-18.1-47.1c-3.1-8.3-5.5-14.3-7.2-18.1
	c2.4-3.8,5-7.6,7.8-11.4c6.9-11.7,13.4-24.3,19.7-37.8c0.7-2.8,1.7-6.2,3.1-10.3c1.4-4.1,3.3-9.1,5.7-15c3.4-8.3,8.8-14.7,16-19.1
	v-104h-75v101.9c2.4,0.7,6.7,2.4,12.9,5.2h-0.5c0.7,0.7,1,1.7,1,3.1c0,4.8-1.9,11.4-5.7,19.7c-1.4,3.5-5.5,11.7-12.4,24.8
	c-4.1,8.3-9.1,17.8-15,28.4c-5.2,8.3-9.7,12.4-13.4,12.4c-0.3,0-1.1-1.4-2.3-4.1c-1.2-2.8-1.8-4.7-1.8-5.7v-77.6
	c0.7-0.3,2.6-0.9,5.7-1.6c6.5-1.4,9.8-5.3,9.8-11.9v-94.6H1955v95.7c0,5.5,2.4,9.1,7.2,10.9h5.7c2.1,0,3.6,0.3,4.7,1v71.4
	c0,0.7-1.2,2.6-3.6,5.7c-7.6,6.6-11.4,15.5-11.4,26.9c0,5.9,2.4,14.1,7.2,24.8c2.4,5.5,4.8,9.5,7.2,11.9v155.7h49.7l15.5-78.1v-15.5
	h-20.2v-68.3c1.7,0,5.7-1.7,11.9-5.2l11.9-6.7c2.1,2.8,7.9,16.2,17.6,40.3c4.5,11,9,22.9,13.4,35.7c0.7,2.4,1.2,5.4,1.6,8.8v89
	H2121.5z"/>
<path class="st0" d="M2307.2,502.4c0,17.6-1.6,32.1-4.7,43.4c-5.9,22.8-16,34.1-30.5,34.1c-11.7,0-20.3-10.7-25.9-32.1
	c-3.1-12.8-4.7-25.9-4.7-39.3c0-13.8,2.9-43.6,8.8-89.5c-1.4-3.8-6.6-13-15.8-27.7c-9.1-14.7-18.4-28-27.7-40.1v127.2l6.2,0.5
	c8.3,1.4,12.4,6,12.4,14c-1.7,3.8-4,9.7-6.7,17.6c-2.8,9.3-6.7,27.2-11.9,53.8h-42.9V329.1l-0.5-0.5c-6.9-3.1-10.3-7.8-10.3-14
	v-81.2h67.8v35.7c0,18.3,4.7,36.7,14,55.3c3.4,6.9,10.7,17.1,21.7,30.5v-1.6c0-23.4-1.6-40.9-4.7-52.2v0.5l-10.9-29
	c0-5.5,5-14,15-25.3c4.5-5.5,10.3-12.4,17.6-20.7c9,8.6,15.3,16.2,19.1,22.8c9,15.5,13.4,35,13.4,58.4c0,17.6-1.9,35.5-5.7,53.8
	c-2.4,11-6,27.6-10.9,49.7C2301.3,435.5,2307.2,465.8,2307.2,502.4z M2303.6,502.4c0-35.9-5.9-66-17.6-90.5
	c2.4-11.4,6-28.3,10.9-50.7c3.8-18.6,5.7-36.4,5.7-53.3c0-23.1-4.3-41.9-12.9-56.4c-3.1-5.5-8.5-11.9-16-19.1l-15,17.6
	c-9.3,11.4-14,18.8-14,22.2l10.3,27.4c3.4,11.7,5.2,29.7,5.2,53.8c0,4.1-0.5,7.8-1.6,10.9c-12.4-15.5-21.4-28.3-26.9-38.3
	c-9.7-18.3-14.5-37.2-14.5-56.9v-31.5h-60v77.1c0,4.1,2.4,7.4,7.2,9.8l3.1,2.1v234.3h35.7c2.8-16.9,6.7-34,11.9-51.2
	c2.8-7.6,4.8-13.4,6.2-17.6c0-5.5-2.8-8.6-8.3-9.3l-9.8-0.5V340.5c10.7,12.8,22.2,29,34.7,48.6c9.3,14.8,14.8,24.8,16.5,30
	c-6.2,46.2-9.3,76-9.3,89.5c0,13.1,1.6,25.9,4.7,38.3c4.8,19.7,12.2,29.5,22.2,29.5c12.4,0,21.4-10.3,26.9-31
	C2302,533.6,2303.6,519.3,2303.6,502.4z M2281.9,487.9c0-15.2-2.2-24.8-6.7-29c0,1.4-0.5,6.2-1.6,14.5l-1,14.5l3.1,16.6h3.6
	C2281,498.9,2281.9,493.4,2281.9,487.9z M2278.2,487.9c0,2.1-0.3,4.5-1,7.2c-0.7-3.8-1-6-1-6.7l1-14.5
	C2277.9,479.5,2278.2,484.1,2278.2,487.9z"/>
<path class="st0" d="M2384.3,303.3c0,4.8-3.6,9.1-10.9,12.9c-2.4,1.4-3.6,1.9-3.6,1.6V477c8.3,1.7,12.4,6,12.4,12.9
	c-1,2.4-1.6,4-1.6,4.7c-1,3.8-2.6,10.2-4.7,19.1c-2.1,11.4-4.8,27.9-8.3,49.7h-39.3V316.7c-0.3-0.3-1.4-0.9-3.1-1.6
	c-4.8-2.1-7.2-6.4-7.2-12.9v-68.8h66.2V303.3z M2380.6,303.3v-65.7h-59v64.6c0,4.1,3.4,8.1,10.3,11.9v245.7h32.6
	c0.7-4.5,3.6-20.2,8.8-47.1c1-5.2,2.4-11.5,4.1-19.1c0.3-2.4,0.7-4.1,1-5.2c0-4.8-4-7.8-11.9-8.8V317.2c0-1,1.7-2.4,5.2-4.1
	C2377.7,309.3,2380.6,306,2380.6,303.3z"/>
<path class="st0" d="M2539.4,252.1l-0.5,2.1l-1.6,6.2c-2.1,21.4-6.4,41.2-12.9,59.5c-2.4,7.2-4.3,11.7-5.7,13.4c0.7-0.3,1.9,0,3.6,1
	c8.6,4.1,12.9,9.8,12.9,17.1c-13.1,24.1-22.2,36.2-27.4,36.2c-2.8,0-6.2-1-10.3-3.1c-1.7-0.3-3.3-1-4.7-2.1c-1,0-3.5,7-7.5,20.9
	c-4,14-5.9,24.9-5.9,32.8c0,2.8,1.2,6.9,3.6,12.4c3.8,7.6,5.7,12.6,5.7,15c0,16.2-6.6,24.3-19.7,24.3h-0.5
	c-1.7,5.2-3.8,11.7-6.2,19.7c-2.1,6.9-3.6,12.2-4.7,16c-6.6,22.1-12.1,35.3-16.6,39.8h-45.5l12.4-124.1l0.5-119h-10.9v-83.8h141.7
	V252.1z M2535.3,253.1v-1v-11.4h-134v75.5h8.8c0.7,0,1.4,0.2,2.1,0.5l-0.5,123.1l-11.9,120h40.3c2.8-3.8,7.4-16.2,14-37.2
	c1.4-3.8,2.9-9.1,4.7-16c1.7-4.5,3.8-10.7,6.2-18.6c-2.8-0.7-5-1.6-6.7-2.6c-9-4.1-13.4-11-13.4-20.7c0-21,3.4-40.9,10.3-59.5
	c3.4-9,6.7-15.2,9.8-18.6l-8.3,22.2c-5.5,15.2-8.3,28.4-8.3,39.8c0,6.9,1.4,13.8,4.1,20.7c4.1,9.7,9.6,14.5,16.5,14.5
	c10.7,0,16-6.7,16-20.2c0-2.4-1.9-6.7-5.7-12.9c-2.4-6.2-3.6-11-3.6-14.5c0-6.5,1.9-17.2,5.7-32.1c4.1-16.9,7.9-25.3,11.4-25.3
	c8.6,3.1,13.6,4.7,15,4.7c3.8,0,11.5-11,23.3-33.1c0-4.8-3.5-9-10.3-12.4c-4.1-2.4-6.2-3.4-6.2-3.1c0-1.4,2.1-6.9,6.2-16.6
	c6.2-16.6,10.5-35.9,12.9-57.9C2534.4,256.2,2534.9,253.8,2535.3,253.1z M2484.1,323.4c0,4.8-1.2,8.6-3.6,11.4
	c-1,1.4-4.2,4.1-9.6,8.3c-5.3,4.1-12.7,9.7-22,16.6v-41.4h0.5h30.5C2482.7,318.3,2484.1,320,2484.1,323.4z M2450,471.9
	c0.3,1,0.7,2.1,1,3.1C2450.6,473.9,2450.3,472.9,2450,471.9z M2480.5,323.4c0-0.7-0.2-1-0.5-1h-27.4v29.5
	c8.3-5.9,16.5-12.2,24.8-19.1C2479.4,331,2480.5,327.9,2480.5,323.4z"/>
<path class="st0" d="M2694.6,565h-145.8l10.9-134.5V320.8h-9.8v-84.3h137.1v19.7c-3.1,24.8-9.5,50.3-19.1,76.5c1,0,2.4,0.3,4.1,1
	c9.3,4.1,14,9.5,14,16c0,5.2-3.7,12.9-11.1,23.3c-7.4,10.3-13.5,15.5-18.4,15.5l-3.1-2.1c-4.8-2.8-8.5-4.1-10.9-4.1
	c-0.7,2.4-2.6,9.7-5.7,21.7v-0.5c-4.1,14.8-6.2,25.5-6.2,32.1c0,4.1,1.7,8.7,5.2,13.7c3.4,5,5.2,9.9,5.2,14.7
	c0,15.2-6.4,22.8-19.1,22.8c-10,0-16.9-5.9-20.7-17.6c0.3,10.3,2.6,21.9,6.7,34.7c4.8,15.9,10.2,23.8,16,23.8
	c5.9,0,10.5-5.9,14-17.6c3.4-10.7,5.2-21.5,5.2-32.6c0-5.2-0.4-12.6-1.3-22.2c-0.9-9.6-1.3-16.9-1.3-21.7c0-23.8,8.1-35.7,24.3-35.7
	c6.9,0,12.8,2.3,17.6,7c4.8,4.7,7.2,10.6,7.2,17.8c0,6.2-1.9,11.7-5.7,16.5c-2.4,2.8-5,6.2-7.8,10.3L2694.6,565z M2552.9,561.3
	h137.1l-18.1-112.7c0.7-1.4,3.6-5.3,8.8-11.9c3.4-3.8,5.2-8.4,5.2-14c0-5.9-2.1-10.8-6.2-14.7c-4.1-4-9.1-5.9-15-5.9
	c-13.8,0-20.7,10.5-20.7,31.5c0,5.9,0.5,14.1,1.6,24.8c0.7,5.5,1,11.9,1,19.1c0,10.3-1.9,21.6-5.7,33.6h0.5
	c-4.1,13.4-10,20.2-17.6,20.2c-7.9,0-14.7-8.6-20.2-25.9c-4.1-13.8-6.2-27.9-6.2-42.4c0-27.6,4-49.3,11.9-65.2
	c0.3-1,1.7-3.3,4.1-6.7c-7.9,26.6-11.9,44.3-11.9,53.3c0,25.5,6.7,38.3,20.2,38.3c10,0,15-6.2,15-18.6c0-4.5-1.2-8.4-3.6-11.9
	c-4.1-6.5-6.2-12.1-6.2-16.5c0-5.9,2.1-16.8,6.2-32.8c4.1-16,7.2-24,9.3-24c4.5,0,8.8,1.4,12.9,4.1l2.1,1.6c3.4,0,8.4-4.8,15-14.5
	c6.5-9.6,9.8-16.4,9.8-20.2c0-5.2-4.1-9.3-12.4-12.4l-6.2-2.6c8.6-22.8,15.3-49,20.2-78.6v-15.5h-130.3v76c4.5,0,7.2-0.2,8.3-0.5
	l1.6,1V431L2552.9,561.3z M2634.6,323.9c0,5.2-4.8,11.9-14.5,20.2c-7.2,5.5-14.5,11-21.7,16.6v-42.4l0.5-0.5h31
	C2633,317.7,2634.6,319.8,2634.6,323.9z M2630.4,323.9c0-1.4-0.2-2.1-0.5-2.1H2602v31c3.1-2.4,8.3-6.4,15.5-11.9
	C2626.1,333.8,2630.4,328.1,2630.4,323.9z"/>
<path class="st1" d="M948.6,162.1H796.5v80.2c0,4.8,1,7.2,3.1,7.2c5.2,0.3,8.8,1,10.9,2.1c2.1,1,3.1,4.7,3.1,10.9
	c0,5.5-1.9,11.2-5.7,17.1c-7.2,11-10.9,19.8-10.9,26.4c0,6.6,1.6,12.4,4.7,17.6l11.9,19.7v210h45.5l22.2-84.8
	c-2.8-5.5-5.3-8.3-7.8-8.3h-0.5c-1,0.3-3.4,0.5-7.2,0.5c-1.7,0-5.5-0.5-11.4-1.6V349.3c3.4-2.4,10-4,19.7-4.7
	c28.6-1.7,51.4-12.4,68.3-32.1c16.9-19.7,25.3-44.8,25.3-75.5C967.7,208.4,961.3,183.4,948.6,162.1z M901.5,299.1
	c-7.9,5.9-16.5,8.8-25.9,8.8c-2.4,0-5.6-4.4-9.6-13.2c-4-8.8-7.8-14.6-11.6-17.3v-25.3c4.8-3.1,10.2-4.7,16-4.7
	c28.6,0,42.9,9.8,42.9,29.5C913.4,285.8,909.4,293.3,901.5,299.1z"/>
<g>
	<path class="st1" d="M1101.7,315.7c0-2.8,1.4-5,4.1-6.7c4.5-2.8,7.2-4.5,8.3-5.2v-60.5h-97.7v60.5c0,1.4,1.4,3.2,4.1,5.4
		c2.8,2.2,4.1,4.6,4.1,7c0,4.5-3.3,7.4-9.8,8.8c-6.6,1.4-10.5,3.1-11.9,5.2l-7.8,31.5l0.5,2.1c12.4,0,19.8,2.8,22.2,8.3l-22.2,185.2
		h21.7l21.7-67.8c0-0.7-0.9-1.6-2.6-2.6c-5.5-3.1-8.3-6.5-8.3-10.3c0-7.6,2.9-32.1,8.8-73.4c2.4-15.9,4.8-23.8,7.2-23.8
		c3.8,0,10.9,4.7,21.2,14s15.5,16,15.5,20.2l1,36.7v53.3c0,11.4,1.7,23.8,5.2,37.2c4.8,17.9,11.5,26.9,20.2,26.9
		c9.3,0,16-9.5,20.2-28.4c2.4-11.7,3.6-25.2,3.6-40.3c0-34.1-9.8-74.1-29.5-120V315.7z M1077.9,351.4l-2.1,0.5
		c-19-11.4-28.4-19-28.4-22.8c0-5.2,1.3-10,3.9-14.5c2.6-4.5,5.6-6.7,9.1-6.7c7.6,0,12.2,3.8,14,11.4c1.4,5.2,2.6,10.3,3.6,15.5
		V351.4z"/>
	<path class="st1" d="M1287.8,386.5c0-5.5-1.9-10.3-5.7-14.2c-3.8-4-8.3-5.9-13.4-5.9c-9.3,0-15.9,6.4-19.7,19.1
		c-3.1,9-4.3,19-3.6,30c0.3,4.1,1,13.5,2.1,28.2c1,14.7,1.6,24.6,1.6,29.7v8.8c0,35.5-7.8,53.3-23.3,53.3
		c-12.8,0-21.6-13.8-26.4-41.4c-1.7-11.4-2.6-30.2-2.6-56.4V325c0-4.8,1.2-7.8,3.6-8.8c6.5-1.4,10.9-2.8,12.9-4.1v-69.3h-55.9v64.6
		c0,2.8,4.7,6.2,14,10.3v108.1l-10.3,130.9h126.7v-7.2c-2.4-12.1-5-26.9-7.8-44.5c-7.2-49-10.9-76.4-10.9-82.2
		c0-5.2,3.1-11,9.3-17.6C1284.7,398.6,1287.8,392.4,1287.8,386.5z"/>
	<path class="st1" d="M1435.2,434.1c2.8-3.1,4.1-6.9,4.1-11.4c0-4.8-1.7-8.9-5.2-12.2c-3.4-3.3-7.6-4.9-12.4-4.9
		c-11.4,0-17.1,9.3-17.1,27.9c0,5.2,0.5,13.3,1.6,24.3c0.7,5.5,1,12.1,1,19.7c0,11-1.7,22.6-5.2,34.7c-4.8,15.5-11.9,23.3-21.2,23.3
		c-9.3,0-17.1-9.6-23.3-29c-4.8-14.1-7.2-28.6-7.2-43.4c0-27.6,4.1-49.8,12.4-66.7c2.8-5.9,6.9-11.2,12.4-16l2.1,0.5
		c-10,32.8-15,54-15,63.6c0,23.1,5.5,34.7,16.6,34.7c7.9,0,11.9-5,11.9-15c0-3.4-1.2-6.5-3.6-9.3c-4.5-7.6-6.7-14-6.7-19.1
		c0-6.9,2.1-18.3,6.2-34.1c4.8-17.9,9.1-26.9,12.9-26.9c2.8,0,8.1,1.9,16,5.7c1.4,0,5-4.6,10.9-13.7c5.9-9.1,8.8-14.7,8.8-16.8
		c0-2.8-3.1-5.8-9.3-9.1c-6.2-3.3-9.3-5.1-9.3-5.4c9-23.8,15.9-50.5,20.7-80.2v-10.9h-123.1v68.8c1.7,0,3.1-0.2,4.1-0.5
		c2.1,0,4,0.9,5.7,2.6v116.4l-9.8,125.7h128.3l-17.1-108.6C1426.1,446.2,1429.4,441.3,1435.2,434.1z M1352,318.3
		c0-1,0.9-2.4,2.6-4.1h32.6c5.5,0,8.3,3.3,8.3,9.8c0,7.6-5.3,15.3-16,23.3c-13.4,10-22.4,16.7-26.9,20.2l-0.5-3.6V318.3z"/>
	<path class="st1" d="M1469.4,349.3h16c0-23.4,6.7-35.2,20.2-35.2c5.2,0,9.9,2.4,14.2,7.2c4.3,4.8,6.5,10.2,6.5,16v220.3h28.4
		l14-62.1v-7.8h-14v-151c0-5.5,1.9-10.7,5.7-15.5c3.8-4.8,7.8-7.2,11.9-7.2c6.9,0,12.4,4.5,16.6,13.4c2.8,6.6,4.1,13.8,4.1,21.7
		h16.6V243.8h-140.2V349.3z"/>
	<path class="st1" d="M1633.3,349.3h16c0-23.4,6.7-35.2,20.2-35.2c5.2,0,9.9,2.4,14.2,7.2c4.3,4.8,6.5,10.2,6.5,16v220.3h28.4
		l14-62.1v-7.8h-14v-151c0-5.5,1.9-10.7,5.7-15.5c3.8-4.8,7.8-7.2,11.9-7.2c6.9,0,12.4,4.5,16.6,13.4c2.8,6.6,4.1,13.8,4.1,21.7
		h16.6V243.8h-140.2V349.3z"/>
	<path class="st1" d="M1920.9,434.1c2.8-3.1,4.1-6.9,4.1-11.4c0-4.8-1.7-8.9-5.2-12.2c-3.4-3.3-7.6-4.9-12.4-4.9
		c-11.4,0-17.1,9.3-17.1,27.9c0,5.2,0.5,13.3,1.6,24.3c0.7,5.5,1,12.1,1,19.7c0,11-1.7,22.6-5.2,34.7c-4.8,15.5-11.9,23.3-21.2,23.3
		c-9.3,0-17.1-9.6-23.3-29c-4.8-14.1-7.2-28.6-7.2-43.4c0-27.6,4.1-49.8,12.4-66.7c2.8-5.9,6.9-11.2,12.4-16l2.1,0.5
		c-10,32.8-15,54-15,63.6c0,23.1,5.5,34.7,16.6,34.7c7.9,0,11.9-5,11.9-15c0-3.4-1.2-6.5-3.6-9.3c-4.5-7.6-6.7-14-6.7-19.1
		c0-6.9,2.1-18.3,6.2-34.1c4.8-17.9,9.1-26.9,12.9-26.9c2.8,0,8.1,1.9,16,5.7c1.4,0,5-4.6,10.9-13.7c5.9-9.1,8.8-14.7,8.8-16.8
		c0-2.8-3.1-5.8-9.3-9.1c-6.2-3.3-9.3-5.1-9.3-5.4c9-23.8,15.9-50.5,20.7-80.2v-10.9h-123.1v68.8c1.7,0,3.1-0.2,4.1-0.5
		c2.1,0,4,0.9,5.7,2.6v116.4l-9.8,125.7h128.3L1911,448.6C1911.7,446.2,1915,441.3,1920.9,434.1z M1837.6,318.3c0-1,0.9-2.4,2.6-4.1
		h32.6c5.5,0,8.3,3.3,8.3,9.8c0,7.6-5.3,15.3-16,23.3c-13.4,10-22.4,16.7-26.9,20.2l-0.5-3.6V318.3z"/>
	<path class="st1" d="M2123.6,471.9c-4.8-1.4-7.2-2.9-7.2-4.7c-10.3-27.6-16-43.1-17.1-46.5l-6.2-15.5c-11.4-29-17.9-46.4-19.7-52.2
		c4.8-7.6,7.8-12.1,8.8-13.4c4.1-6.2,10.5-18.4,19.1-36.7l8.8-25.3c3.4-9.6,8.6-16.2,15.5-19.7V161H2060v94.1
		c2.8,1.4,5.7,2.6,8.8,3.6c3.1,1,4.7,3.6,4.7,7.8c0,5.5-2.1,12.8-6.2,21.7c-5.9,12.8-10,21-12.4,24.8c-6.9,14.5-11.9,24.3-15,29.5
		c-5.9,9.3-11.7,14-17.6,14c-1.4,0-3.2-1.9-5.4-5.7c-2.2-3.8-3.4-6.7-3.4-8.8v-80.7c3.8-1.7,6.9-2.8,9.3-3.1c4.1-1,6.2-3.4,6.2-7.2
		v-90h-69.3v91c0,3.5,0.9,5.5,2.6,6.2h5.7c3.8,0,6.9,1,9.3,3.1v74c0,2.4-1.7,5.3-5.2,8.8c-6.6,6.6-9.8,14.5-9.8,23.8
		c0,5.2,2.2,12.8,6.7,22.8c3.1,7.2,5.3,10.9,6.7,10.9c0.7-0.3,1-1.4,1-3.1v156.7h41.4l14.5-74v-9.8h-20.2v-72.9
		c0-1.4,4.8-4.7,14.5-9.8l14-7.2c2.8,0,10,14.7,21.7,44c5.2,13.4,9.6,25.3,13.4,35.7c1.4,3.8,2.1,7.1,2.1,9.8v84.8h39.3l13.4-80.7
		C2130.9,474.3,2128.4,473.2,2123.6,471.9z"/>
	<path class="st1" d="M2293.2,360.1c3.8-18.6,5.7-36,5.7-52.2c0-21.7-4.1-39.8-12.4-54.3c-2.1-3.8-6.2-9.1-12.4-16
		c-6.6,7.9-10.9,12.9-12.9,15c-8.6,10-12.9,16.4-12.9,19.1l10.3,26.9c3.4,11.7,5.2,30,5.2,54.8c0,9-1.4,14.8-4.1,17.6
		c-15.9-20-26.2-34.3-31-42.9c-10.3-19.3-15.5-39-15.5-59v-27.4h-52.2v72.9c0,2.8,1.7,5,5.2,6.7l5.7,2.6v232.7h29
		c2.8-18.3,6.4-34.3,10.9-48.1c2.1-6.5,4.1-12.4,6.2-17.6c0-2.4-1.7-3.8-5.2-4.1l-12.9-1v-151c0.7-1,1.4-1.9,2.1-2.6
		c13.1,15.5,26.2,33.6,39.3,54.3c11.4,17.9,17.1,29,17.1,33.1c-6.2,46.2-9.3,75.9-9.3,89c0,12.4,1.6,24.8,4.7,37.2
		c4.5,17.6,10.7,26.4,18.6,26.4c10.7,0,18.4-9.5,23.3-28.4c3.1-11.7,4.7-25.5,4.7-41.4c0-36.2-6-66.2-18.1-90L2293.2,360.1z"/>
	<path class="st1" d="M2324.8,302.2c0,2.4,1.2,4.3,3.6,5.7c4.1,1.7,6.4,2.9,6.7,3.6v244.1h26.4c3.1-17.6,5.9-32.2,8.3-44
		c2.1-9.3,4-17.1,5.7-23.3c0-3.1-4-4.7-11.9-4.7V317.2c0-2.1,2.3-4.7,7-7.8c4.7-3.1,7-5.2,7-6.2v-62.1h-52.8V302.2z"/>
	<path class="st1" d="M2405,312.6c1.7,0,3.1-0.2,4.1-0.5c2.8,0,5,1,6.7,3.1l-0.5,125.2l-11.4,115.3h34.1c1.4-1.4,5.5-12.9,12.4-34.7
		c3.8-10.7,7.1-21,9.8-31c-1-0.3-2.8-1-5.2-2.1c-9.3-4.1-14-11.9-14-23.3c0-12.1,2.2-27.8,6.7-47.1c5.9-24.8,12.8-37.2,20.7-37.2
		l1.6,1.6l-9.8,28.4c-5.5,15.9-8.3,28.6-8.3,38.3c0,6.2,1.4,12.6,4.1,19.1c3.1,7.9,7.4,11.9,12.9,11.9c8.3,0,12.4-5.3,12.4-16
		c0-0.3-1.7-4-5.2-10.9c-2.8-5.9-4.1-11.4-4.1-16.6c0-9.3,1.9-20.9,5.7-34.7c5.2-17.9,10.2-26.9,15-26.9c0.7,0,3.1,0.9,7.2,2.6
		c4.1,1.7,6.7,2.6,7.8,2.6c2.4,0,9-10.2,19.7-30.5c0-2.1-2.8-4.7-8.3-7.8c-5.5-3.1-8.3-5.3-8.3-6.7c0-1.4,2.1-7.6,6.2-18.6
		c6.2-15.5,10.5-34.3,12.9-56.4c0.3-3.1,0.9-5.7,1.6-7.8v-7.8H2405V312.6z M2445.3,317.2c1.4-2.1,2.8-3.1,4.1-3.1h30.5
		c5.2,0,7.8,3.1,7.8,9.3c0,7.6-2.1,12.9-6.2,16c-17.2,13.4-29.3,22.4-36.2,26.9V317.2z"/>
	<path class="st1" d="M2557,557.2h128.3l-17.1-108.6c0.7-2.4,4-7.2,9.8-14.5c2.8-3.1,4.1-6.9,4.1-11.4c0-4.8-1.7-8.9-5.2-12.2
		c-3.4-3.3-7.6-4.9-12.4-4.9c-11.4,0-17.1,9.3-17.1,27.9c0,5.2,0.5,13.3,1.6,24.3c0.7,5.5,1,12.1,1,19.7c0,11-1.7,22.6-5.2,34.7
		c-4.8,15.5-11.9,23.3-21.2,23.3c-9.3,0-17.1-9.6-23.3-29c-4.8-14.1-7.2-28.6-7.2-43.4c0-27.6,4.1-49.8,12.4-66.7
		c2.8-5.9,6.9-11.2,12.4-16l2.1,0.5c-10,32.8-15,54-15,63.6c0,23.1,5.5,34.7,16.6,34.7c7.9,0,11.9-5,11.9-15c0-3.4-1.2-6.5-3.6-9.3
		c-4.5-7.6-6.7-14-6.7-19.1c0-6.9,2.1-18.3,6.2-34.1c4.8-17.9,9.1-26.9,12.9-26.9c2.8,0,8.1,1.9,16,5.7c1.4,0,5-4.6,10.9-13.7
		c5.9-9.1,8.8-14.7,8.8-16.8c0-2.8-3.1-5.8-9.3-9.1c-6.2-3.3-9.3-5.1-9.3-5.4c9-23.8,15.9-50.5,20.7-80.2v-10.9H2557v68.8
		c1.7,0,3.1-0.2,4.1-0.5c2.1,0,4,0.9,5.7,2.6v116.4L2557,557.2z M2594.8,318.3c0-1,0.9-2.4,2.6-4.1h32.6c5.5,0,8.3,3.3,8.3,9.8
		c0,7.6-5.3,15.3-16,23.3c-13.4,10-22.4,16.7-26.9,20.2l-0.5-3.6V318.3z"/>
</g>
</svg>
